<mxfile host="app.diagrams.net" modified="2022-04-22T10:38:36.455Z" agent="5.0 (Windows NT 10.0; Win64; x64) AppleWebKit/537.36 (KHTML, like Gecko) Chrome/100.0.4896.127 Safari/537.36 Edg/100.0.1185.44" etag="p0XqiGF6rlm3l1ubZLss" version="17.4.2" type="github" pages="3">
  <diagram name="Page-1" id="80d4a630-b321-0f5e-ff81-c5a36ef4752d">
    <mxGraphModel dx="2031" dy="1103" grid="1" gridSize="10" guides="1" tooltips="1" connect="1" arrows="1" fold="1" page="1" pageScale="1" pageWidth="1100" pageHeight="850" background="none" math="1" shadow="0">
      <root>
        <mxCell id="0" />
        <mxCell id="1" parent="0" />
        <mxCell id="5c82df7aa0dc6260-15" value="Enterprise Network" style="ellipse;whiteSpace=wrap;html=1;rounded=1;shadow=0;comic=0;labelBackgroundColor=none;strokeColor=#6881B3;strokeWidth=2;fillColor=#CCFFCC;fontFamily=Helvetica;fontSize=22;fontColor=#000000;verticalAlign=middle;gradientColor=none;gradientDirection=north;spacingBottom=36;" parent="1" vertex="1">
          <mxGeometry x="1313" y="568" width="580" height="250" as="geometry" />
        </mxCell>
        <mxCell id="5c82df7aa0dc6260-43" value="" style="ellipse;shape=cloud;whiteSpace=wrap;html=1;rounded=1;shadow=0;comic=0;strokeColor=none;strokeWidth=2;fillColor=#3399FF;fontColor=#0066CC;" parent="1" vertex="1">
          <mxGeometry x="1469" y="618" width="110" height="35" as="geometry" />
        </mxCell>
        <mxCell id="5c82df7aa0dc6260-14" value="Mobile Network" style="ellipse;whiteSpace=wrap;html=1;rounded=1;shadow=0;comic=0;labelBackgroundColor=none;strokeColor=#6881B3;strokeWidth=2;fillColor=#CCFFCC;fontFamily=Helvetica;fontSize=22;fontColor=#000000;verticalAlign=middle;gradientColor=none;gradientDirection=north;spacingBottom=17;" parent="1" vertex="1">
          <mxGeometry x="306" y="548" width="683" height="270" as="geometry" />
        </mxCell>
        <mxCell id="5c82df7aa0dc6260-13" value="ISP Network" style="ellipse;whiteSpace=wrap;html=1;rounded=1;shadow=0;comic=0;labelBackgroundColor=none;strokeColor=#6881B3;strokeWidth=2;fillColor=#CCFFCC;fontFamily=Helvetica;fontSize=22;fontColor=#000000;verticalAlign=middle;gradientColor=none;gradientDirection=north;" parent="1" vertex="1">
          <mxGeometry x="976" y="71" width="720" height="270" as="geometry" />
        </mxCell>
        <mxCell id="5c82df7aa0dc6260-58" style="edgeStyle=none;rounded=0;html=1;entryX=0.67;entryY=0.5;entryPerimeter=0;labelBackgroundColor=none;endArrow=none;strokeColor=#6881B3;strokeWidth=2;fontFamily=Verdana;fontSize=28;fontColor=#0066CC;" parent="1" source="5c82df7aa0dc6260-1" target="5c82df7aa0dc6260-2" edge="1">
          <mxGeometry relative="1" as="geometry" />
        </mxCell>
        <mxCell id="5c82df7aa0dc6260-61" style="edgeStyle=none;rounded=0;html=1;entryX=0.67;entryY=0.5;entryPerimeter=0;labelBackgroundColor=none;endArrow=none;strokeColor=#6881B3;strokeWidth=2;fontFamily=Verdana;fontSize=28;fontColor=#0066CC;" parent="1" source="5c82df7aa0dc6260-1" target="5c82df7aa0dc6260-4" edge="1">
          <mxGeometry relative="1" as="geometry" />
        </mxCell>
        <mxCell id="5c82df7aa0dc6260-62" style="edgeStyle=none;rounded=0;html=1;entryX=0.67;entryY=0.5;entryPerimeter=0;labelBackgroundColor=none;endArrow=none;strokeColor=#6881B3;strokeWidth=2;fontFamily=Verdana;fontSize=28;fontColor=#0066CC;" parent="1" source="5c82df7aa0dc6260-1" target="5c82df7aa0dc6260-3" edge="1">
          <mxGeometry relative="1" as="geometry" />
        </mxCell>
        <mxCell id="5c82df7aa0dc6260-63" style="edgeStyle=none;rounded=0;html=1;entryX=0.33;entryY=0.5;entryPerimeter=0;labelBackgroundColor=none;endArrow=none;strokeColor=#6881B3;strokeWidth=2;fontFamily=Verdana;fontSize=28;fontColor=#0066CC;" parent="1" source="5c82df7aa0dc6260-1" target="5c82df7aa0dc6260-7" edge="1">
          <mxGeometry relative="1" as="geometry" />
        </mxCell>
        <mxCell id="5c82df7aa0dc6260-1" value="" style="fontColor=#0066CC;verticalAlign=top;verticalLabelPosition=bottom;labelPosition=center;align=center;html=1;fillColor=#FFFFFF;strokeColor=#000000;gradientColor=none;gradientDirection=north;strokeWidth=2;shape=mxgraph.networks.radio_tower;rounded=1;shadow=0;comic=0;labelBackgroundColor=none;" parent="1" vertex="1">
          <mxGeometry x="914" y="566" width="55" height="100" as="geometry" />
        </mxCell>
        <mxCell id="5c82df7aa0dc6260-2" value="" style="fontColor=#0066CC;verticalAlign=top;verticalLabelPosition=bottom;labelPosition=center;align=center;html=1;fillColor=#FFFFFF;strokeColor=#000000;gradientColor=none;gradientDirection=north;strokeWidth=2;shape=mxgraph.networks.radio_tower;rounded=1;shadow=0;comic=0;labelBackgroundColor=none;" parent="1" vertex="1">
          <mxGeometry x="606" y="473" width="55" height="100" as="geometry" />
        </mxCell>
        <mxCell id="5c82df7aa0dc6260-3" value="" style="fontColor=#0066CC;verticalAlign=top;verticalLabelPosition=bottom;labelPosition=center;align=center;html=1;fillColor=#FFFFFF;strokeColor=#000000;gradientColor=none;gradientDirection=north;strokeWidth=2;shape=mxgraph.networks.radio_tower;rounded=1;shadow=0;comic=0;labelBackgroundColor=none;" parent="1" vertex="1">
          <mxGeometry x="395" y="608" width="55" height="100" as="geometry" />
        </mxCell>
        <mxCell id="5c82df7aa0dc6260-4" value="" style="fontColor=#0066CC;verticalAlign=top;verticalLabelPosition=bottom;labelPosition=center;align=center;html=1;fillColor=#FFFFFF;strokeColor=#000000;gradientColor=none;gradientDirection=north;strokeWidth=2;shape=mxgraph.networks.radio_tower;rounded=1;shadow=0;comic=0;labelBackgroundColor=none;" parent="1" vertex="1">
          <mxGeometry x="606" y="707" width="55" height="100" as="geometry" />
        </mxCell>
        <mxCell id="5c82df7aa0dc6260-19" style="edgeStyle=none;rounded=0;html=1;labelBackgroundColor=none;endArrow=none;strokeColor=#6881B3;strokeWidth=2;fontFamily=Verdana;fontSize=28;fontColor=#0066CC;" parent="1" edge="1">
          <mxGeometry relative="1" as="geometry">
            <mxPoint x="1241.9999999999995" y="91" as="sourcePoint" />
            <mxPoint x="1439" y="91" as="targetPoint" />
          </mxGeometry>
        </mxCell>
        <mxCell id="5c82df7aa0dc6260-23" style="edgeStyle=none;rounded=0;html=1;labelBackgroundColor=none;endArrow=none;strokeColor=#6881B3;strokeWidth=2;fontFamily=Verdana;fontSize=28;fontColor=#0066CC;" parent="1" target="5c82df7aa0dc6260-22" edge="1">
          <mxGeometry relative="1" as="geometry">
            <mxPoint x="1186.9999999999995" y="108.24738675958201" as="sourcePoint" />
          </mxGeometry>
        </mxCell>
        <mxCell id="5c82df7aa0dc6260-5" value="" style="fontColor=#0066CC;verticalAlign=top;verticalLabelPosition=bottom;labelPosition=center;align=center;html=1;fillColor=#FFFFFF;strokeColor=#000000;gradientColor=none;gradientDirection=north;strokeWidth=2;shape=mxgraph.networks.radio_tower;rounded=1;shadow=0;comic=0;labelBackgroundColor=none;" parent="1" vertex="1">
          <mxGeometry x="1188" y="33" width="55" height="100" as="geometry" />
        </mxCell>
        <mxCell id="5c82df7aa0dc6260-18" style="edgeStyle=none;rounded=0;html=1;labelBackgroundColor=none;endArrow=none;strokeColor=#6881B3;strokeWidth=2;fontFamily=Verdana;fontSize=28;fontColor=#0066CC;" parent="1" source="5c82df7aa0dc6260-6" edge="1">
          <mxGeometry relative="1" as="geometry">
            <mxPoint x="1519.178571428571" y="141" as="targetPoint" />
          </mxGeometry>
        </mxCell>
        <mxCell id="5c82df7aa0dc6260-6" value="" style="fontColor=#0066CC;verticalAlign=top;verticalLabelPosition=bottom;labelPosition=center;align=center;html=1;fillColor=#FFFFFF;strokeColor=#000000;gradientColor=none;gradientDirection=north;strokeWidth=2;shape=mxgraph.networks.radio_tower;rounded=1;shadow=0;comic=0;labelBackgroundColor=none;" parent="1" vertex="1">
          <mxGeometry x="1555" y="181" width="55" height="100" as="geometry" />
        </mxCell>
        <mxCell id="5c82df7aa0dc6260-16" style="edgeStyle=none;rounded=0;html=1;labelBackgroundColor=none;endArrow=none;strokeColor=#6881B3;strokeWidth=2;fontFamily=Verdana;fontSize=28;fontColor=#0066CC;entryX=0.189;entryY=0.801;entryPerimeter=0;" parent="1" source="5c82df7aa0dc6260-7" target="5c82df7aa0dc6260-6" edge="1">
          <mxGeometry relative="1" as="geometry">
            <mxPoint x="1382.9999999999995" y="383" as="targetPoint" />
          </mxGeometry>
        </mxCell>
        <mxCell id="5c82df7aa0dc6260-25" style="edgeStyle=none;rounded=0;html=1;labelBackgroundColor=none;endArrow=none;strokeColor=#6881B3;strokeWidth=2;fontFamily=Verdana;fontSize=28;fontColor=#0066CC;" parent="1" source="5c82df7aa0dc6260-7" target="5c82df7aa0dc6260-8" edge="1">
          <mxGeometry relative="1" as="geometry" />
        </mxCell>
        <mxCell id="5c82df7aa0dc6260-7" value="" style="fontColor=#0066CC;verticalAlign=top;verticalLabelPosition=bottom;labelPosition=center;align=center;html=1;fillColor=#FFFFFF;strokeColor=#000000;gradientColor=none;gradientDirection=north;strokeWidth=2;shape=mxgraph.networks.radio_tower;rounded=1;shadow=0;comic=0;labelBackgroundColor=none;" parent="1" vertex="1">
          <mxGeometry x="1463" y="388" width="55" height="100" as="geometry" />
        </mxCell>
        <mxCell id="5c82df7aa0dc6260-26" style="edgeStyle=none;rounded=0;html=1;labelBackgroundColor=none;endArrow=none;strokeColor=#6881B3;strokeWidth=2;fontFamily=Verdana;fontSize=28;fontColor=#0066CC;" parent="1" source="5c82df7aa0dc6260-8" target="5c82df7aa0dc6260-12" edge="1">
          <mxGeometry relative="1" as="geometry" />
        </mxCell>
        <mxCell id="5c82df7aa0dc6260-8" value="" style="fontColor=#0066CC;verticalAlign=top;verticalLabelPosition=bottom;labelPosition=center;align=center;html=1;fillColor=#CCCCCC;strokeColor=#000000;gradientColor=none;gradientDirection=north;strokeWidth=2;shape=mxgraph.networks.business_center;rounded=1;shadow=0;comic=0;labelBackgroundColor=none;" parent="1" vertex="1">
          <mxGeometry x="1553" y="508" width="90" height="100" as="geometry" />
        </mxCell>
        <mxCell id="5c82df7aa0dc6260-28" style="edgeStyle=none;rounded=0;html=1;labelBackgroundColor=none;endArrow=none;strokeColor=#6881B3;strokeWidth=2;fontFamily=Verdana;fontSize=28;fontColor=#0066CC;" parent="1" source="5c82df7aa0dc6260-9" target="5c82df7aa0dc6260-10" edge="1">
          <mxGeometry relative="1" as="geometry" />
        </mxCell>
        <mxCell id="5c82df7aa0dc6260-9" value="" style="fontColor=#0066CC;verticalAlign=top;verticalLabelPosition=bottom;labelPosition=center;align=center;html=1;fillColor=#CCCCCC;strokeColor=#000000;gradientColor=none;gradientDirection=north;strokeWidth=2;shape=mxgraph.networks.business_center;rounded=1;shadow=0;comic=0;labelBackgroundColor=none;" parent="1" vertex="1">
          <mxGeometry x="1583" y="698" width="90" height="100" as="geometry" />
        </mxCell>
        <mxCell id="5c82df7aa0dc6260-29" style="edgeStyle=none;rounded=0;html=1;labelBackgroundColor=none;endArrow=none;strokeColor=#6881B3;strokeWidth=2;fontFamily=Verdana;fontSize=28;fontColor=#0066CC;" parent="1" source="5c82df7aa0dc6260-10" target="5c82df7aa0dc6260-8" edge="1">
          <mxGeometry relative="1" as="geometry" />
        </mxCell>
        <mxCell id="5c82df7aa0dc6260-10" value="" style="fontColor=#0066CC;verticalAlign=top;verticalLabelPosition=bottom;labelPosition=center;align=center;html=1;fillColor=#CCCCCC;strokeColor=#000000;gradientColor=none;gradientDirection=north;strokeWidth=2;shape=mxgraph.networks.business_center;rounded=1;shadow=0;comic=0;labelBackgroundColor=none;" parent="1" vertex="1">
          <mxGeometry x="1333" y="598" width="90" height="100" as="geometry" />
        </mxCell>
        <mxCell id="5c82df7aa0dc6260-27" style="edgeStyle=none;rounded=0;html=1;labelBackgroundColor=none;endArrow=none;strokeColor=#6881B3;strokeWidth=2;fontFamily=Verdana;fontSize=28;fontColor=#0066CC;" parent="1" source="5c82df7aa0dc6260-12" target="5c82df7aa0dc6260-9" edge="1">
          <mxGeometry relative="1" as="geometry" />
        </mxCell>
        <mxCell id="5c82df7aa0dc6260-12" value="" style="fontColor=#0066CC;verticalAlign=top;verticalLabelPosition=bottom;labelPosition=center;align=center;html=1;fillColor=#CCCCCC;strokeColor=#000000;gradientColor=none;gradientDirection=north;strokeWidth=2;shape=mxgraph.networks.community;rounded=1;shadow=0;comic=0;labelBackgroundColor=none;" parent="1" vertex="1">
          <mxGeometry x="1783" y="608" width="95" height="100" as="geometry" />
        </mxCell>
        <mxCell id="5c82df7aa0dc6260-17" value="" style="fontColor=#0066CC;verticalAlign=top;verticalLabelPosition=bottom;labelPosition=center;align=center;html=1;fillColor=#CCCCCC;strokeColor=#000000;gradientColor=none;gradientDirection=north;strokeWidth=2;shape=mxgraph.networks.business_center;rounded=1;shadow=0;comic=0;labelBackgroundColor=none;" parent="1" vertex="1">
          <mxGeometry x="1431" y="54" width="90" height="100" as="geometry" />
        </mxCell>
        <mxCell id="5c82df7aa0dc6260-20" value="" style="fontColor=#0066CC;verticalAlign=top;verticalLabelPosition=bottom;labelPosition=center;align=center;html=1;fillColor=#CCCCCC;strokeColor=#000000;gradientColor=none;gradientDirection=north;strokeWidth=2;shape=mxgraph.networks.community;rounded=1;shadow=0;comic=0;" parent="1" vertex="1">
          <mxGeometry x="1276" y="231" width="95" height="100" as="geometry" />
        </mxCell>
        <mxCell id="5c82df7aa0dc6260-24" style="edgeStyle=none;rounded=0;html=1;labelBackgroundColor=none;endArrow=none;strokeColor=#6881B3;strokeWidth=2;fontFamily=Verdana;fontSize=28;fontColor=#0066CC;" parent="1" source="5c82df7aa0dc6260-22" target="5c82df7aa0dc6260-20" edge="1">
          <mxGeometry relative="1" as="geometry" />
        </mxCell>
        <mxCell id="5c82df7aa0dc6260-22" value="" style="fontColor=#0066CC;verticalAlign=top;verticalLabelPosition=bottom;labelPosition=center;align=center;html=1;fillColor=#CCCCCC;strokeColor=#000000;gradientColor=none;gradientDirection=north;strokeWidth=2;shape=mxgraph.networks.business_center;rounded=1;shadow=0;comic=0;labelBackgroundColor=none;" parent="1" vertex="1">
          <mxGeometry x="1026" y="131" width="90" height="100" as="geometry" />
        </mxCell>
        <mxCell id="5c82df7aa0dc6260-31" value="" style="shape=image;html=1;verticalAlign=top;verticalLabelPosition=bottom;labelBackgroundColor=#ffffff;imageAspect=0;aspect=fixed;image=https://cdn0.iconfinder.com/data/icons/fatcow/32x32/tree.png;rounded=1;shadow=0;comic=0;strokeColor=#6881B3;strokeWidth=2;fillColor=#CCFFCC;fontColor=#0066CC;" parent="1" vertex="1">
          <mxGeometry x="1663" y="576" width="32" height="32" as="geometry" />
        </mxCell>
        <mxCell id="5c82df7aa0dc6260-32" value="" style="shape=image;html=1;verticalAlign=top;verticalLabelPosition=bottom;labelBackgroundColor=#ffffff;imageAspect=0;aspect=fixed;image=https://cdn0.iconfinder.com/data/icons/fatcow/32x32/tree.png;rounded=1;shadow=0;comic=0;strokeColor=#6881B3;strokeWidth=2;fillColor=#CCFFCC;fontColor=#0066CC;" parent="1" vertex="1">
          <mxGeometry x="1693" y="592" width="32" height="32" as="geometry" />
        </mxCell>
        <mxCell id="5c82df7aa0dc6260-33" value="" style="shape=image;html=1;verticalAlign=top;verticalLabelPosition=bottom;labelBackgroundColor=#ffffff;imageAspect=0;aspect=fixed;image=https://cdn0.iconfinder.com/data/icons/fatcow/32x32/tree.png;rounded=1;shadow=0;comic=0;strokeColor=#6881B3;strokeWidth=2;fillColor=#CCFFCC;fontColor=#0066CC;" parent="1" vertex="1">
          <mxGeometry x="1673" y="608" width="32" height="32" as="geometry" />
        </mxCell>
        <mxCell id="5c82df7aa0dc6260-34" value="" style="shape=image;html=1;verticalAlign=top;verticalLabelPosition=bottom;labelBackgroundColor=#ffffff;imageAspect=0;aspect=fixed;image=https://cdn0.iconfinder.com/data/icons/fatcow/32x32/tree.png;rounded=1;shadow=0;comic=0;strokeColor=#6881B3;strokeWidth=2;fillColor=#CCFFCC;fontColor=#0066CC;" parent="1" vertex="1">
          <mxGeometry x="1453" y="624" width="32" height="32" as="geometry" />
        </mxCell>
        <mxCell id="5c82df7aa0dc6260-38" value="" style="shape=image;html=1;verticalAlign=top;verticalLabelPosition=bottom;labelBackgroundColor=#ffffff;imageAspect=0;aspect=fixed;image=https://cdn0.iconfinder.com/data/icons/fatcow/32x32/tree.png;rounded=1;shadow=0;comic=0;strokeColor=#6881B3;strokeWidth=2;fillColor=#CCFFCC;fontColor=#0066CC;" parent="1" vertex="1">
          <mxGeometry x="1537" y="748" width="32" height="32" as="geometry" />
        </mxCell>
        <mxCell id="5c82df7aa0dc6260-37" value="" style="shape=image;html=1;verticalAlign=top;verticalLabelPosition=bottom;labelBackgroundColor=#ffffff;imageAspect=0;aspect=fixed;image=https://cdn0.iconfinder.com/data/icons/fatcow/32x32/tree.png;rounded=1;shadow=0;comic=0;strokeColor=#6881B3;strokeWidth=2;fillColor=#CCFFCC;fontColor=#0066CC;" parent="1" vertex="1">
          <mxGeometry x="1521" y="764" width="32" height="32" as="geometry" />
        </mxCell>
        <mxCell id="5c82df7aa0dc6260-35" value="" style="shape=image;html=1;verticalAlign=top;verticalLabelPosition=bottom;labelBackgroundColor=#ffffff;imageAspect=0;aspect=fixed;image=https://cdn0.iconfinder.com/data/icons/fatcow/32x32/tree.png;rounded=1;shadow=0;comic=0;strokeColor=#6881B3;strokeWidth=2;fillColor=#CCFFCC;fontColor=#0066CC;" parent="1" vertex="1">
          <mxGeometry x="1466" y="638" width="32" height="32" as="geometry" />
        </mxCell>
        <mxCell id="5c82df7aa0dc6260-39" value="" style="shape=image;html=1;verticalAlign=top;verticalLabelPosition=bottom;labelBackgroundColor=#ffffff;imageAspect=0;aspect=fixed;image=https://cdn0.iconfinder.com/data/icons/fatcow/32x32/tree.png;rounded=1;shadow=0;comic=0;strokeColor=#6881B3;strokeWidth=2;fillColor=#CCFFCC;fontColor=#0066CC;" parent="1" vertex="1">
          <mxGeometry x="1679" y="738" width="32" height="32" as="geometry" />
        </mxCell>
        <mxCell id="5c82df7aa0dc6260-40" value="" style="shape=image;html=1;verticalAlign=top;verticalLabelPosition=bottom;labelBackgroundColor=#ffffff;imageAspect=0;aspect=fixed;image=https://cdn0.iconfinder.com/data/icons/fatcow/32x32/tree.png;rounded=1;shadow=0;comic=0;strokeColor=#6881B3;strokeWidth=2;fillColor=#CCFFCC;fontColor=#0066CC;" parent="1" vertex="1">
          <mxGeometry x="1693" y="744" width="32" height="32" as="geometry" />
        </mxCell>
        <mxCell id="5c82df7aa0dc6260-36" value="" style="shape=image;html=1;verticalAlign=top;verticalLabelPosition=bottom;labelBackgroundColor=#ffffff;imageAspect=0;aspect=fixed;image=https://cdn0.iconfinder.com/data/icons/fatcow/32x32/tree.png;rounded=1;shadow=0;comic=0;strokeColor=#6881B3;strokeWidth=2;fillColor=#CCFFCC;fontColor=#0066CC;" parent="1" vertex="1">
          <mxGeometry x="1687" y="764" width="32" height="32" as="geometry" />
        </mxCell>
        <mxCell id="5c82df7aa0dc6260-41" value="" style="shape=image;html=1;verticalAlign=top;verticalLabelPosition=bottom;labelBackgroundColor=#ffffff;imageAspect=0;aspect=fixed;image=https://cdn0.iconfinder.com/data/icons/fatcow/32x32/tree.png;rounded=1;shadow=0;comic=0;strokeColor=#6881B3;strokeWidth=2;fillColor=#CCFFCC;fontColor=#0066CC;" parent="1" vertex="1">
          <mxGeometry x="1751" y="693" width="32" height="32" as="geometry" />
        </mxCell>
        <mxCell id="5c82df7aa0dc6260-42" value="" style="shape=image;html=1;verticalAlign=top;verticalLabelPosition=bottom;labelBackgroundColor=#ffffff;imageAspect=0;aspect=fixed;image=https://cdn0.iconfinder.com/data/icons/fatcow/32x32/tree.png;rounded=1;shadow=0;comic=0;strokeColor=#6881B3;strokeWidth=2;fillColor=#CCFFCC;fontColor=#0066CC;" parent="1" vertex="1">
          <mxGeometry x="1434" y="635" width="32" height="32" as="geometry" />
        </mxCell>
        <mxCell id="5c82df7aa0dc6260-44" value="" style="ellipse;shape=cloud;whiteSpace=wrap;html=1;rounded=1;shadow=0;comic=0;strokeColor=none;strokeWidth=2;fillColor=#3399FF;fontColor=#0066CC;" parent="1" vertex="1">
          <mxGeometry x="1261" y="149" width="110" height="35" as="geometry" />
        </mxCell>
        <mxCell id="5c82df7aa0dc6260-45" value="" style="shape=image;html=1;verticalAlign=top;verticalLabelPosition=bottom;labelBackgroundColor=#ffffff;imageAspect=0;aspect=fixed;image=https://cdn0.iconfinder.com/data/icons/fatcow/32x32/tree.png;rounded=1;shadow=0;comic=0;strokeColor=#6881B3;strokeWidth=2;fillColor=#CCFFCC;fontColor=#0066CC;" parent="1" vertex="1">
          <mxGeometry x="1539" y="81" width="32" height="32" as="geometry" />
        </mxCell>
        <mxCell id="5c82df7aa0dc6260-46" value="" style="shape=image;html=1;verticalAlign=top;verticalLabelPosition=bottom;labelBackgroundColor=#ffffff;imageAspect=0;aspect=fixed;image=https://cdn0.iconfinder.com/data/icons/fatcow/32x32/tree.png;rounded=1;shadow=0;comic=0;strokeColor=#6881B3;strokeWidth=2;fillColor=#CCFFCC;fontColor=#0066CC;" parent="1" vertex="1">
          <mxGeometry x="1571" y="91" width="32" height="32" as="geometry" />
        </mxCell>
        <mxCell id="5c82df7aa0dc6260-47" value="" style="shape=image;html=1;verticalAlign=top;verticalLabelPosition=bottom;labelBackgroundColor=#ffffff;imageAspect=0;aspect=fixed;image=https://cdn0.iconfinder.com/data/icons/fatcow/32x32/tree.png;rounded=1;shadow=0;comic=0;strokeColor=#6881B3;strokeWidth=2;fillColor=#CCFFCC;fontColor=#0066CC;" parent="1" vertex="1">
          <mxGeometry x="1559" y="101" width="32" height="32" as="geometry" />
        </mxCell>
        <mxCell id="5c82df7aa0dc6260-48" value="" style="shape=image;html=1;verticalAlign=top;verticalLabelPosition=bottom;labelBackgroundColor=#ffffff;imageAspect=0;aspect=fixed;image=https://cdn0.iconfinder.com/data/icons/fatcow/32x32/tree.png;rounded=1;shadow=0;comic=0;strokeColor=#6881B3;strokeWidth=2;fillColor=#CCFFCC;fontColor=#0066CC;" parent="1" vertex="1">
          <mxGeometry x="1593" y="104" width="32" height="32" as="geometry" />
        </mxCell>
        <mxCell id="5c82df7aa0dc6260-49" value="" style="shape=image;html=1;verticalAlign=top;verticalLabelPosition=bottom;labelBackgroundColor=#ffffff;imageAspect=0;aspect=fixed;image=https://cdn0.iconfinder.com/data/icons/fatcow/32x32/tree.png;rounded=1;shadow=0;comic=0;strokeColor=#6881B3;strokeWidth=2;fillColor=#CCFFCC;fontColor=#0066CC;" parent="1" vertex="1">
          <mxGeometry x="1407" y="241" width="32" height="32" as="geometry" />
        </mxCell>
        <mxCell id="5c82df7aa0dc6260-50" value="" style="shape=image;html=1;verticalAlign=top;verticalLabelPosition=bottom;labelBackgroundColor=#ffffff;imageAspect=0;aspect=fixed;image=https://cdn0.iconfinder.com/data/icons/fatcow/32x32/tree.png;rounded=1;shadow=0;comic=0;strokeColor=#6881B3;strokeWidth=2;fillColor=#CCFFCC;fontColor=#0066CC;" parent="1" vertex="1">
          <mxGeometry x="1431" y="249" width="32" height="32" as="geometry" />
        </mxCell>
        <mxCell id="5c82df7aa0dc6260-51" value="" style="shape=image;html=1;verticalAlign=top;verticalLabelPosition=bottom;labelBackgroundColor=#ffffff;imageAspect=0;aspect=fixed;image=https://cdn0.iconfinder.com/data/icons/fatcow/32x32/tree.png;rounded=1;shadow=0;comic=0;strokeColor=#6881B3;strokeWidth=2;fillColor=#CCFFCC;fontColor=#0066CC;" parent="1" vertex="1">
          <mxGeometry x="1415" y="265" width="32" height="32" as="geometry" />
        </mxCell>
        <mxCell id="5c82df7aa0dc6260-52" value="" style="shape=image;html=1;verticalAlign=top;verticalLabelPosition=bottom;labelBackgroundColor=#ffffff;imageAspect=0;aspect=fixed;image=https://cdn0.iconfinder.com/data/icons/fatcow/32x32/tree.png;rounded=1;shadow=0;comic=0;strokeColor=#6881B3;strokeWidth=2;fillColor=#CCFFCC;fontColor=#0066CC;" parent="1" vertex="1">
          <mxGeometry x="1323" y="124" width="32" height="32" as="geometry" />
        </mxCell>
        <mxCell id="5c82df7aa0dc6260-53" value="" style="shape=image;html=1;verticalAlign=top;verticalLabelPosition=bottom;labelBackgroundColor=#ffffff;imageAspect=0;aspect=fixed;image=https://cdn0.iconfinder.com/data/icons/fatcow/32x32/tree.png;rounded=1;shadow=0;comic=0;strokeColor=#6881B3;strokeWidth=2;fillColor=#CCFFCC;fontColor=#0066CC;" parent="1" vertex="1">
          <mxGeometry x="1284" y="120" width="32" height="32" as="geometry" />
        </mxCell>
        <mxCell id="5c82df7aa0dc6260-54" value="" style="shape=image;html=1;verticalAlign=top;verticalLabelPosition=bottom;labelBackgroundColor=#ffffff;imageAspect=0;aspect=fixed;image=https://cdn0.iconfinder.com/data/icons/fatcow/32x32/tree.png;rounded=1;shadow=0;comic=0;strokeColor=#6881B3;strokeWidth=2;fillColor=#CCFFCC;fontColor=#0066CC;" parent="1" vertex="1">
          <mxGeometry x="1257" y="156" width="32" height="32" as="geometry" />
        </mxCell>
        <mxCell id="5c82df7aa0dc6260-55" value="" style="shape=image;html=1;verticalAlign=top;verticalLabelPosition=bottom;labelBackgroundColor=#ffffff;imageAspect=0;aspect=fixed;image=https://cdn0.iconfinder.com/data/icons/fatcow/32x32/tree.png;rounded=1;shadow=0;comic=0;strokeColor=#6881B3;strokeWidth=2;fillColor=#CCFFCC;fontColor=#0066CC;" parent="1" vertex="1">
          <mxGeometry x="1071" y="120" width="32" height="32" as="geometry" />
        </mxCell>
        <mxCell id="5c82df7aa0dc6260-56" value="" style="shape=image;html=1;verticalAlign=top;verticalLabelPosition=bottom;labelBackgroundColor=#ffffff;imageAspect=0;aspect=fixed;image=https://cdn0.iconfinder.com/data/icons/fatcow/32x32/tree.png;rounded=1;shadow=0;comic=0;strokeColor=#6881B3;strokeWidth=2;fillColor=#CCFFCC;fontColor=#0066CC;" parent="1" vertex="1">
          <mxGeometry x="1087" y="125" width="32" height="32" as="geometry" />
        </mxCell>
        <mxCell id="5c82df7aa0dc6260-57" value="" style="shape=image;html=1;verticalAlign=top;verticalLabelPosition=bottom;labelBackgroundColor=#ffffff;imageAspect=0;aspect=fixed;image=https://cdn0.iconfinder.com/data/icons/fatcow/32x32/tree.png;rounded=1;shadow=0;comic=0;strokeColor=#6881B3;strokeWidth=2;fillColor=#CCFFCC;fontColor=#0066CC;" parent="1" vertex="1">
          <mxGeometry x="1103" y="233" width="32" height="32" as="geometry" />
        </mxCell>
        <mxCell id="5c82df7aa0dc6260-21" style="edgeStyle=none;rounded=0;html=1;labelBackgroundColor=none;endArrow=none;strokeColor=#6881B3;strokeWidth=2;fontFamily=Verdana;fontSize=28;fontColor=#0066CC;" parent="1" source="5c82df7aa0dc6260-6" target="5c82df7aa0dc6260-20" edge="1">
          <mxGeometry relative="1" as="geometry" />
        </mxCell>
        <mxCell id="5c82df7aa0dc6260-64" value="" style="shape=image;html=1;verticalAlign=top;verticalLabelPosition=bottom;labelBackgroundColor=#ffffff;imageAspect=0;aspect=fixed;image=https://cdn0.iconfinder.com/data/icons/fatcow/32x32/tree.png;rounded=1;shadow=0;comic=0;strokeColor=#6881B3;strokeWidth=2;fillColor=#CCFFCC;fontColor=#0066CC;" parent="1" vertex="1">
          <mxGeometry x="661" y="557" width="32" height="32" as="geometry" />
        </mxCell>
        <mxCell id="5c82df7aa0dc6260-65" value="" style="shape=image;html=1;verticalAlign=top;verticalLabelPosition=bottom;labelBackgroundColor=#ffffff;imageAspect=0;aspect=fixed;image=https://cdn0.iconfinder.com/data/icons/fatcow/32x32/tree.png;rounded=1;shadow=0;comic=0;strokeColor=#6881B3;strokeWidth=2;fillColor=#CCFFCC;fontColor=#0066CC;" parent="1" vertex="1">
          <mxGeometry x="566" y="550" width="32" height="32" as="geometry" />
        </mxCell>
        <mxCell id="5c82df7aa0dc6260-66" value="" style="shape=image;html=1;verticalAlign=top;verticalLabelPosition=bottom;labelBackgroundColor=#ffffff;imageAspect=0;aspect=fixed;image=https://cdn0.iconfinder.com/data/icons/fatcow/32x32/tree.png;rounded=1;shadow=0;comic=0;strokeColor=#6881B3;strokeWidth=2;fillColor=#CCFFCC;fontColor=#0066CC;" parent="1" vertex="1">
          <mxGeometry x="576" y="560" width="32" height="32" as="geometry" />
        </mxCell>
        <mxCell id="5c82df7aa0dc6260-67" value="" style="shape=image;html=1;verticalAlign=top;verticalLabelPosition=bottom;labelBackgroundColor=#ffffff;imageAspect=0;aspect=fixed;image=https://cdn0.iconfinder.com/data/icons/fatcow/32x32/tree.png;rounded=1;shadow=0;comic=0;strokeColor=#6881B3;strokeWidth=2;fillColor=#CCFFCC;fontColor=#0066CC;" parent="1" vertex="1">
          <mxGeometry x="608" y="582" width="32" height="32" as="geometry" />
        </mxCell>
        <mxCell id="5c82df7aa0dc6260-68" value="" style="shape=image;html=1;verticalAlign=top;verticalLabelPosition=bottom;labelBackgroundColor=#ffffff;imageAspect=0;aspect=fixed;image=https://cdn0.iconfinder.com/data/icons/fatcow/32x32/tree.png;rounded=1;shadow=0;comic=0;strokeColor=#6881B3;strokeWidth=2;fillColor=#CCFFCC;fontColor=#0066CC;" parent="1" vertex="1">
          <mxGeometry x="416" y="738" width="32" height="32" as="geometry" />
        </mxCell>
        <mxCell id="5c82df7aa0dc6260-69" value="" style="shape=image;html=1;verticalAlign=top;verticalLabelPosition=bottom;labelBackgroundColor=#ffffff;imageAspect=0;aspect=fixed;image=https://cdn0.iconfinder.com/data/icons/fatcow/32x32/tree.png;rounded=1;shadow=0;comic=0;strokeColor=#6881B3;strokeWidth=2;fillColor=#CCFFCC;fontColor=#0066CC;" parent="1" vertex="1">
          <mxGeometry x="466" y="714" width="32" height="32" as="geometry" />
        </mxCell>
        <mxCell id="5c82df7aa0dc6260-70" value="" style="shape=image;html=1;verticalAlign=top;verticalLabelPosition=bottom;labelBackgroundColor=#ffffff;imageAspect=0;aspect=fixed;image=https://cdn0.iconfinder.com/data/icons/fatcow/32x32/tree.png;rounded=1;shadow=0;comic=0;strokeColor=#6881B3;strokeWidth=2;fillColor=#CCFFCC;fontColor=#0066CC;" parent="1" vertex="1">
          <mxGeometry x="450" y="741" width="32" height="32" as="geometry" />
        </mxCell>
        <mxCell id="5c82df7aa0dc6260-71" value="" style="shape=image;html=1;verticalAlign=top;verticalLabelPosition=bottom;labelBackgroundColor=#ffffff;imageAspect=0;aspect=fixed;image=https://cdn0.iconfinder.com/data/icons/fatcow/32x32/tree.png;rounded=1;shadow=0;comic=0;strokeColor=#6881B3;strokeWidth=2;fillColor=#CCFFCC;fontColor=#0066CC;" parent="1" vertex="1">
          <mxGeometry x="482" y="732" width="32" height="32" as="geometry" />
        </mxCell>
        <mxCell id="5c82df7aa0dc6260-72" value="" style="shape=image;html=1;verticalAlign=top;verticalLabelPosition=bottom;labelBackgroundColor=#ffffff;imageAspect=0;aspect=fixed;image=https://cdn0.iconfinder.com/data/icons/fatcow/32x32/tree.png;rounded=1;shadow=0;comic=0;strokeColor=#6881B3;strokeWidth=2;fillColor=#CCFFCC;fontColor=#0066CC;" parent="1" vertex="1">
          <mxGeometry x="909" y="688" width="32" height="32" as="geometry" />
        </mxCell>
        <mxCell id="5c82df7aa0dc6260-73" value="" style="shape=image;html=1;verticalAlign=top;verticalLabelPosition=bottom;labelBackgroundColor=#ffffff;imageAspect=0;aspect=fixed;image=https://cdn0.iconfinder.com/data/icons/fatcow/32x32/tree.png;rounded=1;shadow=0;comic=0;strokeColor=#6881B3;strokeWidth=2;fillColor=#CCFFCC;fontColor=#0066CC;" parent="1" vertex="1">
          <mxGeometry x="893" y="700" width="32" height="32" as="geometry" />
        </mxCell>
        <mxCell id="5c82df7aa0dc6260-74" value="" style="shape=image;html=1;verticalAlign=top;verticalLabelPosition=bottom;labelBackgroundColor=#ffffff;imageAspect=0;aspect=fixed;image=https://cdn0.iconfinder.com/data/icons/fatcow/32x32/tree.png;rounded=1;shadow=0;comic=0;strokeColor=#6881B3;strokeWidth=2;fillColor=#CCFFCC;fontColor=#0066CC;" parent="1" vertex="1">
          <mxGeometry x="864" y="672" width="32" height="32" as="geometry" />
        </mxCell>
        <mxCell id="5c82df7aa0dc6260-75" value="" style="shape=image;html=1;verticalAlign=top;verticalLabelPosition=bottom;labelBackgroundColor=#ffffff;imageAspect=0;aspect=fixed;image=https://cdn0.iconfinder.com/data/icons/fatcow/32x32/tree.png;rounded=1;shadow=0;comic=0;strokeColor=#6881B3;strokeWidth=2;fillColor=#CCFFCC;fontColor=#0066CC;" parent="1" vertex="1">
          <mxGeometry x="726" y="746" width="32" height="32" as="geometry" />
        </mxCell>
        <mxCell id="5c82df7aa0dc6260-76" value="" style="shape=image;html=1;verticalAlign=top;verticalLabelPosition=bottom;labelBackgroundColor=#ffffff;imageAspect=0;aspect=fixed;image=https://cdn0.iconfinder.com/data/icons/fatcow/32x32/tree.png;rounded=1;shadow=0;comic=0;strokeColor=#6881B3;strokeWidth=2;fillColor=#CCFFCC;fontColor=#0066CC;" parent="1" vertex="1">
          <mxGeometry x="710" y="756" width="32" height="32" as="geometry" />
        </mxCell>
        <mxCell id="5c82df7aa0dc6260-77" value="" style="fontColor=#0066CC;verticalAlign=top;verticalLabelPosition=bottom;labelPosition=center;align=center;html=1;fillColor=#CCCCCC;strokeColor=#000000;gradientColor=none;gradientDirection=north;strokeWidth=2;shape=mxgraph.networks.satellite;rounded=1;shadow=0;comic=0;" parent="1" vertex="1">
          <mxGeometry x="1071" y="373" width="100" height="100" as="geometry" />
        </mxCell>
        <mxCell id="5c82df7aa0dc6260-78" value="" style="html=1;fillColor=#CCCCCC;strokeColor=#000000;gradientColor=none;gradientDirection=north;strokeWidth=2;shape=mxgraph.networks.comm_link_edge;html=1;labelBackgroundColor=none;endArrow=none;fontFamily=Verdana;fontSize=22;fontColor=#000000;" parent="1" target="5c82df7aa0dc6260-77" edge="1">
          <mxGeometry width="100" height="100" relative="1" as="geometry">
            <mxPoint x="968" y="558" as="sourcePoint" />
            <mxPoint x="978" y="448" as="targetPoint" />
          </mxGeometry>
        </mxCell>
        <mxCell id="5c82df7aa0dc6260-79" value="" style="html=1;fillColor=#CCCCCC;strokeColor=#000000;gradientColor=none;gradientDirection=north;strokeWidth=2;shape=mxgraph.networks.comm_link_edge;html=1;labelBackgroundColor=none;endArrow=none;fontFamily=Verdana;fontSize=22;fontColor=#000000;" parent="1" source="5c82df7aa0dc6260-77" target="5c82df7aa0dc6260-10" edge="1">
          <mxGeometry width="100" height="100" relative="1" as="geometry">
            <mxPoint x="952" y="591" as="sourcePoint" />
            <mxPoint x="1280" y="640" as="targetPoint" />
          </mxGeometry>
        </mxCell>
        <mxCell id="5c82df7aa0dc6260-81" value="" style="html=1;fillColor=#CCCCCC;strokeColor=#000000;gradientColor=none;gradientDirection=north;strokeWidth=2;shape=mxgraph.networks.comm_link_edge;html=1;labelBackgroundColor=none;endArrow=none;fontFamily=Verdana;fontSize=22;fontColor=#000000;" parent="1" source="5c82df7aa0dc6260-77" target="5c82df7aa0dc6260-22" edge="1">
          <mxGeometry width="100" height="100" relative="1" as="geometry">
            <mxPoint x="1118" y="408" as="sourcePoint" />
            <mxPoint x="1563" y="557.8876404494381" as="targetPoint" />
          </mxGeometry>
        </mxCell>
        <mxCell id="fYdyzrDWWT3v1dr8C48i-1" value="" style="fontColor=#0066CC;verticalAlign=top;verticalLabelPosition=bottom;labelPosition=center;align=center;html=1;fillColor=#FFFFFF;strokeColor=#000000;gradientColor=none;gradientDirection=north;strokeWidth=2;shape=mxgraph.networks.radio_tower;rounded=1;shadow=0;comic=0;labelBackgroundColor=none;" parent="1" vertex="1">
          <mxGeometry x="390" y="420.0000000000002" width="55" height="100" as="geometry" />
        </mxCell>
        <mxCell id="kaIrXjWf18R0rDW-cLR8-1" value="$$\alpha$$" style="text;html=1;align=center;verticalAlign=middle;resizable=0;points=[];autosize=1;strokeColor=none;fillColor=none;fontSize=20;" parent="1" vertex="1">
          <mxGeometry x="135" y="135" width="110" height="30" as="geometry" />
        </mxCell>
      </root>
    </mxGraphModel>
  </diagram>
  <diagram id="xgdpUo-TVxsRsrNJm5lN" name="Page-2">
    <mxGraphModel dx="1422" dy="1872" grid="1" gridSize="10" guides="1" tooltips="1" connect="1" arrows="1" fold="1" page="1" pageScale="1" pageWidth="850" pageHeight="1100" math="0" shadow="0">
      <root>
        <mxCell id="0" />
        <mxCell id="1" parent="0" />
        <mxCell id="96GthZ4-tsyvAT--I7o--1" value="" style="fontColor=#0066CC;verticalAlign=top;verticalLabelPosition=bottom;labelPosition=center;align=center;html=1;outlineConnect=0;fillColor=#CCCCCC;strokeColor=#000000;gradientColor=none;gradientDirection=north;strokeWidth=1;shape=mxgraph.networks.wireless_hub;perimeterSpacing=0;" parent="1" vertex="1">
          <mxGeometry x="110" y="30" width="200" height="170" as="geometry" />
        </mxCell>
        <mxCell id="96GthZ4-tsyvAT--I7o--2" value="" style="fontColor=#0066CC;verticalAlign=top;verticalLabelPosition=bottom;labelPosition=center;align=center;html=1;outlineConnect=0;fillColor=#CCCCCC;strokeColor=#000000;gradientColor=none;gradientDirection=north;strokeWidth=1;shape=mxgraph.networks.mobile;" parent="1" vertex="1">
          <mxGeometry x="830" y="100" width="50" height="100" as="geometry" />
        </mxCell>
        <mxCell id="96GthZ4-tsyvAT--I7o--3" value="" style="fontColor=#0066CC;verticalAlign=top;verticalLabelPosition=bottom;labelPosition=center;align=center;html=1;outlineConnect=0;fillColor=#CCCCCC;strokeColor=#000000;gradientColor=none;gradientDirection=north;strokeWidth=1;shape=mxgraph.networks.mobile;" parent="1" vertex="1">
          <mxGeometry x="420" y="290" width="50" height="100" as="geometry" />
        </mxCell>
        <mxCell id="96GthZ4-tsyvAT--I7o--7" value="" style="endArrow=none;html=1;rounded=0;" parent="1" source="96GthZ4-tsyvAT--I7o--2" edge="1">
          <mxGeometry width="50" height="50" relative="1" as="geometry">
            <mxPoint x="400" y="400" as="sourcePoint" />
            <mxPoint x="320" y="60" as="targetPoint" />
          </mxGeometry>
        </mxCell>
        <mxCell id="96GthZ4-tsyvAT--I7o--8" value="" style="endArrow=none;html=1;rounded=0;exitX=0.5;exitY=0;exitDx=0;exitDy=0;exitPerimeter=0;" parent="1" source="96GthZ4-tsyvAT--I7o--3" edge="1">
          <mxGeometry width="50" height="50" relative="1" as="geometry">
            <mxPoint x="830" y="144.6041186736475" as="sourcePoint" />
            <mxPoint x="300" y="70" as="targetPoint" />
          </mxGeometry>
        </mxCell>
        <mxCell id="96GthZ4-tsyvAT--I7o--9" value="&lt;b style=&quot;font-size: 20px&quot;&gt;U&lt;sub&gt;n&lt;/sub&gt;&lt;/b&gt;" style="text;html=1;align=center;verticalAlign=middle;resizable=0;points=[];autosize=1;strokeColor=none;fillColor=none;" parent="1" vertex="1">
          <mxGeometry x="430" y="400" width="40" height="30" as="geometry" />
        </mxCell>
        <mxCell id="96GthZ4-tsyvAT--I7o--10" value="&lt;font style=&quot;font-size: 20px&quot;&gt;&lt;b&gt;U&lt;/b&gt;&lt;b&gt;&lt;sub&gt;f&lt;/sub&gt;&lt;/b&gt;&lt;/font&gt;" style="text;html=1;align=center;verticalAlign=middle;resizable=0;points=[];autosize=1;strokeColor=none;fillColor=none;" parent="1" vertex="1">
          <mxGeometry x="830" y="60" width="40" height="30" as="geometry" />
        </mxCell>
        <mxCell id="96GthZ4-tsyvAT--I7o--11" value="&lt;b&gt;Central Server&lt;/b&gt;" style="text;html=1;align=center;verticalAlign=middle;resizable=0;points=[];autosize=1;strokeColor=none;fillColor=none;fontSize=20;" parent="1" vertex="1">
          <mxGeometry x="135" y="205" width="150" height="30" as="geometry" />
        </mxCell>
        <mxCell id="aofbRuX0V456IzegRtdr-1" value="" style="shape=image;verticalLabelPosition=bottom;labelBackgroundColor=default;verticalAlign=top;aspect=fixed;imageAspect=0;image=data:image/png,iVBORw0KGgoAAAANSUhEUgAAAgAAAADYCAIAAAAS6MzGAAAAA3NCSVQICAjb4U/gAAAgAElEQVR4nOzdZ2AU1RYA4HNnZntJdlM3vZAKCSQkAQIECASQ3hFEULA3RFGxoNh9NqQp6hN5KKKgoFTpJfQaaihppPdsytYp9/1YDAgJJKRsIPf7tdmdnT1p98zcci7CGANBEATR/lD2DoAgCIKwD5IACIIg2imSAAiCINopkgAIgiDaKZIACIIg2imSAAiCINopkgAIgiDaKZIACIIg2imSAAiCINopkgAIgiDaKZIACIIg2imSAAiCINopkgAIgiDaKZIACIIg2imSAAiCINopkgAIgiDaKZIACIIg2imSAAiCINopkgAIgiDaKZIACIIg2imSAAiCINopkgAIgiDaKZIACIIg2imSAAiCINopkgAIgiDaKZIA2pajR4/WPk5JOW2xWGyPjUZjSkqKnYIiCOL+RBJAW6HXG0tLjBdT00uKa1grDwBFRYU8zwNAaWlNXm5ZRnpuaakBY2zvSAmCuE8w9g6AuGb+Fzt+23UwxJea9kjKhfMvhoXrGIahaRoAJo7/0SIv0Ki58RPOVOpfVqok9g6WIIj7AUkAbQVNQ4/EMqUKDRbJcnP0q1YdrqrM2r6tqG/fTr4BjLRDEU2jmGIFALJ3pARB3CdIF1CLO3bsWO3jvXv31j4uLi4+f/587ZcIADAFAqIRZTTy+y8mm11TM9kdebmlIhEDmMIChUjrTxBE8yF3AC3o3Lk8i9l65nSWRKwLC9eJRLReXwkAGEPKqaulpcWlpSUU0oaF62zH23r3RTRVXlaoVjAiEZLLRPrKCpY10KTpJwiiuZEE0IIen7FGFXrZUUk/NvtkadpbTs4KiqIBwGLmo7suHvWkCVHCNwvT9h1+4cZ3MTQqLcmjaQQACNHlZaUsZ5QC+idBEARBNA+SAFqQixvjFcLSNDc4yens2bwlX2+XyCp+WZU1dlS3vkMV3gF6AQtC9vVfAQIABCYrHxoWs/fCeQDgeTYoKLS04jJAJun9JwiieZExgJaFMcIYUYhirUK1/Kw6NId3STEaWJqibC/VHilgEDCHMS9gQRCEG54XBEHAwANw3A3PEwRBNBG5A2gNDM1nZ6cpZWKatkjE4qKibJmEvbH1BwCpTFSw379SQdcUAc0gAIwQBgoDxmJGnn0ykKKQjJWR2wCCIJoLSQCtA1stZkAIAAEgq9V6a4f+rJcGPv/CAACgKKqoUL9ptmWSk6K8gjO6WxcuethiYQEAAcjkIjuETxDE/Yh0AbUCzPFMUHCEhWUBgBc4H58gk0WMEL4xDYjFtFwukstFUint7KLctvhRmd4l0iVk4MBImgbbS6T1JwiiGZEE0IJ4DvMCzwsCx/OCwNd23mAscJzACwIvCDxfx9wehUKS2D/C248N66gIDvFozZgJgmg/SBdQC3JzcSw9G0FRSIUlNE1hwAgJCAFFgUbsXnJGy/OCu86hzvdyHC8IWBDI1E+CIFoKSQAt6LsfHrKVbqNp6uzZ7F2nYKTCISvHIomj1v35FMsKAIDIoC5BEHZCuoBaEMNQIhElElEUBf7+Ln998iRVzDzUr3dCQjgA2F5iGPIrIAjCPkjr00rUallsnJ+DtjokTOPmrrZ3OARBECQBtCKeFwQMpFufIIg2okljAGarmeXYe6JEJcZYKpGKGDKNkiAI4pomJYANe9ZvOPAXRVFtfJsqhBDLsS89OLtrxxh7x0IQBNFWNCkB8BzfPbTHyMRRQpuvUbNk9WLS90IQBHGjJiUADNhB5ejp5tVc0bQcqVhm7xAIgiDalqYOArfxzp8b3CtxEgRBtBIyC4ggCKKdIgmAIAiinSIJgCAIop0iCYAgCKKdIgmgjaJpGgAhUiuOIIgWQ6qBti0Y49TUVKuVtVqtNEMXF5ecOXOW4zgfH29nZ2d7R0cQxH2FJIC2xWQyvffeR9FdowRBiIrqUlBQsH3HjspKfWRExLhx4+wdHUEQ9xWSANoWqVT6yisv8TwPABhjD5372TO561Yfu3Am29HhXFy3Dmq11N4xEgRxn2iLCQBjDHUVmLvX+8MZhsHY1rlfL4qiunaNvvGZmJiYyQ8NP3vm6oYNp5IGrpv7ZvjIUVFR0f4UdY//OAiCsLe2lQDKy2qenv57cLgW31K3B1EoM73y7fcHBIfo7BLbXbNYLAcOHASA6upqVxfns2fP0TRttVqjorq4uLg05AwSCR0TGxATGzDzxQdOnkj/8vO9v/y29ovPwgcP6RISrKMZkgkIgrgbbSsBmEzWCVNCxo7vUeerp05cLS+rBrjHEkB5ecX8rxbGxsQIWAgLCy0sLDhx4nh2TrZIxPTr169Rp9Jq5QOSIgYkRXwxv/L48fRHH1ojElOPPNZpyJAoD0/HFoqfIIj7VdtKAAghjqu3sCjH8vdiL5CLi/On//lIEDBFofy8im1/Fy5fkfXY9MAOHTre9TnddQ7DhkcPGx6dmVGybeuZXl1+6NxdOf3x2B7xwc7OymYMniCI+1ibWwdwLzbxt8cwTFhYWMeO4WFhYf0HxC9b/uLF1Lf8/AJDfX6a++ba1Av5TalT5x/g8uTT/S/mvvjBx0NPn84NcVk6bcryPbtTqyrNzfcdEARxf2qDCaDeDIAoVOfg8L0FIQgJdXtz7vCi6ue6d/cbN3zVyGHf/L0lxWi03vU5xRK6Yyevt+aOKGJfevq5nhvWpzg4fvrevHWnT1+9zR3VHWHAHM9ZWYvJbDSaDWar2WK1cDx31yckCKJNaVtdQBSF5r1yZMfWbEEQKApRFLJVm+Z5AVEo7aL+0wUD7R1js1EqJUOHRw8ZFn32bM6qn488MGTjl1/EDBnaJSTE/a7PyTBU9+5B3bsHvfOued/eC598uPPXNUVLFsf2SwwPDtbRdN3pkxf4akN1SXlxSXlJdU11TnH2pZxLhRUFAhYwxv/U/MaAKMAYAaIoSqPUhvmE+7r7qpVqJ42Tu4tOrVAzdNv6cyII4vba1n+sg4P86VmdJFIRQqi6xqKvMMrkIkHAbq4qQcBhYVpf3/ttNSxCEBnpHfmp96uvG/ftvTC0z0qfYMlb7/TtER8ik939DsZqtdQ2SDC/sPLggYuPTF5jMQuvvhXbp08nTy9HABCwkFeYm5mbdfT84bzSvMzidIZignTB3q4+Pm4+4f4dtY4apUJNIURRNEVRFEK8IGCMBUEwmY2lFSXl+or8krzjF49dzr1YaaoMcOvg4eTZrVP3AO8Ab503hdrczSVBEDdBTdnRZdXmX3ienzL84dsfxnHC1aslgiDctgMHU4jy83OhmWsNx7o1x1JTCxBCrq4OM55MqD2uqLCyssqIEALAErHIp2EpYd43bw/tNTw2IrYhB9tXyqmrK5Yfmr/wyoL5sSNGxvj5N0/Oy8wo3b3rwozH98x+y61TV8mWYxsxxsEeIdEhXQO8A12dXHUuHnd98pKyooLSwqt5WcdSj17Ov8zy7LBuI6LCooN8gxQyRbPETxBEs2uNBHD2dPbmjWfj4wP4+rcOpih09kxudIxfj57Btmf01eWOKi0AnL50slxfIWAc4hfq5e71xCOrpj7SheMFmqa+WXRk2copUumd72PuoQRgU15u2Lrl9NNTDvYaqJz1au/4+BCZ7O5v13iBv5x18WDK/v1nDsql4p6d+nQO6eLvHSCXypsxZhuT2ZiVl3Uq9eTWY39bOHNCRL8+MX1DA0Jp6nYr4AiCaH2t0QXE8UJC36Dalr0+Ts7KigojAFRW61f//StgcFA5jk4aeyBl/0NDHs4rys/ITfdy93J2kffqG2Z7y8GDWbcuGbs/aLWKSQ/FPzg5/vy5nMULdw8YsPbrxd1GjIr19NQ06jxVNVX7T+5fvetXlrMkRQ9694n3fDx8WnQsXSaVhwWGhwWGTxr2UE5+9o5D299b9rZa7jghcWKPLvFKOZmlShBtRWskAATA83dupgUBWI7bd3zXley0B4dMVinUBSX53/++tNJQ5aDSmC2W8soyALjxjkW4T1v/WghBpwjvpd9Pnfde1e5d57y8vh0/xuWZ53r06BEikd7hgrq4vHjjnvUbj24I1gU/P/6Fjh06SiWy1gnbBgHy8fCdPvaxScMeOnvpzK/bfvl2w9cje4wZ3m+Eo4osWyMI+2tDg8BGtmLtwZXPT5mREJNoe0bn4vHMg89fzroEAALGqB2PK7rr1JMeih8/scfplMyfVhzul7hm6Te9Ro6KcXd3uPXgMn3Zuh1rf01eOTxm5OfPfhngHdj6Ad9IJpHFRXaLi+yWnp22ZuuvE94e+3C/aaMGjFbJVfYNjCDauTbRpFqs5t+3ri7Qp81//cNgv5CbXrU9w9D01fxMAKCoNhGzXTAM6hoT8NXCyfl5L1II6XRLH5q07MjhNKuVtx1gtprXbv/9kQ+nVFSX/fDa8pkPz7J763+jQJ8Ocx5/a+lL32XlZ0x+Z8LmfZtYjrV3UATRfrXSHQDD1Ntqn7mYsufk7rH9x3u6ed3mDC5a1+jw2EWrvqixNq4T/L6k83B4/MnEaY/2OXEi46sv925c8+fiZT38O8L/tn7vKHf8/Jn5If6h9o6xXgHegXOfmnfuytnFqxdsPLjh6bHPRgRF2DsogmiPWiMB0DS1edPZvLxygf/XLCCEqDLuYmiwzwuTZzXkPKEBoaEBoetc1pw4f6xrx1i4D5YFN41YTPfoEdSjR9C5CxlzFn2guFLx9Mjn+nbrb++4GqRTUMQ3b3y3ee+ml5fMnNh78kPDpkglZKsDgmhVrZEAMGBBYGhGhijhphdYC9sntl+Nseb8lXMYC1oHbbB/KM/zZy6ftlgsErEkKjwaAJ+5dMZoMtI0HRsRN7DnA0+9+oWyJstRK/Hybf5ZjPecY+eOLv79q/7x0VOHP+rk6GTvcBoBIWpo3+HRHbsuXfP1k588/tqUOeGBd18gjyCIxmqNBBAa5jlsuEWoYxEAKsmhAKCwpKCwpKBLeLRELAEAk8V0KvXkgO4DbWWBOI47cCp5aMIIAQsAwPGcr6c6yMVNLKELC2taIf42i+O5nzf8vHrfL288NLdX1972Ducu6Vw83n3mg7+Tt8xc9Nyzw14YNWC0vSMiiPaiNRKAWMx0j697EUDB9tMAgAG83L18PXxrn3fWOPt4+NgeYwBHlWPtlwCgr7ZmGw085hFgsaSh38Jtyszdi8r0ZZ/+7xOWtf53zo8erp72DqepBvd+IMg36OPlH1zKvvTsg88qyQQhgmh5dp4GapvIL5fKscDXPknTtJvWrfZLCiHPGxo4gRdGDumc1HNwoz5IKhF/9PmW6szjgO7xpQMIlHKxa4DVqEmOD4+fMfZxsUhi75iaR6BPh/mzFy1eueCVBbPffmyezuUe2/mHIO459l8HgDH2dPvXBaxMIuvW+fqmYDTNJMT+a+csnm90iWMryz0+LSEyqKtwQ6a59yAkYpiDpw79tn/p1MRHh/Ydbu+AmplKrnr98beWr/vxhS+f+/jp/3Tw6WDviAjifmb/BAAITGZTZm4GxlitVHvrfDJz0k0WEwACwAqZ0tfTLz07zWwx0zQVGhB+dx8iCIKrq9rTq45lU/eWA6eSf0lePGv8Kz2j79VO/zt6ZPSjLhrnV75+6b3pH0YEkxmiBNFS7L+oCgHKK8q9lHlRLpXbCspv2LdeIVNKxFKxSLJh718cx247+LdCpmhiX8d9UDdi1+Gd762YN3fae/dx628ztO/wmaNffPmbF0+lnrJ3LARx32oDdwAAGMBH5+vvHWD7ylHl6OvpZ3tJdUqFAWvUGj8vf/sF2CbsOrxz0boFC59fHBIQZu9YWkPfbolSiXTuD298MOOjLmFR9g6HIO5D9r8DAACJWCy7YRHQjeXeMMYIoXtrentLOHBq/2erP3l3+vvtpPW36d4l/tWJr837ce7lrMv2joUg7kP2vgNAgDH20fn+66kbYMAMLUqKb9ycn/vM2StnP/r5/Q+mfxwZ0tnesbS2hNi+BpPhjaWvzX9xobe7t73DIYj7ip3vAFDd1RxwnQ+vv+f+mtF/ezmFOe/88NZL42Z37RRj71js44GEoWN7j/to2QeVNZX2joUg7it2uAOorNav37VOxIgQQmm56Ut+WaCUK6Vima2xF7BAU9ejEgRh1cafalt8hFBxebGFtVRWV1hYy6BeQ1yd3Or+mPuCwWT4aNkH43qN798jyd6x2NOkoQ8VlhUuXLngzSfeIrsNE0RzsUMCcFA5Tho2xXbtL2BBEDBFoRv/q298/OiYGTdtWskLPIUohBAGfGOquC8tXf21l7PXg0Mm2TsQ+3ti3JNzFr66estvtT8Njueqaqr0VRVl+rKisuKSiuJKQyXPcxiDTCoTM2KtWuuqddU6aLWOWpVCTTYjI4ib2KcBZWiR7cEdd4mlbtlIlqbv80a/1t/JW85knF44e/GtP4R2SCFXvjrttVkLZvq4+zAMcyHjwsnLJzKK09Uytb+LX4BHBwelg7uTm23nYavVYuU4k8V06PT+9MKMkqpiANQ9pEeQd1DHDhH+3v4iRmTvb4gg7K+9NKb3nOz8q/PXfvHls185kN0T/+Gt831+zMz3f36nk1dk5w5dpgyaEhIQKpcpbt+a8wLPcmxxaWFq+sWLV1PX7f8DYxgYM7hHl/gA7wDSoUS0ZyQBtEUsxy5Y9dWjSdM7duhk71jaloTYPsH+IW7O7g1vuGmKpsW0j4efj4ffoN6DDSZDTkH2nqO75377uqezz8iEUbERsVIx2YqAaI9IAmiLtiRvNluN4wZNsHcgbQ5ClM7FoylnUMgUoQFhoQFh00Y9cjjl0Mq/V/yw4bvHRzzZo0sP0tVGtDckAbQ5+SX5329a+tkzXzLtZrTDLmRSeb/u/XvFJBxOObR80w+/717zxOinwtrTOjuCaBMdoCfOH//fnz9arGZ7B9ImrFj/v2Gxw0Mb3BLxvJCVWZyeVpB2paCi/PoOOTu3X7hj+aOKCsOli7lXLuebzU3dnF2vN9bxLIbcnLL0tIL0tMKaGsvNL2KoqjTVd8LcnLKLF3MyM4tv/13U/bkNJmJEvWMSFr+2NCkm6bVvZi9b+4OZ/B0S7YadE4DRZPhp/XKT2Ti495Bl6/6bmn7BvvHY3bkrZw9eTH5wyOSGv6Wqyvzma5svXSo6eza3rNwAAFVVpuoqc/LeDIzBYub0emNeboXVyrMsr68wcuy1YtpXs0peen5telrJieNXt285CwCGGkvlP+2pxcJVVZoMBivL8nq9keME25OVeqPBYAUAs5kDAIzBauEq9aYlC/ayLA8A1VXm2madZYUnp/5x5kxuSkr2Y1NXFhRUYgyVlcaaajMAFBZWrvjxIM9jjKGy0lRddb3l3bTh1A/f78/Oqti4/nTalSIAqKw0GgwWAOA4wWS06vVGwGAwWD55f6vVygOAwXAteJ4XLBbOYuEa/jOUiCVD+gxb+sp3WQWZs76YmZWX1fD3EsS9y56dDBczUved3DOi7yh3Zx0APDH+6Z2Htl9IPz8icaSIEdsxMDtatv6Hp4Y906iZPwggNEwbGxtotXKubuoNf508ejhHqRJnZ5eXl9V89N7fnTq77dya9un8Mf/9bp+vnyY3u/L1uUMYhvrlp8NvvzfYP8DFdp7Tp7KWLzvm5q6QyZipj/Qa0PO/U2aEppzM13moNFq5yWR9+rl+k8esHDU+6MjBvM8XjPz2m0Nvv/tAVaXph2/3+/hr9idnDTiRxbH8oYMZABAb59unXxgg7K5TjB4TCwCBga6HD15yddWcTsnJyqx4/Kmeu3Ze3LMrI6FfMM8JB/Zfyc2pmjg5Oiraz2rlN66/sOTbhygKBg4GAFi+LNlk4goLqh+Z0ePwoStHDua6uilcXOTBoR4HD+Ru33rOy0uzccNZR43M00Pt4eX4ybt73/1kYERk40pHeLh6vvPUvL92/vnc/KdemTinT2zfRr2dIO459rkD4Hhu3Y4/MnLSHxv7pK31BwCaogf2HBzbKW7p6q/zi/LsEph9nb6YUlJZ1K97/8a9DaHUC6WbNpza8OfJ3Jyygwey3vto5GtvPODto9XrDSGh2gkTYwM6OJxJyVYpqZBQl6tXSwsLKwCgpNjg6KioPc3qX4/PfXfonDeHWCyW7KtlE6b6zpo9cOr06NHjIl574wGTka2psUx4uMPzLw748D9Dt209IwiCbYG20WQZMqxzUlJgt+6BX391MCLSPSTE+dixLFtwtcv4nJwVBqPZxVWpVIoUCrogv2zU6OhhI0IiO3srVWKNRqbRSFLP5QEAzwuOGin1z99mTbVl+5bL4eGunTo5HzpwxVBjmvNm0htzh165XNqzZ1BCX++hwzvv3XMxvKNLeLjrr7+c4jj+tbf7NLb1t6FpZszAcR/O+HjB71+u3b72Ls5AEPcQO9wBFJUWrt35++CeQ/y9Am591cfD94lxT63f/aeLxrVvXGLrh2cvAhaWrf9hysCpMomsUW/EghAT6/HIjASMASGwWniLhUMAVZVmbx/n/fvzOP7I+IlxHMcVFCo9PJ1fenWgq6sDAMR19zl5IqN/UierlTcZrQqF2GyyAsgNRpamKblCBABYwCIRDQA0TSEAs4kFgOpqs1hEC4JgtfJWKyeTMzzPG00sAEikjLvOSaEUR8cG2qLjOIHjBIRQ8t7LaqVq2fcH3nl/1NEjaSzL8rxgMrFYgG8WHXj3o+EXL+RdOJcHAFKJSF9uys0p9/LWVleZjUarUiXx8HR299C6uTn+tGIvzVAYgyAALwhGAwsAiKLc3DXu7g6ffDE6M6NIo2nStM7OYVFfPP/VO9+/ZTDVTBnxcD0VqwjinmeHBJCacXFYwghvnU99B0jE0vGDHlyxfrkgCBTVJoapW0Fq+oW8itzeMQmNfaNIxFRWGed/8bfVwg0ZFjlpSvR7c9crVeKgEMdzZ7LjurmFhjqt/eP42HFdrVZu7eoTMpkoMMAVAEaNif16yc4dWy9TNAx6IHzKtPilS/aIGDo62tfbR6vTaQDAwVEul0sAIDjUhaapzRvSOevW4qKqN98Z5uuX88G8DSwrPDQ1VqmUYuAPH7zy8ut9N60/gyiqZ+9AT08NQqhjlOPC+VutVt7bWzNkWOfCwoqvF+4UgNfplD17h5WWV586mdU1zmPp4t0Ujd3clQCAKHjj7Qe+/WYP5imKxk883WfCpM5r15wQiahRY6N9fJwYhgKA0HAXiYTxD3RYv+7EsOGdV608IpWIwsPd3T0d5PKmdiH6ewV89sKXby6ZA4AfHjGtiWcjiLYJ3VRpp1FWbf6F5/kpwx9u1LuSj+8L9gs6tK9AIqGdnJQxcQGLv9rVKdLdx9dZqZJu2Xja19cpOsZ/+9H1Y5MmNFcCmPfN20N7DY+NiG2Ws7WEed+8HRkQOWbQuKafiuMEmqIQBTu3nz13pjAqxvvvTanPzezr4amxmDmJ9F9Z32rlRQxdu6yKZXnbJf+tCvL1ycmpEyb0qL0gtl3a0/S/K3hj4FheJK53Tr3FwkkkN1951P3kDdGyLM8w9O3rwFotvFjSnHP5C0sL5ix+dXj8yLEDm+H3QhBtjX0GgTFATbVl2IhuDENxLO+okScO6AgAmRnFsd39O3XyBgD+3t/BseHyi/NSMk/OnPxis5zNdoEMAP2TIrr1CK6pNsfHBzEiGgBuav0BQPzvlrq+1h8AdB6OY8d1v7E7pPaDboQQ3Kb1B4BbG/p6n7wh2tsEVqt5W38AcHfWzXvsvRcXPu/q5Na7632+DSfRDtmngwVj3CXah6YpAKAoFNnZ0/a8g6PCxUVtl5Ds6/DpI73CemsctM1+ZqVS4q5zYBrQejbETRf77YGfl/+8R9/74rf/kLmhxP3HTj3sGDs5KU8ez7xwPo+iqS7R18YDFHJxXk758WOZNdUWimovbQ3LsSt3/pTUY5C9AyHq1iUsesqAqf/538cGk8HesRBEc7JPAqAoase28/4BLrWT0G3y8/UWK9upk6dcLm7K4MS9JT07TSqShAaSIgRt15ikcS5q59+2/GrvQAiiOdltDEAkYpQqqVj8rwAQApVKJpWJ4d9bw9/fdh/dPSAqSSKS2DsQol4Uop4c//QL85+L7xLf8CodraywsJDjOIqiBEFo3jPbzikWS1xdXe58NHHvsE8CEARh5Oiom1p/APDydqrdBLiddABZWeuxy0dfnNA8w79Ey/F085o28JHv13332UtftMFdBNLS0lf89HNkZMTRo8ejo7ughkWIMUYIGJqp73ILAWDA586eD+8YfuL48Vdfne3k5NSMYRP2ZZ8EQFHU0SMZWemlbu7qQUMjfvw+WcQwnaO8fPy0q346qlJJBw+NoNrHeGNOQXZpdXGn4Ah7B0LcWVLPQVsObdp/PDkhto+9Y7mZwVAz5IHB3bt34zj+wYnjTSZTQzpRGYbBAOfPnas7pSEQBMHLy0ur0SQm9lMp5VZrU4sGEm2KfRIAAsjNKZ8wOVYmF3McT9HUw9N7AEBmZkmP3v5dovwAQODbRR9Qek56j5D49lOJ/s+1x1LP5996g4cQSKSM1cLXWftTJKIQQraib7d6ZEaCzqM19k2TSWQPJk3+dceq2Mi4xi7YbmkIIY7jAYAXeIxxWno6vlNHEMbYwcHBbLawLOvvH4BxHcebTKajR4/L5TIA4Hn+9uswiHuOvcYAsLOzsnZmt6vbtamfYhFjW3cKAO2i+QfYdnTrsPhh9o6i9Rw4mB7VxTsg0PnGhh4BGE3suKRNv24erHaQ3nTlStPUju3nTTXciDGdbUVJb/TaC3+PmRCjg1baODM+uufPW386ef5Ez+herfOJjYUAMMYGg1EQhNsXsRCwIJXJACEPD4/6Ovd5nr946XLLRErYn53GAHicNDjCYDBTVk6hkPQfEFZVZRKLGU8vjV3isReWZ9ML0wJ9g+wdSOvBGOLigjoEu970vNnMOsi3x/cMVanrKONTUKCv1lviugXf+lJw6OEWCbQeIqu6YcYAACAASURBVEY8ZdDUv/b92WYTgI3BYBAE4fZDaRgLcrlMpVLv2r3HQ6e79d4LITCbLSIR2ZjovmWfXy1NU6tXHfHwctBqFGEdPRd9tatPYqCLi9rPv33NMSgqKRLTIo26fW37XmdXgyBggcP1TV/BGNfXo936s8WiwqP+u/HbtKtpHXw7tPZnNwxFUf0T+zX8eE8P3W1+jHK5bPv2Hc0QFtH22CEBIERhAI4TbPUJOJZ3cVXGxgXechjc95XgMnMzAt07KOUqewcCVZUmfeWdt9ZCCDw8NLYl3HeHolBVlbmm2sILAgKEAQMAQshQY5FqoFJvoihKwBgAal9laNposJpMrNFgZTm+9iUEAICsLN/K/dJqpUPPjr2PnjvSNhOAyWReuHAxTTdoVMn2Y6Ruu8JbEASTyZyUNKC5IiTajtZLALmFOVbWSlN0bnFOoE9A9x6BiEIAQNFUQp86+kCMJmPa1SsURQNgdxedXCpvYgBtcGlxbnFuBy/79/9gDNMmr+yT6EPR1G3GXhAF6VfK4uI8J0+9+94PuZyJiVsFQAOAG40reVS7DZi3Fvv5L7M1+mrAYoDSf3owtAAMA089d8L2pZtYKLLSANg2fPDOh639m+0V1fur3+aPSRorFTep7nRLkEql06ZOafjxGGOz2VzfDRYCkEilO3buaqboiLallRIAx3Ort67qH5fE83yIb7BGrdG5XJtEQVGooqImd0+Zl4+TzsPx6OF0hFDnLj59uvapqKqgEJVfkm8w1kSEdG5KAAxNX7lSSFuzm32NzF1jGCYt62pcRBd7BwKCICAaXnx54B2PvHwp//dVx5ryWUYje+rEQ6HhOpqm3nz19zETorpE+fP8v34pDEPv2JaSeqHwhVkPsOy/dnakENJXGEckLUvZOcPBUYYFePLRn1t/0bifl5/eWFFUWuTr4dvKH31HtlvnjZu28Dx3h0FgQfDw9HB3cztw8KCbmxu+df4VAovFIpVIpRKySvH+1Hp3AG5O7p3Dom59nuP4/XszJ06OliskRUWVZpM1ItJHIhUFOFy7v3Yrdq+oLG/ip9M0ve/A5aO7DRjaSgLAGOeIzo1IHGzvQAAAKIQAYNEvC7GAUV1z/SysZWS/4VhQN6X/BwAEAeRysVQqAgCGoWof30QqFYnFjFhMi28pLMqyPM+BQimRycQAIGKo1p8wppSr+nTse+L88TaYAGy0Wk1DBoHVKrXZYundq6ePT937c7Act3PHLrG4jt8RcR9ovQRQ72UaBmdXpZvOEQDKygye3hqd578GRXlBOHvlDMfzgnDzNHAvd28X7c3zSepksVpnPPJA145d7yb0lmGyGIe+8o2bs7u9AwGAaw3F6fRTCFN1JoBqU3X/uH4KyqHpH1U7tEMhVN8wD0VRqJ4uO4pCFHX9JPaamR7qH3bi4gn7fHYD2IbN0W1nU2OMBYFHFCorK3NwdKxz3YDJZOI4jiSAZmdlreX6sqsF2QZjDcuyFIVkUrmnm5ebs1vTu7sbzv4TvBgRPWrstW4QL2/trV00Ohf33l372v7PBQFTCAECBKikvOTomSND+w5v4Ae1nc4fG4PJKGDBUd1WZr5iDFbOAgKqMwGYuQatLL0jsZg6duxKaVkFRVMZGeXHj6fXGEwCLwBCNE3xvAAY0zSVcjo7I6386NHLHMsDAEVTACDwAkKousqcfcly8ECqUiXBGHJyq+sMuKX5e/n9unOVlbWKRU3dfay5IYqiQkPqmDJ7MwwisUgslpxMSTl/IbWOZIEAC0JUVNTFi6ktEGd7hAFn5WbtPrLr6KUj5dWlfq7+7k4eEpFYEHBJRVF6YbqIEUX6dxkYPzDEP1TEtHjebb0EQFHIaGCXfr1HqRSPHd81P7d83740tVo2YVJs7QZ+DEPVFijleaGwsJLnBTdXB63Ktby8hqIoLw+HinKj0WiRySU+nrLcopxWi7/ZWawWuUjeRmY6YQEjBG89+jYvCLaqADz/r/stAQs+Ou+8q02th0xRKCuj3GLmBQEPGR7O88KFs4UIwGzhnnn+4KL53RVKMcbgpFG7dHM4d7rA9pZDBzMtJr7fgCCeFxCC+SsScrP1GANCSF9mn+IErk5uVs5cUl7s6eZllwDqY7Vad+7a3dBZQPjaPCuOr3uVNQJIS0/LzMxqxggbTl+tN5gMeUW5+io9YJBKZd46bwelg6PasQ2WY7qjtOy0X//+5ULO+cTO/WdOfNHD1UOlVNd+Ixhjk8VUWFJw6sLJBb/Nl0sUDw+ZFtMxpkVDar0EgBAyGa1x3Xx7JQQDwKnjWZOmxGm1yvqOLymu/uO3E3FxvhqNYtfOc1KRWKtV6Dwcvl20r19SB41G6erZ1q687uDGK2iEkNFklEuUdFsqAmHUW7y8vPR6PRZwSHDorQfk4uomfoTZzE9/tFtAh5s77qwW7rM3Tz8yI0GpqmO8UeMkrdZbpjxSx55cB/Zk2qVyuFKu0iqdq2qqPd1a/8Nvh6KQs5MTzTQwAQDGmKHp2xWDwzhb2qpXWiaz6djZY7uP77qcfwkBuKhdXBycEULVxpq88jwrb/Vx9kuMSezeubuD6t5YQyNgYe22P/63fdnD/ac9P3mmg7KOrlSEkFwqD/AODPAOHNZv+IGT+z//5T8Jnfo+MupRuaylOoVadQxALGEcHa99J84uqtvncEEQIqO8uvcKAgCOE3omBivVUgBQqWXd4jsAQJm+tOWjvksYcElZSXlleX5xXnZBdmllicFsMFvNwj9roBBCJovZQaZuIxcytv9/d3c3mUxKUZo6C/I0l1vLOQAAxwusEfP1XIfyvFBfbagWDfU2KIpSypRLfl/k4uAiFUs1Kieds7ufp7/GQePm5NYKN+/1YRhR586RV66k1bng7kYYY4VC4eDgePjIURFTR0FQBMALQoC/n4eulUaqLKxl56Edv+78xd1R169rv8fGPK5RO8plihsP0FfpL2Vc3HNi9w+bvx/da+zQhGFqZZveRtBoNi5auSCvNHfhzCX+3gENeYtELE3sPiAiOPLbNd+8seT11x99w82pRS40Wi8BCBir1BIvH01pSbWDo7xL1ztMn9A6KSMirv0X9U4IVf5TIWDsg/afN1kfjueu5mUdOXPkdFpKdkmWVuXsonbp6N8xxK+3WCQSMcxNRXoZhrZL/3V93N3dAUChUNzxyLtGIbCYWauVv3FIBiFkMlllWmQysVIZd9MVPUPTrJVnWZ7nBNtCsOtvBMTzgr1+go8Mf9RkMXEcx3FcSUXx+fRzO49tL6ku0Sg0kYFRMeExYR3CWr9mHAaMMa6uqWlIMTiaYarz8jx07oGBgbcOkiEEJpPp0KEjMllrLHe4mp81f+WXvMC/+tCcsA7hdd4cS0QSNyc3Nye3hNg+6dlpKzf/NOvLbbMefLnN1tO1sJZPl33CC9xHz3/S2CWfLlrX1x9/a8Wfy99e+tYnz3+qaYHxwtZLADRFVZSbli7ZGxXl2S0+UFN/54+NVCqqnSBYU206uP+KSMQMHd45K7Pk0ME0Ly9tcHgzzEhpLhVV5UdSjmw6tLG4smhAVNLIhFFBfkFaR6c21cPTFsgVosFRv0jlNGBQeyGrEUylGGNgFFBdY+3d6XuuBhAFCjdEM1CVjzELlBRY4CkKPn7lBG8FsQNSOkFNKVirsMQBXSoxvPW+fVJAkN+/BlqH9h0OgPVV+qy8rEuZF5euXWxkzUO6De0V3dtHV/cky5aAAARBKCstvWPPGMYCTdMymUyhUEildc/0p2maatrE3wZKST0178e5k/o+NDppbAPH1QN9Osx9at72/Vvf+uGNmWNm9euW2NJB3oXl6340W01vPznvxvuYhqMp+pHR041m4/yfvhzaa1hxeZHBZBAxIidHJx+dj5+XfxO7EFp1FpDAC70SAnv3CWnsG0+duhoX20GjlQPAoeSrTz7fGyFksla1QIyNVl5ZviV584bDf4V5hj08+OGwoI6qNlDaoc0ymbg1yWODQ9xomn7/7T+Hj+4cEel77SretvkIAMNQu3edu3yx6KlnB7AsD//M9cQYKApV6o0Pjv5588GH1Q4yjGHmU7+1pd1DkaNa00Wt6RIWNbL/6Ky8jJ2Hd76yaFaPsF4jE0f5e/q3TgwAiON4XrhDkQwBY6vV6uzinJy8P/XixTp/jFYr6+yktVisLRSrzcnzJ95ZPve1B1/v1bWOYZ7bQIAG9hrs4eb5wfL3OJ5Lir/zYsbWdCjl0N4zuxa+tOTuWn8bhNCMsY+//928P/es9XHzUclVBlPNlZzL329Y6q7xGJs4vnvn7nedBlqxC0jAjhpFp0jvu3ivRCzSaORKlRQAHB1ltllDRoud/+15gd9xaMeyTd939u/ywWMfdvBrwMS7do/nsYuL0tlFBQAymcjJRensUse9oFYrV6okWqc6/m2kEgazyM3dwTZcLJPVu5uVfUkl0tCA8NCA8HGl47ckb35pwQsj48eMTRqnUrTs9QHGAsuySUn9G3YwxhhPGD/uNkkUIfT339uaL8Cb5RRmv/nDnLemvHPXBVY7BUW8M/3dN76dIxFLKYRyi3Ixxhq1xt8zwNvDuzWn1d/IYDIsWDP/+bEvOGubWuNSKpG+/eQ8yb/rjlQbqk5eOPnN2sXJJ/c9++BzSvkd+lTq1NrrAI4dyWBZPr5nB41WAQCV1ZVnL5+xTYXEGLs7uwf61FFga/CQzgDAcQLDUFNndG/lmOuUnX/1m9+/rjFVz5nyRlR4tL3DuZdcX8NFIaqeIRCEUH0LwRBFIQrVVnZqnUH00sqaEn2NUibxcHakG1lUys3Z/ZHR0/t1679q88/Pfvr0C+NnxnSKbaE4AcBstixa1IhicACIvu1cZAELHMcPGzakmQL8F47nPl3xn0cHPtbE8tphgeEzx836et3CLv7Rbk5uFKIuZV38K3ldhbFiRI9Rg3sN1jq09k6WOw/vCHD179ElvlnOJrml6pRKoe4T27dLWNR3a5a+/c1bbz8xz7Hxc6JadR2AXm8wGq19+oUolde+mYLSAoyFQJ9gjAWz2Xzo7KE6E8DePRcup5Y4OMgmPdydZuw/bSb5+L6vfv9yXO/xoweMkbaxnaHaOArB/uTU3LwSmkIZ6eWHDl0pK6u+afiRpqkTx7MyMyuS913gbhr1RaimylJeYtm965xCKQYMF8/pWzRgk5X93+aD289lmawsRaEwndNzI3v7uje6NfH18J3z2Jv7j+/7z8qPRvYYM3HIgy00U0gmk73yysuNekt1dc1t7gBUatWO7TubHFfdth/cLgj82IHjmn6qPrF9u3bsqlJcnxFksVpyC3N+37762c+efvnBV2M6teyc+htZWevmQ5seH/F4Sy/0cVA6vDRt9oKf5i/6ZcHcJ99p7Ntb9Q4AIeTiotJort/XI0DuzjrbDCcraxWl1h1PRYXh4Wk9lHVtFdLKeIH/ddMv6w/9+cbDb3Vt8BoNk5WVte3F9BRCHM8XlOSzVouLk2va1cudw6LPXEzx9wqoqKzgBM7LzftixjkZ7dnED+rRI/DC+bzcPD0ARMd5lpca9hel3XqYiKH8/bX79l6pK1R4bk7EmdM5AgYEMGSMv1rVUjkYAyz4fdeRK3kqCaMUSQAgt6zy5R82Ln56tLv2bqYe9opJ8PPy//Lnz9Pyrsx6+OU654M3kW0W0I6du3mOu/2RAsYeOp1cIT+dkuLr61PnhjAmk7mqqlqpvJvuhTsymA3fb1w6b/q7zTJXAiF0Y+sPABKxJNCnw2sz3kg+vvfDn96dPXFOz+ieTf+ghsgryiurKYkIjmyFz6Ip+skJT8/87LkDJw809htsvQTA84LWSd6tx811/2tnKwuCUF/lkqAgHSOy/3QajueWrFp8KSd1/osLPVwb1BSeuHj1172niqoMOgfFxD7R0SGtNxukcRBgQag2VJlMRgeVY25xXufQqPySfA9Xz8qaSitr0TnrcopyQnVNXfU6emzs6LEt2AHSXDgB0xRKzSo4cDlXK7s+KUVMU5yV23jwzGPDevECbmx3EAB4uXt/PPPTxSsXvLXkjbcff6eBxawazjYLSC6TNmQdgEQiEgShe/du3t51D87xPL9jx64W2qH15PmTOkddRHCTCv02RO+YPgq58oP/veuq/TyoVcbqzl05m9Cxr1jcSlVUFTLFtCGP/m/zstiI2EbVJmmlBEBR10qMMf/uwEEU+lcR2np6hDt3qaPdpBDVmquoOJ5buHJBQWneJ89/1sCFJ/tOX3lvzW43uYSiUG5p5as/bf1wUv9uHRu0EsQuECDbSgWKomwlZQDZ1D55/yuqNG0+m1NksNAUVVFU4CC++X9EKqJPZhT8fTaP5QUJQ4W4O/g6N+4CWSKSzJo2+7vVS99YMueTFz5zatbuaXztVtu5AXOjsFyuMBgMaWnpHMfXlTCQyWRiWVYkapH71w37/hydMLp1lsJEh3d9ZND0r9cs+XTW562wTO9iVmpUSKsODXbtFLP0r69zCrLr7EWvT8smAJPFtHHPXwAIYyGnKOeP7WtuWv5Tqi8d3PMB25cUReUUZf+xbbXQoFl9uNpYo6/WV5uqtQ5O/bu37HZFGPCytT9kF2W9+9T7d2z9rZxg4XhBwN9vO6pTSm3jnBSNdErJgg0H/xvkQyHE0BTT9jaoaRZmk6m4pAQAMMY6nc5oMDhqGr2AZfeuXf0SE08cPx4cEqJSXZ82U1FRoVQoRGJxUWGhi6srRVEWi8VsNjs4OABAaUmJUqXCGBcXF9M0jTEWBEGn04nFDb0myiqt/nr/FRoBjQAhqtrK1/lboijKYOUAwMLxhzJKKozWLj7aRn2DFKKeGP/Ut7998+F/33/vmQ+UsmbrY0EAFEX5+vo2JAEwDCMIgm0Eru6zIdSzZ48TJ041V3i1DCZDdll2aIeOzX7m+iT1HLThwPqTF052i+zWQh9RVVNlsVooisorzU2Ma9V1CXKpPKZDzLFzx5y1LjKpTMw06G++ZROATCIbmTjmn+kagPEt5ckR1GZjsUj8/KSZgtCghZ0YAGNMURTGuL6ZJM1o056NR1MPfTrzyzvWHjmcXrT9UqGRExjMI56/8eqGQshqtf55PFMqETM0CtM5Brm16SXsd+fkyZO/rFzZs2dPlmUHP/BAelp6j57XJ0IIgnCbO4naV/9at65fYuLhw4c9PD1rEwDLsq+9/PKib77BGPeL6/buZ5+OnzjxYmrq8WPHZjz+OAD0iur64Vdf9urde/fOnQf2H9DpdIEdAkeMHCnWNrR1/vlYpogCGiEAQAjkSmVl0c3HYIydHNU0RQmCgBAS0+hSUZWPVqFVNu5+n6KoJyY+9dmy/yxeuWjOY6836r23YbVY1637s4HbNmAMCMHtpwylp6fn5OYOGNDMzVmZvsxsNXm6ejTvaW9DJpGN6j06+cTelkgA566c27B3/ZmsFAtrQYAoRMkkrT39tINP8Iqty/9IXuOqdhvUbXBS/ECZ9A7DYy3eBdS4DimaAft39d/szKUz329a+tmzX2od7tCOHEov+i0lRymiRAjxAtx6b0tRyPbPxnL4eFYZhSDQ9VoOMFnZwrLKiipDRbWRE7C7VuWolOucHcUNq+rVpgwZOrR///4Y46rq6vyC/G1bty74/Iv3Pv7ot19W0QyjVqtDQ0N8/f0DAzuMGTZ05/796/5YGxQctG/P3oyM9PKysiXffitXKABAxDA3/gz/+P33GU88IZFIBEEYMHTonl27OnfpIhaLbR0UqRcuvPjGnK2bt4wZO/aR6dMdNRp/f//OXRpROKSw0qg3s3LmenVGkURKMcxNNRV4QXBzdrqxWxwBFFWZGpsAAICm6GcefPbVBbPXbF09ftCExr697nMyTFxcLMM06F/bdpOEEFV/Lz9CCJpxIZiAhdKKUpa1nrty1tfZF7VuLayOQZ3WJa/NzMt0c2q2svsmi+n737/bd3bPuITxDw972FHtKBZJMMatXyd8aJ+hSfFJBpMhIzv9z73r1uz5bc7UNzve9h7L/vsBtHH6av1Xv37x3KgXgv3usIAZA+y4XKQUUdS10Q5GLJVaTKbaJkwQsIeLs0QsEgQBIRAz1Jk8faCrOr9U/9f+0zsuXMUYuyik7o4qikLZpZWlRotcRA+ODBzeq7NWZZ/FLHeBYZjPPvxoy4YNDM3MnP2y2WLBGH/8xWdmo0kkEo0YNfKnFStiu8Ul79tnMBgomjmTkrJz27YRI0eUFBdLpZJ1f6zNy829tf0qKy09cezYg5Mm1T7zwccfv/bKK1OmTrXl1D/Xrp3x+OOOjo4njh+PiY3leb6+0nL1MVv5m5pBmmZEEonFaLwxDzE07aBS3tjBggCM1jtMuamPWukwZ9rrLy58ISIoMjSgjgqsjUXTtIeHx4EDBxsyCKzRaNzddZs2bZJIJHV2GfE816lTJ03jO/FuZTAZth/ctuvkrmJ9gVysYGhRmG+jiwLcimP5Bs4QEXjsoHSkKfrtb9+kKCo2uNsDvYcEet88LaVRWI59/7t3aUQtnfO9s6NzU07VdBRFSyUyqUTm5OjcNSJ216Edc76d/f6Mj7qE1rEVow1JAHewZuvqYM/gpJ6D7ngkxtjI8sz1lgLJ1Q4Wo7F2ZFvAgqv2eg8ShRDHCT9uPvjl7pSn48M/eXiQv4crQ19vaKwcfyW7cPOR80kf/vTOsO4jerX4ZIlmwbLsu598nJCQAACFhYVYEASMHR01V/WV3n6+Lm5uL8ya5e/vv2/v3oVffrlo6TcLv/oqqmvXktLSw4ePvDrntfKKCiwItrZbwNf3p1yxfPkzzz137TMwtpjNjhrNrJdfDu/Ycc1vvxlqaj6YO7cgN69CX+Hi7h4TG2tb5NqoyJ3VMkDXdprHGDBgCmG1o6bYYLiexTF2clAr5LIbR7MEjF2bMBXVzyvgsQeeWLR6wfyXFzT9shFjjBDSaDR33AEJY+zg4FBaVpaY2K++LSE5jtu+fadE0tSozl059/6P84J1wZOTJgf7BatUapqizCbuxx/25uSWOqgUk6fEu7jW3SPK88KFc3kRneuYpyQI+KvPt85+fcieXRe6xwfVub1orR+XJY8b3/WbN741m835xfkHUw48N/+ph/pNmzR00l3PQ/1x3TKWtc57/pM7/uLyciuKiyqjuvrd+OTli4U+vk5SWeMGpU8ez4qO8bv9MRSiBsQPFDHid5bN/eGN5fUlJ5IAbift6pVtJ7YsmLWkIQcjQFKGYjkeEAIMGAS5UlmOcW2LjgFcnbW2VgkhZDJbthw45qqSbX5lkrdrHVdYYobuGODZMcBzeM/Cj1bvSsnImz0xSS5p0+sJAEAkFmOLxfaYoii5XE7RNGAcGxf368qV5SWlRqPh7XffTejTh6bp0LCw4sKixMREmUyWeu7cx++/f/bs2a4xMV6eXrt27PDy8vp70+Zp0x8tLi7mBcE/4J8JVAi563Q8x4WFh69Y/j+ZTHb06NGdBw7ExMUBxp9+8klZaalcoWjs3BWlhEnwd96fWaoQ03IRoxAzMhFTI4LC3JzafgpBEJw1/5q8jwEUEpG7Y5PWIgzsNWjX8Z1/J28ZkTiyKecBAIRAEISKigqeF267JTBgATMMQ1EUX3+qaOxdVJ2OnT0698c3Xhn/WmL3ATfeS33wzl/DR0VMeLBHbm4ZzVBXs0qPHc0ICHCNjvFLvZBfkF9RXW1O7N/p8KG031efmv3aAEeNIje7XOfhUFxUnZ5WGNDBLbKzj4VlAYCimLLSmrNncxmGcnZWRkT67NuTWl1t7tc/XCYT79l1AWN8NbMcAChEy2WKDr5BHXyD+sUlfv7Tp2WVpc9Nfv4uckBmXuYv+1b89s4fDUnbFRWGnJxSX3+XS6kFBQUVXWP8HR0VCxfs7t07YMTo6FMnMosKq3r1CXF0lF+8UMCynJeP05VLBUVFlXHdAr28tceOZmRfLY3vGVxebvjg3e1z3uof1+3O8wn7xPU9denkb1tWPTvp+ToPIAmgXhjjFRtXTOw7yaNh41QIQd9A140X8h0ljErCSMUMDfKiq2KO4xBCGGOJSKRSKGwXaFaW3bDvSK9gz2fG9LvjEHaoj/u3L4z/z89b3/9py/vThyFAHC+ImLuYg94a4uLiah+7urqOGTu29ssl335bVVWlVqsBYEBSUkKfPgCw6vc1tpZ6+cqfLRaLTCYDgH6J/xpydHV1nf3qq7VfUhT17kcf2h4/PG3qTQG8MXcuADww5G5KFwyJ9CmusTAURSNkS9VqlVImkVhZ1tZyYQzuLs5gy+IAgMDKCj0CXURNK5kpFklmjHps3rJ3esckNLnqL0IIiUQimr7zHQAg0Gq1+w8cvHI5rc7bJY7jPHS68vLyu46msLTwvRXz3pn63k1FEThWuJha/dFnQQAQEqKrrjZ/9cXu194YsOyH/d4+2lde2vjyKz3lcuZ/P+7rHh/o5ibXOikP7L+wd1fGO++NtFjK/ANdvl6w74P/jLLNLD95MiswyCUw0PmP1cc7RXpcOJ+n06mDgl3/u3S3h6dWLKGCgt13bMmePedf/zPeOp/3n/notQUv/7XzzzFJY6GRtiRvnpIwtYHbeiOExGLm9OnMyxeLunUP/OT97V8sGieVMH7+2p3bzllZNjrGb9GXu56d2Wf0gN82J08+dvRSaYkxItJryaI9Y8dFpZzMGvRA5PzPtz3xdF9XN5mbW0MrSo1LGv/MF09NHTHtplVyNiQB1OvclXOX8lJfntqIVfXdAtwyywzItp4BA6IotVJRVlGJ0LWpI2IRwws8QmjvsdOdfVyeHdOvgWeWiUVvTh3y6vd/jvnoJxPLCwAY44GhXv2jQ6JDfOm2tKnA7dlafxvb7Mza63SKomytvx2dzi6jACGA2rnIUhHj6aJNzyukEcIADEM7qpUYgBMEKydYeMHIcjsvFkyK9WealgM6BkVEB0RvP7htwuCJ1FbJMQAAIABJREFUTTkPL/BFRcUBgQ1bboKxIOBePeNvs9QLISojI+Ou41n+148ju428tSQOopDFdP32wmS05OdWrfr5hL7cwvF8cKhTv/4dK/XGwwey/fxcfHy1Tk5KluWfn9VfJKL/WHM6KNQFA7aYWVtVKIpCWq3CauEomho2ousH763PytCLxfkiKXX5UtELLyU5OMgemh5+62pntVL98pRXZy95qUeXeJ2LrlHfWkr6yRcnvtSYd2AEqG9iWEiIB4UOy+UiL2/HiEjfn1fsz8+ryUzXS2QMx/Mvvt0pOFR36XJen75hfv4ua387c/rU1axM/ZpfT6rUEg9Pjc5D7evX0AJzXu7eXhrPC2kXunWuo4paW0kALHfrzq6Yomg71tP/a8+6h/pPadSec0czinkBMxSytR40QiG+HsllFRRF8xh769ysPG/hhMzsnMoaw3OPDWtUPCKGmvPggMvZRR28XCmKsrDsqUvZn/yxz0erfP3BJFcNqUHdVCwvnMqtuHF9BsYgZihfD9fLOQU0BVjALs7aGlYwm6ycYCukBhRCxTWW7LKagHq6sBtuVOKYD5a/O7zfiKZsI8Na2a1btzWwGBwAxnCHaaBYwKVlZXcXTGlFyZ5zO1e8tfLWl2gaDRzitXrV4fheIWlphTKpJDzCZfoTPctKa9zdNZV6KwBwnGA2cwCQdqWsptoiYIwFXFhYERLmMnpMTPKudIPBXFpsrKm2AODCgsqZT/316VdDS4qrnbSKuO4Bfv6urJXbvvXssSNpwcEeP/03dcrUOkqzdfAN6h3ee//J5EZNxKo2VOsNFXecGVgLC5jjBZ4XOJYHgJpqFgB4Hl+6mO/krArs4No1JkBfYRSJaLOZtX3vLMtjDDXVVv8AVweNLGlgZHFxJcNQudlVRYVVbu4N/XuLCYkrriiu86U2kQBOnj+RfHKPWuFAUxQjogGDlWUxhqLygucmv9jYbXSaRX5R3unMU0+Nf7rhb8EYMssNtf0yGEBMI1cnR9u1JAXA0aLCajMW+JQrGbOG9VBK79BvaGF5yb+nN7hp1G6a6791H1ftsJ6d/7sxeea3fy16epSzQ4sUbGk/ymrMGGP0745zCUM5aR3/KVgrKFRKI8th29DOPwfSFMquMDQ9AQT7h7ioXU+cPd4rpnFl8W8klUonT5posVgbUr+BpmmapvPz8+s7AGNwcnI6cODA3QVzKjUlLrCbaz3bGc58eeDuXec2rD/h7aOJjw9SO0h++fmgh4eDl7fm6We7A4BSKRk/KdrZRfXA0NCrV4tjYjpotSqlQqLR5vz157FnZvYSS0WPPBZfVKQfNDiCZqhnZ8WkZxQUFEofe6Lvxg0nTp7I6tmzw8RJ3devP5G8P/XLJQOl9fzT9Y5K+GP3H41KABgwAFANvkLVeTqq1FKaoeQyMQA8+1JPAJg0Jfb40fTBD0Qm70v99ZdDcd39Xd08Bw2KBIAuXfw0WiVCMOXRmKiu/vuTU1f+fKBLF6+gYPdnZ/a6cCHHza3j7cd4atE0U9+EiDaRAIrLiqaOnK5Ra4oKaw4fvCwSMYNGRNI0HE45WGOosUsCOH7+ePeQeGdNIwp524pw3fi1iKZUSpVSLrNYrDKZTCqTIQT66moQhPjIINtReaX6G38zGGNHhbywvHLRhgMIIR+t6qkRvasMJl64vogOY+ymUdvWB9AUenJEAkDy+z9v/fyp0U3siW7nbq2KTCGgKUoskzoq5VUGIwC6cVnydRhLm2O5Bk3Rw3oO//vw3z2iGlcbmaaRwON/OgIxz/N79u7hOeH2XYOCgN3c3FQqZWFhoZ+/fx1bSCJkMplSUk7L5TIAQAjxPBYw4Ibtw0zTSF9VEexzu7me/RI79UvsZHscFu4ZFn6txFZMrD8AMCKmS5QvACT07QgY11YIHzW67jqMPj5OFjMnkTIAMHrs9bGocePvsPLLSeNcZaw0W6wiRtyQxIkASUQyhURhNBnuePC1j3BSOjldv0SzDeF6eGhGjIoBgMFDri9YiYj0AQD/gGtFomLiAgCgT9/wPn3Dbc90ifJr4IfaFJTmebnVXcWrTSQAhBDHcwCgVotjuvkjhBDCAEjAQn3VgVoUx3Pbj257dPj0Rr2LQkghZmos10YLAYFURCOEfNydUzNy1CqlrYZ9fmHx+O7htu+KFYSxX/7mLJWAbZQAwMQJH09KXLXn1MePDlVIxWfSc3/eethBKft27xkFQ9s+JU1fs3n2RD/d9XldM4b2nPrZyqMXMntGNGlSczvn/P/2zjssiqtr4GfK9qXu0pdqAWkKKAh2wUrUxBZbNCYxRmOJMSbG2DXVRGPvr8beNfbeRVAsFJUmSu8LbC8zc78/VomfUVkQhOj89OGZ3b135gzM3nPvuadY8HkkwTBPRlIEwCFwAgMcx10dpInpjy1EAisLsZFBzz2UNAJ3Sd0sv4L9QjYeXzdg8J8FD3EMN9uNFcNoQ/HKjSYPIoymGaOBQs840b4QhmEoyogQ8vLyfFkyOIqis7KyTMdcLqdbp/WWVlZgpn8tgzu0zho+sDZJmCmKWbzoeF6etrJcO2FyO5pmuHxOkBkD37Qpu5etHl7Ty5EkWVahiuy4kjaaO+AQiJBE4BnZ6R6yN1PorZYo1cqL9y+M6DPqhZ82CgVQhUDIdRG+6fC5f1NWUVaiLHZ38ahpxzBP6cn7+SQGOIZhGBA4hhBysZfeSXsc1NxdbCkoVOnLFSovlydTHgxASJJrx3/gIrUyTapwDG6lPB4Q7ificwEgsIls3+WEkb3CP4xsY4raZxCM/G3bc19sksBHdw0+ezu1LhQA+tfBuwIG0Lm5w8l7+RwCwzEMEPA5BGCAELKXWBtTGAdbK0+pZVaZUkfRGIaZwgX0NOPrYOlkXTeRejaWtp72TTp2axUW0NZ8F0wcJ5LvJVJP8z9jGDAMXaXJXgbDIIqmcRyPv3WnqLjkhSsAnU5H0zRwOABgNFJ7Dw13dHSqNsTMBEEQJ2OOlitKzbyLZ9mx9Wpwa49vv/fX6SitRp+amk8QOE2jnduvFeSrunX3cXSyLimuDGjpHn8z093DjjLSO7fHWVryMaI2z61ao3KUSlYdG2P+U4/jxJ20gG2nNnYO60oSjWsgfZbrd661cPZ72f5245W7zjEzOwoAJKUlNndqLrGuWXovAHCTiPu1dE3KLS9U6iQiLsCTsUPE51Uo1TmFpdkl5VnySgvRP1t8DCAuxzS1f/oWBs+a/q1FPECAPc2USmDwQsOfj4fzj4dj3I7H+Hs6BXl71C7THIMQwyAEiGFoBEAztClVAIMYAGCYOnAJr4Km0bkzSWqNrhZrPMRAQKB702Yvtiy/Dm4ScZ9AWWxmSalaD2BS4QDAONpJCBx3dbInccxdIi5R6ko1eppBPJLo4mUf7F5nIaAYhoX5tk1+fLNnJ3M9xEzY2AgrK5WmYw6H07dvHzNywT15qOzs7V4xqbewsLhw4SKYYiDsxBJpDVRdYAvfuetnjnp/NP9fBa1eTcyV/N+XhgEAn0/y+SRiEEkSh/++6ehk3adfyII5x3r08tEbdAEt3dNT8y3Egs3/i/niy040ja5cTavRhUykPU5zs3eV1jCra6fQdvsu7Nx/au+HvYdW37ohKCwtWH1k9Q8fzXyZN827ogBIkrh7N0tZLKomPBIDAidi7yUEeYe8eKCtDgdLgYPvk/H9UmohhUCt1WkMxvj7GW2aOr8X1PSDNt7Okn88iyw5xIEL8ZZCHkUzTV0dvFwcsgrlBIblFMlpBnFIokKtS8spktnbnLtxj6IowDC17gXLVKmV+Nvo8MdFZcuPXVcduLJgWJSfZ03SbCHgcDh+Tf1M6YTf69wHA6J3x94YEA4Sky0S69P5g7TUwrqqwH7mVMLM7859MibgxRNV9KrcNOXlmvnfX4tNmsjj1f0D7GQt/CDY3UgzOIbJ1fr4rDISxzgc0sZSaGtlySCEEApwsQmU2eiMNL8eylQEeAeeuXXaSBlrlLW46u+i1WoX/b7YbC8ggOq8gBjGVGQ46tmrmEkz92ZCnijhwd0X+iC+AhtbrlqtM5V9fiIkjpcWqzp28rOyErRuIyspVUmlfADg8kiNxqDTUu4eUgCwta3xUkxv0O2/sm/q0G+rb/r/IQnOt6Omj1k02s7Grmt4/SYkrgXyirL56+dFt4l+RQnSd0UBYBgmL1eKcPmrFQCGAc0wKdmpXdvWQeXhVm6SwzfTtp6JGdetdXRE4AvTujEILEUCa7GAomkXO8msrSeHd2iJEErLeZKFMiqo+cO84pjkh62aOJcrNIAB/qLZvYDH6R3uDwBjGXT+VsrwNYfXjOzR1s8s6ySGYY/SNBvXXcQJDBA8mRmipz+fKEJEEHhKSpGzU43rjr6Q8gr1Z+NafjG+Nl8bvZ5aMG+J0UDVhwIwYdpOt7PgW/A5Kp2RQ2IhLZqJRQIGIQaBh1QMAPUx+gOAhciiVFmq1Wk54tpEffP5vC/HjyPN25Q2rfAo+vkkSM9CcshzZ8/XQhIA4JLc0dGfrty/zLep7wsDkV7G0I9afz3p4LgJbYuKFAIBTyazvnD2gU8Lh53bYtq1b37saNrM2d2XLz1vL7U5eTz9l0X+Dk7iE8fuGg1MyoPymgq56/hOV4mbfzP/mnYEAE8Xz2UTVn63dlpCRuKw3sMdXuLv9IYxGA3Xbl9deXBZZFD3TwZ89oqW74oCMBqp3l38g3xDqm1poPTHU1Z51sXGDo+Aw1fiJ/cKi454aWU4lZGObONnby0GAJ2BklgIOwU9X7GoUqVZfywmzNcTJ0gA2H4l6RXTMALHurVpsdFCOG3H2X3fDLW1rH5ChOPYycujyuWKarfc27Zr4ulhVtxjtWAY0PQTZbxq2dkDu1IEAhIAAEFFuWHpuveC27w0lIky0jyo3QqtxoR5Sm9nlZWq9TIne5pBPBIP8ZRYvjLnzGsitZHiGC6vlJtZd+g5MAwTCgWnTp+hKOrVvyOEGGcnZ3t7u9NnzkqlkhfO7vUGg4O9vckLqHZ0Du0Sdy9uwdp588YvEJidgDOwpdvSlQOSk3OaNLXz83MjSFwo4jZt5uTobF1UVLFy7SBLS8H0H3qkpRXMW/ieRCqeOq3nzZsZllaCTX+NqJF4xy4e2Xl5x8bvNtXaju/b1G/zzK3bjmwZOOf9cK+IVs2CuByzXInqA4RQfknB+aQzNiLpt8NnhAaEvrr9u6IAAICizdq5kleUI2BqNFt5GdcSM+wtha8Y/U08+x2t+hKuOHhp/53034d3C/F2p2izaiQ8S4iPe2Rzl3Px9wd1NcsHw87O0s6uwYoTKBRa0vOh1M2AEIbjTMoZC0Ntk2vWORwCD/OyU+qMWgPFIXArIbe+609gGC6zdSmWF3vU3A0BnpbKkEgkDF2dGyhCllaWKrUqKvJVyeDOnj3Pfb2K1pOHf/Xn1iWf/Tj666HTWjZvSZpn2pLaWXTu4lv1smkzJwDwaeHi0+KJq6jMVSJzfVJMjcMlItrVLLdoQUn+zuPb41Ljlk1a4fISL0kzkVhJJo+YMqT3sLRHaRnZ6Qqt4g1NT/4FhoGnzOu3Dku8XL3MMSG+QwrATHR6HZ8jwGtiQn0ZF5My+4dXU/DIkkscvpZg2gNo69eExHEAoBl0K7OAj9CjgtIQb3cA4JDE1eTMgtJKDMc0Bsqch6tfRMAfBy717xzSSHMGPQOGYSJLJLamEINhBGNhCQ31/XkZFnyORX3O+p/DSSrTaMx1MH8hNE0zZiSDMxXiNqX7f6F1VK/XV5tVtFr4XP70T78/F3tu/uY59hYObXxCpVZSgiBevtFTnyBQalSZeQ8vp1z4oO2gVd+ulVjXTUlOB1sHB1uHDiG1D+J787AK4HkomhLxxXXi1xWXVfTFe+1e3QbHMLlSozMYDRRNPZ2yETg2a2jkskOX+7R7kgIaw0BnoIoqlAROmFcyE6zEQg3FaPVGsaDhPWurBSFACEMIwxD27LCg0xqvXE7t1qM29tn/LkKewEDVsgYLBhiGYRZiUbUbtgghLpdjbWV39uzZpKTkF7ZhGDogwD8396WhwuYT2TayU5uOdx8kZGSnF8mLGPN8SesBTCQQtWvZ/sshE6U2DZzBv8FpdArg1SUD3wAY1Jn5jk8SesO/cxz9PyoM1Mc9w+2e7gEYn9qpXB0krhIrHufJH4iime5tfLu38QWAmLQcs4omm8ZUM2bSWo0mISEhrG1bU3jBjbg4f3//R48eFRUVAUJCkahteHhhQcGdO3cYhgkMDHR9ibngtUEmuZ996/y5e9F99uflypxdXnfzOS42NiAwUCgUAkB6WprYwgIQSnmQAoCMFNWpc2dA6OrVqxqNxs3NzVRKrKiw0GAwurq5AkBiQoKvn9/LKm2VFBdb29gYDIaiwkKvJq8bjYFjmJlq/t9QlDE5+R5BmJUhUKPRqNXqgICAV7RBCBUWFtZOmOcgCU5r/9at/WsTGsZSHzSWzAH408pwixYtjr9123SMYfibXyM+zfNbB3TzdbudmlVts2dKyPxTRZIkcH/PJ7Ebz0UwmGmCflxQ6mQpFFWXcQgA5HJ5eESEKeCztKQkrG3bouLivzb/RdO0SCwWCoV5ubnv937PViKxs7c/cey4WZevCVqd8eBawcrv7Vf9YLfie4c7F5ApBkpRqZ02+VTbbvTyP8+8/lXahocfOnjQdBzq7Xvv3r34mzdT01LFFhZisZiiqA8HDNDr9e7u7hcvXFCr1QCQnJR0I/a6qcvvP/9iNBgYhsnOyiorLQUAo9GYlZVVUlJCUdTaNWvuJSdr1OrS0lKj0Vgul2dnZZkqrWu12uysrHv37uXl5popKnqNZxAhkJfLy838L5dXlJdX20z/tMADy1tGo1gBIEA5BVl6vQ4B6j+4L4fDySvKxXE8vzjPS/amcxsQOK4zaOi6CHpq79/kh53nerVrKXpJFRcEgCG09MAlAZejp+hhXYLlSs3VhHSGYQADMZ97+U4qhmHlKg2PQx66mpj4qIDEsewKTbWre4pmtl+6O6KTWUXEMAzrH/3egX37vv7mm4MHD/aOisIwTCDgCwQCPp9vZWUVFxe3Yctm/4AA+P/p/uuKb7+PnjK155OE+wCAkEjEBYC/Nl21bVEWEF65aGFS/0Gt24S+lmvW0P79/7d27bDhw+/fuxfcIYIkSYIkRUKRgM/ncbmPMjO79ezZOzoaAAJbPvm9cTic5Hv3nK5do2lapVIZjMZxY79o3bp17PXrU6Z+vW7N2o6dOyuVis5duly5dFnA50d261ZQUFBw7NiOrdtC24Y9epi5aPEfo4aPGDx82PpVqzds3mSmqDqDnkvW0nDH4ZAdO3QoLCxCiKnOCwgJBAKBgJ+QkPhC32IAYBjk4eGmVmtrJwxLI6dRKICI4PYP0u/lFGQBAIbhCJkcGcBL5mVnW4N0bHUCj8fXGnR1UgipVXO3EFe7xbvPzBzZ+4VfLxLDZvRtbwqspxmEYdisIZEaneG5Ob6jxLJ9YPOEh7lhzWUYBsFNXWwsRa++9OYTMQDQ1r+pOXIyDNOuY8fKysqM9PTHmZkDhw5lGAYAy8nOFglFBmcnhJDJclJPCIVc+NfpMx+WTJpy/fO5KoKAQWMUP807s/fQZySn9mtWgVA0ZtzAm3E3jh07OnPOXFOhnoL8PFtbG5qinWQu1v+ufIthKoWivKyMphmEUE52dnhE+Nhx4wYMGrhn925ff7+UB/cHDxni06JF9549Rn/6qVarzczMRAgt/OXnZs2afTpyZLlc7ujsFBoaGhcTY/5DVVJeyOe9NHjn1SAECCGdTletKRMhRBB4YWEhjuNeXl7/3uzFMEyr1cbH334dN1CWxkyjUACWIsuwVuENLcUTxEKxkTJqdRqx8HXTe2EA3w3tPn3j4amrD0zo18HVXsIhnzPmYN3atDDzbF3+FR/wbyiaKZRXbjgWk1ZUvuyL9zlmRwNhOD5w0KAPekVv3rUj4e5dxDAGgyEyKsraxoYgCCNF7d+3b+LkyQih7Kwsb586qF1eLSv+PPf+Z+V8oZFhcDuZ+vzNzLNnknr2rn1hZHlpSbfu3VtIpV//+KPMVfYwM5MyGsPbtQ+PCGcYRqlUzpg2LTr6PZFImJmZ2aRJE5LDoYzGiPbto/v2BYCTx49zudyCggIAKCws5PP5H40caTAa5s+eM2nKFJqmFQoFjmEMYwoWRgCgUauldnZ29g5bNm/u1qOHh6e5K5iskmxJbfcnTSUhc3NzzdkEtrW1JUnS0dFBInlx4hOapu/dv187SVgaP41CATQqRAKRk63z47xHdrb2r382sYD7+9j3D126PXLVITdLoa2AV32f16BSb3hcoRnV1uebD6PEZl9LIBA0924eEBj48dgxgS1blpeXi8TioOCgNatXA2BOzk5jPv+8sKBg8vgvAcO69+xRTwqAoaEgv0JiJ+bzyZiraUtW3HVvyU+I5yMAHIfCYqxX9KHSkiaSGiZsqaJ3v362EsmK3btDQkI4HK6DvT0AHDxw4PKli2q1eubs2b8vXTp39qzysrLAoKCJkyYBgJ29vVD0ZLHVNiLC09OzZcuWo4ePcPXwmDBp4qZNm+4nJnp4NXFwdOwaGbl967b+Awe4yGQAIBaJAKBXnz7p6elqleq9vn1uxMYajcbo96qvAlReKdcZda+z9kUIlEolw9DVBoLxeDxbW8mZM2dlMpd/V8vCMNBqdSRJcmtYXZnlvwKrAJ6HwAkfV5+CkrpxewAAPoccEhXar0NQXrFcbzDWq4M7h0M6SW0saqhmpHZ20X36AMDUadMAIKpbNwAY/OH/K0zYf+DA/gMH1p2kzxN3PX3sqCOJ2WWYXrBlS9fw8CaJCeOeC5JjaIZ6DdPcmC++AIBBg58U/TD59gQFB1c1aNmy5Z/Llz/bJSDwnyC+kaM/BoAPBgz44GmV4y8nTKj6tHWbNq3bPG+0GfnxxznZ2SqV6vHjx2Vlcnd3d3PkrFRW2opthYJa29wwkiR69eppfodmzarZaTtz5lxthWFp1LAK4AU428tSMu/1hX51eE4Bj9PUtVHkCXmWhxkZiYmJ1lZWbSMiGrAeb0Z6UduI7cOnyNtJ9QYtOWLq4eObhvSKblV9T/NgGCY1JaWFr++zb5aVli5ftmzS5Mm2klfFAWm1WpIkOWZMgSsqKqytn/dVdXVzW7ZiuUqlGjpsmJkJ2h7lZjraOPM4tVwsajTqyZOnvMxdtRYghGxsbLp1i6yrE7I0HlgF8AJa+bTafX67QlVpKbZqaFnqkZzs7Plz5s6YPSszI+NhRoZ/QIDBYCgsKHAzTVQRqqio4PP5fIEAABQKhaWlZU52tlQqFQiFDMMYDAYej/fqkiNmcu1yWuQQhY2DnqFxvogeOkyzb/fdOlQAOp3up7lzt+7ZAwA52dm2EolIJNry11/t2rUzjf4atVooEhXk53O5XIlUCgD5eXlcLldqZ7dty5bQ0NDAVq0wDFMplQRJ8nk8DMfVarVIJDIajQX5+W7u7nqd7vtp03769VeRSIQTBEmSpnMCgFans7SyKiwoEIlEFpbV59u4dPtSx+BOtb5ZoVC4dOmSWnd/IadOna7bE7I0EhpSARQWVMrLVJ5N7ASNLFTVQWIv5Iryi/PqRAGUlZbm5edzORxPLy8cx3OysxmEMAAPT0+9TqfRaqVSKUKoID/f2cUFABBC6WlpeoPB1sbGZFCuJ2iaRggROB7erp21tXVuTs6PCxZ0iYzc8tdfffv16x4asWjdqpir11avXxd/8+bjR4/u37vf3Mc77vr18RMmjBw2PDgkZMXqVXVSsk2no7jcJwZoBICTyEjVZe0BDMBGIsnJyXFzc/tl4Y8njh9bs379xfMX5GVlDo6OLVu12r51q0wmS0tNu33r1sSvJicn38vPyzUajG3D2+7bvSfr0SOJ1K5n587jvpoMgA3+cLCtRDJ96tQp06ZNmTipdWgbiUTq7eN99tiJbj16CIRCmUwWEBi46NdfBw4e7B8QsHH9eoZBOI49fPhwyJAhAS1ftY+tUCmSs5M+7lezanTPUkfpuuv9nCyNgYYJBMvJkf/604krl1Py8ytputE9XDwuv0tQ14s3L9au+7PefiXFxaOGj8jPy4u5FpOcmJibkzNuzOfXr107derU9GnTeHz+gN59KIo6sH9/wt0EU5eN69efOnEiJzt7x/btOq0WADQaTVUkjlarNYUXGY1GeJrOF56O5gCgUqnMTN7i4ek5Z/68+Pj4nxYs3Ll9R3JysoODA45hVy5dys/PX75100ejRvkHBmSkpx87etQ/IOD0iZMkSUokkju37/j4tli5dg1WRzHb4e2bnNgi1KpInGAYGm5eFkR1r97lqUZggFEUtWrlyu9+mDH6s88srawHfjh4/MSJUju7eXPnDhsxAieI/IJ8vV7/MCNDKBSUlpS0CQtt37Fjz+jeE7/6ytrGeujHo76cOJFhGMAwDMM4HE5iQsKM2bNmzZ07fuKErpGRUb179R848J+nGcMoilr022/DRozYvWO7UCiUSCSXLl1+tZzJ6UkutjI353qKta41je5LylInNMAKIDkp58zJ+/0+aHXn1qPEhJygEDexuH59Y2pBaEDbeRtnjVB/JBbVuCT9zRs3srOyBg8Z8temTTKZzFnmEhoWZmtrCwDpqakfDhv60ahRAOAnc1u0ePHqTRu+nTrV2sZm9ty5pu7p6el9+vYNCQkxBSX9fehQ3PXYstLS72fNvJecvHXzZgzD5v/449o1a35fvPj+/fvZjx+nZ2ScOHx42erVO7Zt5/J4JcVFv/3xR7VW4MrKSkdHxyFDhw4cOLBfdPT4SZPadejQrn37yKiozMxHRiMFAO9/8MHMGTPc3T3cPTyaeTfrHR3dNbIrQZBXr1QzkNWIwJZuu3b0GTLstEugKi+RO3N68PAR1eRQqikUTQHuzUbmAAAbWklEQVRCXO6TMm0MYiiKoikKMEwmkwHAzG+/vXj9+tUrVwrzC/oPGti1a9cD+/cfP3YMA6AoCiHE5ZmeUqTTahFCgGFCoVClVAGASqUS8PlqtQoAMADNU7WNYZiVlRWO4y6urj1790YIVbuXcDb2dGTrqKrAeBaWeuVNK4CSYsXZUw/CwpvEXMuI6uaXny/ncRvjPoSXm5eTrezWvfhOoTWrzAcAQcHByxYv6T9w4Iljx3bt22dja7tuzZp7SUmDPhwSFNTqp9lzb8XfKistnfvHIgBo1qzZkmXLzp7+J9XBnLlz/z7096H9B0pKShb+/NP6Vau+nz07Py/v6OHDN2Jjd+zZg+O4wWAwrQMAIQahkuKSbbt3FxUXKxSVwz/6aMXSpSqV6t8bks9RLpcv+uVXmqIohp6zYEFAQMCM76Yf2n/A18+3Y5cuYgsxALjIZDY2tv0HDhAIBF27dft64iSSQ06Z+o2HR50Uwv7HfPTh0LYdO7UoLVWKRDxPL7tqDUs1MjzhOO7h6cnhci0sLADA2tqaJAgrKyuSwwEAS0tLAOgeHT1uzOcSqcTe3v7woUOnTpxkGOa7H2ZIpdJvp079ZdEie3t7AOgdHf3dN9MIHB/60YgOnTrNmjFj+5YtHbt0/viTT1qHha1euXLQhx9OmzJl9bIV3Xp2l0ikIqGIy+UOGTp02ldTSA5n4uTJvv4vTRCbnZ+VlJM0acSUmtwcC8trgF6DHce2bz28pUZdNq6//OB+3splZzMfFv/y49HEhCy9zvg6MpjJnFWzbiTeqFGXmNvXPps3WqfX1eJyf23e/MeiRUf+PkzTdFVkkBggIy1t5fLlCKExn3xSLpcjhBb9+uvt+FujR46Sl5WZmikUCtPB2bNnd+/cOXTQoISEhOTk5KzHjwd90N/0kdFo/OTjjxFC95KTjx89NmP69waDIeHu3bmz56SkpNy9e9doMJgpapV4L3z579ZmnrZatm+7smzJydr11agNAD8rFdq6EsZENfdek161O9Wa3avW7l5Ti44IoYSEhCtXriGEtm3fWbszvIITJ04ihI4cOVJQUFDnJ2dpQN7o7JuiGLXSkPmwqFsP/+1bbvwwO7oxr3SD/UJ2nt5x9dblyPBuNe0bGRkpc3XVarWPMjO/nfqNj7d3QWHh9kOHOFwuj8cDgG++/XbXrl1du3YlCCIoJHjewgU/zl/w+59LEEKrV6xITUlxcnJ6+DBz9bq1HA5n2+bNBEEMHjp01Cejx3z8MUIwa95cP1+/KRMmZj7KXL1uXWxcLE3T3t7eKqXy4N69xUXFPy36jTQveOc5N55qvHrqrhaKj49LyIjtu3em1HSDEcOgMMcwboyrUFjHlsPaeTS9sFctTpWdn3Ui/vjyKStrIQMLS+3A0Gts8O88voOm6RF9PjKzvUajP3IwkeRCqyD3/LzyDp28AUBeWVauKDflwymvLKMoo6WFDY/LBwAOyXF39qi1eM8yd/Xs6PZ92gTULL/KjcQbqw4sX/rNCquauwOZ3ARNxxXl5SKRiMP9f85Opt981UiBEKo6NhgMapXaxvZJahqNRmNKy2w6LY7jJp99RWWlUCh8bqCvrKgQiURmjv4NS26OXKPR12KsRIBcZVKB8D9wj2aCAP28fqGT1GX0B7X0/0lMTFQoVO3bR2zfsWv4sCF1K97Jk6d69uxx9OjR1q1bOzrWTU1QlsbAG10BCIW8wcPaACAMw7ya2ANATkH2kQvH5XlchsIwDLOxsiIJvFKZYzAaaZq2l3HtHK8P6jH0TQr5LKGBoadjmx88s//jmn8tq0Z/ADBlGUMIlZaWMgwjFotFItGzAx9CiKaoqlGby+Vybf/RFs8mYnv2tJZWL1BLVtWZ/hsPMtcX5595B4lLiE3OSv5y6KSGFoTl3eJNb8BiGJg28Eyj37m40/IMx/ffb2NtLUBVk2LTPww7cjBJycvLyn/k7lwnW4614eO+o6csndTSu1WQb3D1rV8OQzNTJk+SSKVW1tbXLl7csW8fSZIGg4EkSRzHH2ZkpKWk9O7TBwCMBgNBkjiOm9YEVSsDhmZwAjcajRiGkSRpegkANE2bGWLK0jiRV5Yt2/vnhIGTa7HQZGF5HRrSAycr/7G6QhDUysM/0OWFDYaNbLNureJS/PmRfT99w7JVIXOUjX9/wqIdvyz9esXrpId7kPLALyDg87FjAWDyV18BwIply4qLiktKiuctWPD1pMkqpSIoJOTihQuJCYlarXb0p59cj4n5Yvz4Gd99N3HyZBzHz58/7+rqeuzo0ZLi4tlz527966+vp01TqVQH9u774svxdXbDDcFPCxcOHzHC3cOjoQVpAGiGWrFzeYRv+4hWEQ0tC8s7R0MqgMS0O9pSsVeofW5OuUqlA4TUKh1CiMfncrkkhmH2jlYVZZQj4inVCgtR9TH09USXsK4ZORlLti2ePXYOn1fLhDkGvd7T0xMApk6eXFxSMmDgwNCwsPS0tIz0NKVSOWPWzIqKChsb2z9//W31pv8lJiSkpKSkPkjJfpwVey2mVVAQRdHBIcFCoTAwMDA5KenmjRvtO3a8c/t2YWFhm7C6r9DyJikoyL98/rylldWEiROVSuWN2Njc3FyhSPRB//7paWkZ6RmFBQUdO3dq7u195PDh4qKi1m3atAoKamip64xtR7YVV5R8PfKbhhaE5V2kwbxwcgqyMYAvxvbMzyt/9KhIo9VptHoOl+DySYqm1BqtQqm+EZsxYlRo7049Tl2t+zKENWJk31E8Dm/5jmVGqpoavy+Dzxc8uP8AAP5YuvTzsWNvxMaePnXqvb59u0RFIYQQAEGSNE25eLjzeLyg4OAePXpEdu8247vvfl/6Z/zN+PNnz3r7+MybPbtrVFRU9+56nS6iXbt9e/bGxsT810fDE8eOr96wIS8nV6lUlsvlH3bvHh4RYTQYjx09euXKFYPB0LFzp7mzZ587cyY1JSX6vffs7N50jaD648j5v8/eOj3zs1mvX3yChaUWNMwKACF06tpxT+uIPTtvDBgcYmX90sy3Z04l3onXMpb4o9xMT5nXmxTyWXhc3lcffT1/7bw1u1d+8eGXHLLG/ictfFvs2rHjh+nT7ezs7ty+M3fB/J8WLty3Z8/JY8fd3Nx8WrSYNG58q1atwsLDL5w7p1arBwweHB4e3qdv3y07d6Snp6uUShzHLa2t/z5w4P69+w5Ojlwu18nZuVmzZv/pDQCDwbD9ry0+Pi3EYnHM1av+gYELV65q7u1tZ2//vw0bJFJpl65dbSW2XSOjnF1cHj9+vGzp0sioqHpNkfTGOHnl+F9nNv/8xW+O0jrwq0EImWpH43WUn+NZcJyo+snyNvFG3UCrKCwtOHH+Ekft3m9g8KZ1lyZN7f7CZveScouKKnz9XE+cuCV2KRzUY1itRZ27ena/Tv2CfENqfQYA0OhUv//1q5AnGjd4gqhWU7aK8nK9Xi+1syMIQqvVKhUKiVTKMAyHw9HpdFwuF8fx4qIiHp9vZWUFAOVyuY2trV6nAwAen09RVGlJiUQiIUgyIz193qxZS1etkkprWTqqMXDt6tVLFy+2CQ2lafrQ/v3Tpk8fOnDQlp07bsTFWVtbl8nlIqHQPyBgzg8/LPj5Z41GQ+D477/9tnXnzoYW/HXZe2rPvst75n220MezbqrrpKamHjlyrHWb1ufPX+jQoX0dJu/BcOz27TttWodcunT5yy/HvU0rMJaGUQAZWem5+SVx5yvbhLmWlaoHDQl7YbP8vIrdO2O9fRxxAiqw5CE9R9Ra1B/XzxfSHm6S5gyqdZpJjCSJotLSQ7d3tfSx/2r4VCc751rL8/qYkr5ZmpFeuDFz5/ZtXz8/U3BccnIyILR92/aIdhECPj+qe/fVq1ZJJBKapjt06GBtY3PxwgW1StW+Q4f/9ApAq9P878DGW+m35n4+382pzpK+IYQy0jOMlJEgCJo2Kxug+RA4TjM0n8/38mqwVThLfdAwCiA1MwXDwVYky8st8wtwJcmXLlpzsssqK7W+fi47T2wdHj2y1qL+uH6+iGniJvFm0Gt9N3AM5/HxfM2di0mnv/xgYnhwO6xeS3y9Y5SWlqanpYVHPPGHuXb1aqugoGdDH/7rZGSnr9i9zMZC8uWHE6S1rfrLwlJXNMweAIfDkVfKm3uIpXbVGFJc3SSuAAzDGIy13H01YaSojp18gl/PBPQMwS19Apbs+ePGvRtDew1zqAsbLgsASKXSZy1a7dq3b0Bh6haNTn3s4tGt57aM7vFp3679CNaeztIIaLBNYL1BDwBJCTmVCg2XS75wGk1TjNFIBwd7CEQclVr5mhet23VxaGDoao+1245t/fKPccO6DO/aNsra8j8TgsvyJtEbdPHJ8f87usHJ1vnPScu8XKspwFsfIIQy0tPlcrmnl5cprSkLCzSUAmAYprisEACsbUQcLmk0vtguTxA4QeA8Po+i9EaKerMyVo+1pfWEoRN7RPTcfnzrgav7u4f06BoW6eIgq5MqiSxvAfKKsrjE2GMxRxlAn/Ub28a/NUk0TP6iWTNnlpWUBLZq9fOPP+3YvUsgEBQXF1taWgoEAoPBAAAcDoeiKHlZmZ29fX34EbE0ThpGAZAkGZMU42wvk1jZOLs6VpUuwTEMMAwxTNW+RKWi4n7G3cS0BEFtI7Dqm2buzeaOm5/2OPXElRNfL5vczLF5l9aR/s38JTbSWniLsvzXoRlaqVI8eHj/RlLctZRrzZ28P+r9cYhfCEk0WNBlYWFhYX7Bhk3/A4Bx48fTND1h/HiVSlWQX7Bm/bq5s+dUVlT89MvPy5ctc3Z20eq08xcsqLZwDcvbQYM9lL3bRTtKHXef3hnqF6bRqk1v6o0GBMAhSALHAYAkyNLKMqmVNCqi+6lrJxpKVHNo7uHd3MN7RMWIO/fv3Hxwc8PxdVKx1M3e3dutubuLJ4/L43J5XA6H3TF++zBSRoPRoDfoi8uKHmQ+eFz0uKA8z93eM8S79R/d/3RxcGnw8l4URQW2+qcQcUZ6uszV9fsZM2JjY48fO1ZcXLR5y5aEu3ctLCy7RkX+9tPPRUVFsv+ynxWL+TSMAnCyc7p2+0p2QU5EYLv2IR1f0VKhrNx7ek9ucW5rv5plcm4QJNbSqIhuURHdKpQVxWXF+UV5t1Nux6fc0uo1Sp1ST+kbWkCWuodDcMU8kZAnshBa+jXxiwzvJrWRSm2kDT7uVyEUCjesWjP6k08sLCyKi4pomjbJhmEYhuFisYWVlRWGYQKhwNbWdtr06f/pyBKWGtEwCoDPE4zoO8qclpYWVp8OGFPf8tQ51hbW1hbWzT2adw7rAgAUTRmNRopudNsYLK8PQRAckkOSZKNd3tna2i5auqRb5y7NW/hwOZxFixdrNJqxYz4vl8sXLf7j9MmTNEW1a9/+2NFjO7dvpygq9D+eXYrFfBomDuDNU7uCMCwsbw16nc5gMFpYWpheKhQKoUBIckiDwcDlcgGAYRiVUikSiQiyMZbpZqkP2L80C8s7AY/P5/H5VS+rYsi5TwvV4Tj+whJDLG8xjcVMycLCUieY3DoBACFE/ct5ukYr/vLy8ory8jqTjKXxwSoAFpa3iuFDh548cQIAUlNS/9q0+blPF8ybb/6prsfE3Lh5sw5lY2ls1KMJCCF4NiIKMQjD/3nNMEip0FlZ/z/vfqVSJxBwX5Ea6GWolDp+rTqysLxlMBS9dPESP39/DAODwaBQKBb//odOpxs4eJBOp5szb66VtZVAIBg4cKBSpTpx/PgX48b9b+PGXr17H9i3Py0trWmzpp9+9tmG9ev1Op2LTObm7v7g/v20tPR+7/dr6DtjqXvqccQ8fPDW3l2xpuO7tx///sv/c+RXKHQbN1yuepmTVXYj9uHfB2+VlSpqca1TJxPy89m1KgsLIITWbtwwZvSnlZUKoUi4fevWoJDgYSOGL/rl16CgoObuXmO/+MLZxeX69djrMTHjxo+Xy+Ux166lpqQolIrFS5ZQRurK5ctHDx8eOny4vb19UmLiyuUrevTs0dC3xVIv1KMCUCq1i3+N02gMALB3z63i0koAuHAu+ef5Ry9fvA8A+XmVG9ddXLX8bLlczeWRAgEXAOEEXlRYuWbl+U0bLikUWgBACC5ferBk0cmTx+8CQFpq/v69cQvnHLl/LxcA9u6KXfbH6eTEPBxvpE54LCxvEqVC4ebm9vU3U78cO5bH4+Xl5yfeTYi7Htu3Xz8ul2vUG/h8frt27S5cOH/37t3t27bNmTWrR89eSqXS29ubIAn/QP/S0jJfP3+ZTIbh+NI/FisUCja7ydtK/dpMho3yvRn3MD+vHDGE1M4iNSU/LbVk3MTIB/cLb8c/zs9V9ejVsnNXn00br2g1hpzcMlNJo8W/nevYycfD0/7o4bsAgGHAIbntO3r/tfGuUqG7ejXFwlLwyecdFi+6cv1aqtHIfDK2s0LJxlixsAAAyEtLAaB7zx5dIiNVStV7ffqUFBfz+XwA4HA4HaI6//zjT5aWlgzNyFxkUd26rVi1qm3bsNCwsOVL/ly65M/ff10UFhZaVlYKAHqdbsWa1WPGfr5i+fIGviuW+qEe9wCMRjqqu9+enfEP7ucP/DDo5IlEpVIT3NrN2kbQvmOzu3fzIjq4ylxtAGwOHUjAMDBN4RGDHqbJMx4WUEY6INAFAIqLFGfO3Ovew8fFVUjRNI5jfv4yZxdrEseyskrbhDUVi7mhYW6IqbsaSCws/1kuxlwzHfz06y8Gg0EoFDZr1qy8vNzZ2RkA1q3foNFqCIKYNWc2h8MRi8XZWdkyVxmGYUdOnigqLPx0zGdisXjVmjUAEBkVhWEYl8sNbNnyVZdk+c9SjysAo4GxthF6NbVNTyvx8XFWVOpdXCSHDiQmJmTv3Bbv28J587oHVy6nHtx309XNimEQTTMEgT18WNS1h5etrYWbu5TH5QCAVmcQ8EkrK1Hq/YqSYiXDIJqiAaBcbmwb3mzr5utJiTkbVidgrAmIhQXA4qmDP0mSQqEQACQSSdOmTU3HPD7PxsYGAGxsbMRiMQC4urmaLDxisbhJ06amNy0sLACAx+OZogSs2PiAt5R6jATOyy2XSMVGA63VGuzsLR5llng1sX+UWZKbW+bmLnV1lTzKLJHLVRgGQcGeep1Bpdbz+ZziIoWbu/TO7UcIgX+Aq1jMQwiSErM1Gr2zsy2XR9I0Y2srEgi4aamFzb0d7yXlVio0Dg7WLjIbPv+lKQzZSGAWFhaW56hHE5CLzAYAeDyOUMSlKMbD0w4h5Oll5+n1pKh0k6b2TeBJbQqhiCcU8QCAz+eUy1VhbZsCgCktNIZBYMsXlE5t7u0IAH4BbNpCFhYWltpQ747za1ae/+arA/NmH9u762ZqSn5GRtGr2xcXKc6cvgcAleWaWdOPmN5ECHbvYANSWFhYWOqSes8FpNEYZs3tZSsRAUByUjZisDUrz386pvPePTcio3z37IorLVWHhrlH9wnauT3m7p18QCg03AMAEAKN+olvDwaAE1BWpl7x52mdjraw4M2Y3efunawD++4AgklTIqV2FvV9IywsLCxvGfW+AuBwsXkzj07/+uDBfbfVaq2RprpGtZjwxU47qejhwwJra+Fnn3c8+vf9hLvZDzNKf/194IDBQU8qRGJQta+LAD24X6hR6y2seD8vGojjWPbjsh/nXvh4dLuuUT77912v77tgYWFhefuo9xUAZYRvvo9ydLQmSeLatftCAHt7q9tx8klTbEpKKjRaXUZG/pARLQkcl8msAMDe3urhw1JT36rYLgzDCBwDAEdHKwCwlQjVKj2HC7l5xTRDd+zsW993wcLCwvL2Ue8rAIZBPB7J4RKm+khqtXHlsnMnL43es+uWhaW4uFBNGVFpsdbD0y7+Ru7+vTeW/3meQ+IAgAF260bx5o2X16w8l55aSHII9HRbmKYRj0+07+hWWqKpLNcDwzqAsrCwsNSYei8IQ1FMVY42imIQQiaVYDTQJAdXqfRFBZVOztYiMc9goHOzy+wdrPh8DsnBAUCtNjAMgxAIBByEgMPBjUaGyyUMBppD4hiO5ebIMQxzdLIyhRC/AtYNlIWFheU56tcElJ1VqlLp3D3sRCIeADybrZPDJQDAwoJvYfGkSAWXS3g1tX+2u0jEfe6EXC5R9RMAZK629SY7CwsLy1tOPZqAfvv5+N7d8RkZxT9MO6zXUQCgVOhoGgEAwyCd1qjVGE0tNRqDWq0HAMrIAABCQFMMABiNtFKhAwCN2qDTPmms11Mqpd7UDABoijEaaUWlDthMECwsLCw1ob5WABnphQSBT/22JwD07RdsNNJzZ/2t1zLycs2vv/dfOP8oMFhutnLhb71UKt2+3Xf5fLLvB4FHDiX/MKd3Xq48LjbDYDSeO/lIIOTw+ACIfJhevmrDQI1Gv37NNalUFNJGxuESG9fERffxu34909NL6uZu3ff94Hq6HRYWFpa3j/pSACXFlU2a2lW9TLmf19zbbtiIiLu3H585nSAU8eYv7JuZUXTpQpqLq0VzH0nHTj6urtLNG28AAMMgvZ4qr1D99Hs/e3uL/u9tPHD00xtxGQ8fFt+IS4/u4yeRiFYuv/z+AL9JUzva2VnHxz/q3quFm5vdy8VhYWFhYXme+jIBeXg6xN/INh3rdBTNMBwOAQAkhwAAgfCJcV+rNXTv2SqinXdsTMaunTGmvV8Me/KfxyMBwNrGtH9AYBgghLQ6SqenJn/d1WCgLCz4MlebiV91y8spn/71wXq6FxYWFpa3kvpaATg5W7ds5fzZqM2ublZKJTVjVvSenbeyssoyUssX/NI3KekiACCEcBw/fyY5Lu6RTkf16OkLCGbP2F9QoPl+Zve//75lsvIbDAwAMAwyGuk+fUPWrb7i7mHdrJkDYBhg8PhRyeoVF5xdrJp5sxvCLCwsLDWgft1A1WqDQU9Z2wgxDBCCcrna0lJAcnCTbyhCwDCIIDBFpQ7DwMKSDwAV5RoulxSKuEYjw+HgAGA6MEUA4Dim1Rh1OoONrYimEY4DhmEatUGnN9rail4hKusGysLCwvIc9esGKhJxq1w5MQxMGYHgqT8ohgFBYABgacWv6mJtIzQdmEb/qoOqqGCBkCMQcgCe9AUAoYgr/JfDKAsLCwvLq6n3SGAWFhYWlsbJ6yoAHP9vqBAM+2/IycLCwvLGeE0TELqdcouhaQYxdSNO/YAB9rjwEbChYiwsLCzP8FoKwNvDhyReWoWxUdGrbW87W/vq27GwsLC8M7yWFxALCwsLy38X1jLOwsLC8o7CKgAWFhaWdxRWAbCwsLC8o7AKgIWFheUdhVUALCwsLO8orAJgYWFheUf5P699Ma0FPpBOAAAAAElFTkSuQmCC;" vertex="1" parent="1">
          <mxGeometry x="163.69999999999996" y="-1070" width="592.59" height="250" as="geometry" />
        </mxCell>
        <mxCell id="aofbRuX0V456IzegRtdr-2" value="" style="shape=image;verticalLabelPosition=bottom;labelBackgroundColor=default;verticalAlign=top;aspect=fixed;imageAspect=0;image=data:image/png,iVBORw0KGgoAAAANSUhEUgAAAggAAAC2CAYAAAC8o3VPAAAAAXNSR0IArs4c6QAAIABJREFUeF7svQeYXdV5Lvzu0+ucMr0XdQk1kEAIZDCYYrCNMbYTxynXNsQlwYlL6nViJ0/i//43ziVxEid2uMTEDnawTbABxwUwpoMkkIT6aHo758yZ0/tu9/nW3vuUqWc0RdJobx6h0Zx99l7rW99a611feT9OlmUZ+qVLQJeALgFdAroEdAnoEiiTAKcDBF0fdAnoEtAloEtAl4AugekS0AGCrhO6BHQJ6BLQJaBLQJfADAnoAEFXCl0CugR0CegS0CWgS0AHCLoO6BLQJaBLQJeALgFdAgtLQLcgLCwj/Q5dAroEdAnoEtAlcNlJQAcIl92Q6x3WJaBLQJeALgFdAgtLQAcIC8tIv0OXgC4BXQK6BHQJXHYS0AHCZTfkeod1CegS0CWgS0CXwMIS0AHCwjLS79AloEtAl4AuAV0Cl50EdIBw2Q253mFdAroEdAnoEtAlsLAEdICwsIz0O3QJ6BLQJaBLQJfAZScBHSBcdkOud1iXgC4BXQK6BHQJLCwBHSAsLCP9Dl0CugR0CegS0CVw2UlABwiX3ZDrHdYloEtAl4AuAV0CC0tABwgLy0i/Q5eALgFdAroEdAlcdhLQAcJlN+R6h3UJ6BLQJaBLQJfAwhLQAcLCMtLv0CWgS0CXgC4BXQKXnQQua4Agq8PNTR927QP6/YwPLzsd0Tu8TBKYU9/meD7dX1S/+ZS1+Nl5KGvFS2Y2pPjxApNF+ZgDB33yLJO66I/RJXDBJXDZA4Q5l9QFFs4LPnJ6Ay5JCcyqVrNuvjLbamnLLV5zflmGcrNh8TKpFiDQk+e8V+mAXAEQqN2LhUSLb77+DV0CugRWTgKXNUBYObHqT9YlsAgJzAEQlCcoAGH+rVb9VObY7co+Pv0bBDgq4MYiGjj3rVW1SzfDLYus9YfoElhtCegAYbrEyy2ktDCrB7iZC+5qD5X+vrUngerN8Quexac9SoED5ad6+o1hnq26+raUj8P5fWvtjaTeI10Ca1ECax4gyLLqHeXUnb5spZ1xxpJnhhxoAEFZajUb63n4etei9uh9WqIEyDVASkf6NL9OKQ6HksuhXHdJx6fbBtj97JGlT9h96jyY/jPT72IT5nJVzIQpVQOEBRHOEkWpf12XgC6BZZfAZQMQ2FLJcSgHDCXPqbKQFtfqecRcvrAu+2joD7wsJCDLIgAJsmyEzCkbOPtTBLESIEsQYWDggbZrxSIgMfmIMLJ72TYuK/eSqUvmDOomL6t3yjDIEnuHBCOMoPfSZ0b2NAP9X6Z/03c5GMrawiaDLEKi/zgTOM4AI7WZtcCgAJvyNs87cmqMBPVSx9aXhY7rnVwbErhsAEL5yakIFtgY0vK48AlOG24dIKwNxb+Qvcikp/DNB/8Z3330GVx/6x34+G//Jjqa6ljwAG3UkHmM9h/Hv/7bY4imcxg4e4q5B3rWdWJyfAQf+fxf4cZrd8BKG7aYQe+JU/jJU0/jXGASJiOwYVM3Wjq3YOfWDXj6vx7Bv3/nSbTvuBr3/drtePCrf4dTI2l85JO/i1+/+2Y88dijeOy/n8XHPvVp3HrjdTAbDAw0cBARGDyFr//rw9jytnfine+4EW4TQQoCI4o9jUCCAnDIdaEAGLK4ybKhCHwUW4RqKWGA50JKXn+3LgFdAouRwJoHCNOFwc492umHnWgU461MJzBa8KqQHq1xBvpqySZbxbf0W3QJaBLI4eyZ4/jnbzyKO95zF95+4GrkknGMTwTAywaYTSZ4XBaEomls2LQB//K3fw+eM+O+T30UE4NnEBc8uHLnBlhkHoNnjuCBB76OXde/E/e8/064rCacPXMMT794FHffcw9qpEn8+Zf+f+y7+zdx1417MHril/jdP/k6vvLgN7Gp0YoTx44hnBJx1ZW7UeOwwcAAgAyhkMBrz/0YDz/yFBq234xPfeyDaPa5wWciGB0bg2R0gpPySOUENDY2IRuLwmiSIRuBRLIAp68ObY2NsBgV8KBcOjrQ54AugUtJApcNQFBAgIwCL0IQBUCSIEgybFYLjEYjYqkc4uk8JBU8zBxEbXGTYTFwqPM64bJbLqWx1tt6gSWgubfACejtO4P/+83v4c7bbsGVV3Thv3/6AobGQ3Bagb6TZ3Dz3R/GgbddA7uRxz9+5R9Q4Kz46KfuhdduhiAZYTZxgJDEv3/tX3FmJIWPfPZ30dPkg5RP4uiRIxiaiKO1ax22b2rCE49+D784PIq/+NLn4EYYH7n3j7D3tnvwid96D04cOQp/axfWtbfDyFScTvsSIqExHHrlBQRjeTzz/FF86rO/g13bNiDUdxgP/M0/QKpdhy09DXjjlZewYftejJ3phWQzYOc1u3Hu6CnA5sfHP3kvWhtqYdSyKhhOKEb9XuDR0F+vS0CXwEISWPMAQbMK5AURgUgaE+E4TMypK2E8HMXWdR1wO6w4fHYcvYE0eHHaAla+qDFpSnCYZezf1Ixd65tZ6rl+LlpIzfTPNQkwkMDxONd3lgGEO267GX5zGl9/9Bf47d//DK5oceBrX/kyfvJGDP/yjQfQ4gb+4Sv/iDxnxUc+dR/8TjtziXEQkE8G8OUvPQDR2YZPfPY+NHvsKKSi+MH3v4PnXz2N/e94F+66/VqEh87i4/d+Gn/wla+i3gI8/p1/w6nxOP7wC18Al0uhY/0G1Ht9KkCg0IMsThw9ildefQOd3R342le/huvf92Hc95FfBR86gYf++ZtIeTbh/nvvxgs/egQ/eaUfdXYPolIef/wXf4zkwFn82799F7d+8Ndww/69sDI3RJmbQTcm6BNCl8AlIYE1DBAUs6YkA5mCgJPDUzjYO4lwLIUNLT7YLUac6B/DDVdtRp3bjMPnggjlzBA4Ou8Ul/NZzaJmmceWWgPevnsdzEYDczfoly6BaiUggwCCYkF45603Q5zswyPPvIXP/cUXsNlvxtNPfgdf/OrP8K1HHsK6OhO+WgEQHEpwIkTwmTD+/n//HU6N5/C5L/4RNrY0wiAXMDpwGP/04M9wx6/ci+t2tkDOhvHXf/J5RF3r4XbV4e4bevDQQ99G7YZrcWD/Xlx/zS7YLBZ1EwdS8XE8+aMnMBzKorujAa88/wsMpV34x7//MvzGSfznt76HmH09PvHr70DfkRfxzcePoMXuRM4i4r7PfRr8xBC+/8gjaNm5H7e940bY1eDHauWj36dLQJfAxSGBNQ4QZPCijLPjcTx1eAS9YQEmWcDeHh/cViNODIzjht0b0ew1oz+YwkhCRDwrsLgEu0FAo8cOi5Fjv4ukBeYfpkjv9loXWu15XLmpHVaTEcbzILC7OIZfb8VqSqDEjZjH2bMn8C//+ijufNed8Jsz+NO//hru/9Mv4vb9W/DD7z2Cnx4O4st/+Xn4zTn8zV89AN7ixUfvvw/1TgfLQWDPkvI49uov8bd/9yCuese78aFfuRt1NXYERk7gb776A3zgf3wS+65ogUFKoe+tg/jIp/8Kv/eFL+O2a7vxX498G88eGsSn/+Dz2L6+HSYWHClBlgoY7D2JZ59/Bdfc8i747UAy2I/P/8XX8Ud//iXs2ViD/3jomxgXmvG5T9yDnzz+HZwJSKiTJbw12Isv/u1XEDp7Gj/4wWN45z0fxPYtm2Ami4cOoldT1fR36RJYFgmsYYCgMMrFMnk8fWQMvzgTRUIww8kVcHW3B26rAScHxnFg10a0+Sw4G0jj9cEkJmI5WE0ybtvVgKu6a2E3GTEWz+K5EwGcGMmwWO2r19Viaz2H7T1NzBJh1E0Iy6KMa/0hlCTIyUA2E8G3H/o6vvWdn+LG29+F3/q1d+HN1w/j8R8/g7a2JrQ0teP2992N7vZaHH7hafyvv34AWdmF9/zGr+KTv/ErMKqpi+TuEvIJHDn0Op548lmE0yLcDhPLgmju3IwP/uqH0OR3wQARkpDH/3ngH3Dv/Z+B02JA7/FjONs/gpvuuANOs4lZJcgNkEsG8Wf/888QK5jx0U/dj71X9OCXP/4+/ur/+ypczdvxO/e9GwMnDuIHzw9ix4ZWuJ123PaeuzH+5mt48HuPYsuVe2CWDNjztptw600HUGOjwEc9PnGt67bev7UpgTUNEMi90BeI4/uvDOBkGJA4I1xcjgGEGqsBJwbGcP2uTWj3WXEmkMbL/SmMx9K4orUGv3lTN+rtJjbqZIU4NBjDYwcDiKYK2Lfejx31Bmxf16gDhLU5L1akV1oGDfEgFPJZFHgZnMkMu8XE4lhyuTzjLzCbLDBbzOAMlE2QQyEvQCLrlcUEB224aiAtY1YmsEDPKwjI88ScQKd1DiarBSazWd34qTsyCoUCTBar0jdRZAG5BiO9WyNhkiFLAtKZDGTOBLPVxrIQ+EIGBZ6HCBNM4hQe++5/Imzqxv/44B1M/81mM/7737+NE5OT+PVPfgIeoxFWqxUmg6HE3ahbEFZEp/SH6hJYSQmsOYBQTFOUgYIo4ZfHR/HE4TFERSeLFfCbctjTVQM3naKGx3H1jo1o9NpxZkIBCMFYGm/b6sP793WxvG/F2wucmkjiu69OYGwqg2vX12F7A1kQdICwksq59p8tq8Rdyu6phPIpbIfz8m1MyxpUmBSnsXwusCEXH6F9rUzYpWyLMhZG9rmAaOAMvv3gt5DxbsJ9H/0QvHYTcskp/OeD38LpaA6/84e/j1aXE0aKO2BARidHWvt6rPdwrUpgTQOEZJbHY68N4fneKAqcDX6rhJ0tNmxscsFm4pBMZ9DSWMdiCE6Np/ByfxoT0RR2dNbgwzd0qRYEDgVRxpuDUTx2MIipVL4MIDSw05/uYlir02Pl+qWxeKrsSApAKAMGSrZDaZdXsnFKMIBxKyq5uwofRzH5RtnUNaBBLo3Z0mwWz0xA35Bw5q3DePLJn6OmqRO33H4b2pv8GO0/ix8/+VNE0gW8+1c+iG09nWogpUr0rKVPqjBo5aSqP1mXgC6B5ZTAmgII5YseuRdCsTQeerYXp6fY6otNdSbcckUDWvwOmIwGyJIMk9GIZDaHt0aTzIJAMQg1Fhm37G7EjnYPLCYOoUQeL52axJvDWWaWJQvCFQ0cdvQ0wGYxwaTHICynTl4WzypZukr1ERRHgHLR34IoI5vnkc0XkC/wyPEiMhli/lQAAP2OLwiw2awwmyh0ESyF1+kwwWoxsswEh80Cq5kyc5T3lNg8lPfMbWgoEZEr9zA0UmbxKLGPai4KJSNYfeIMKubFQ5LLQhH0TuoSuIglsPYAgrowiTIwEorjwWf7MJiywGYQsKvVjlt3NKPR52CUstqyN5VI48hwHK/0JxFNF9BRa0e334R1zU7YLQaE4nmcC+YxEM4jms7jqp56bG8w6ADhIlbsS7VpggSE4xkMj0cxHowiGE4iGk8ilckgX5CQySpUxxwng+dFFhtgs1phMBANMhjVstNugMNug9vlRJ3PhaYGDzpb69Bc54LTpsTVaFf1AEGZLdN5xIqQQ48xuFRVTm+3LoE5JbDKAGEOe2e1A1TlIYROV7wk49RQGN9+aRTjGTNcxgKu7fHg5h0tqK+xwazQxkGUgGA0iTeH4ni9P4bGWgduuqIJTS4TzKxWDgdRkpERgNOBNJ45Oo6ueg+2NRgZQNCzGKodPP2+2SSgVWIk1c4LEg6fGMNPfnkU/aMJJEnpOBOMJgOzBHi9bgYEyG1gs5lht1kZKBBFEel0FoIkgZM5pNJZZHN55PIF9pnFBDT4rdh7RSfuuOkKNPicRRfA+Y8KhVNOq2FSNIsoFg7FoKAjh/OXsf5NXQIXVgKrCBAUE2XFolK2oLBVbyFOwlkBwsxf0uJEAYpv9Abx6GvjCOWt8JgKOLDRh7df0YJat4W5BWjxIjNuIJLEG0NxHBmMYM/merxtSxOcjENeuWgRp+UwkOLx6IuDjLN+W70JV+gA4cJq71p4u1boUAZ6xyL40gM/RP9YCoJkYNkBDrsZNpYpYIDVai5uukaDgbnJ6CK3Fy+IRfO/IAjgBQmFgohsTkA2x0MUeXhdZrzn7d345G/eBnoSoz4oKwG9FsSp90GXgC6B5ZPAKgKEWRpdARBmOZFU1c+Z36PHFgQJr58exQ8OBREu2BlAuGGTDzdsb0GtSwEIdGkA4c2hGN4aDOPabQ3Yt7EF9jL2Iy2qO5whgNAPp82KzfVmXMGyGPQgxaqGSb9pTgmwysoycOxcEPd/8RGkedq+qWiTEW63HR63HQ6HBTYL/b4cSFdMIFZJkXA26Ws6m0cqnUc0lkY2V2DFyDiOx9uvasaXPvcBOE06QNBVUpeALoH5JXARAYTplgDN4rAQTWHZ99QfaaEkgPBm7wQePRhgFgS3sYADG7y4aXsL6txWmFQXgwYQTo1OYSQUxY4NjdjW1QwL+XSnBVrFsgU8+0YfTGYrWlxGXNHTwoIU9SwGfZotRQLMQiUDxwcjuP/Pvg2zzQWLyYRUJsfKPJtMZgYWyIJQ6/ey+AOyftntNuZmSKZSyBcE1oQCLyAaTYLnefaHXAxWiwE+bw1GxoO45boN+Px974TXWpEksZTm69/VJaBLYI1KYMUBQvkZh2RY4ZGsPABNE3G1AEH5GnsUBW/RXxyRG4k4OTCJR14dw3jWAjvH45ouF955ZSujUNbMs7woYTCUwOG+IJKyGSbOAItBomKP7IG0+VPAIz2XfpWnh0sS2uwy3ra9UwcIa3RirGa3NAvCW4MRfPrPH8auXdtx5637EAoEMDkZRXgqjkgsiWQyhWwuh0yaGD1pMlW67agqqdfjZoCittaLWl8NGmq9aGyshdleg//1wMM4sKcbn733nfDalJLl+qVLQJeALoG5JLAKAKESBZSvScUT+nQylTJLwKyAgvlOlS4Vs6rUHmopYGQZGAzE8M3nBzGUMsHMSdjVYsVde9rQVudkLG90EUDonYjjh68PojcswlfjQovPgt6xOGqcFjT5HeifSMLjtMBiNmA0nGHMdbdu8uCOPZ26i0GfW0uWQNHFMBDB733xYVx91Tb89odvYlVDJUlGnpdQ4CUIoghREiFQqoOq+KXZRVYFwGw0wWDgYDGbWHojy3DkOAQiBfzBX/4brtu7Hp/92O3wWBWAoMcQLnn49AfoElizElhxgFDM7NaCsdRcbFrseJ5oXbPIFXi24ZMZ1emww2gyMlY5Wgwz2RxbJK0WM5x2G+MtUBY1lX1ullMQLZr0nfFIGv/xYj9OToqAbMCmOiPeu6cV3U0uRiFLwV1kwu0LxvHD14bQOyUy4pctbU68eGwcLbUurG/34uCpEBpr7XBazTg2EAUv8Lh1U40OENbstFjdjk0HCNfu3Yr7f+sWuO2knQoYliSOWbBYuKxiPlA4ltQfS1wFSmEkKipG/ASEg4lgaThUwP1feBD7967HZwgg2GQo2EE3I6zuaOtv0yVw6UhgZQFChd1fo1oBEsk0wpEI85cKgoxkNs/SDclESutVXpDBGcywOx2MF14UBVhNHGocFjTWelHndStAoehamOnIoM2fOA2ePDyC589GUIAN9XYZV3fasbXVDbvZgFgyhdbmRkQzPJ54fQhnpyT27I56G473T8HvtqG1wYXTw1H4a2ywmY0YCKYYX70OEC4dJb/YWzodIOzfuxW/99Fb4HVwMKv7N8UosPvUgk8z+lTkJ9IAQsk6IMjAYLCAT/3JN3Dt3g06QLjYFUJvny6Bi0QCKwsQyjpJi1u+UEB4KopINA6L1Qar3Qq7wwlBliGIVDtBRjiextBEFL2DIQgGM/x+H5qbfHBYqLptCjZOQIvfja6WerhsVmXVLFK5KqcquujXmYKEF0+N48dvjmNKtIPiEuvMOexVqzmeHZrAdbs3sziCHx8extkpEa0NXmxudeHl4xNo9juwrs2LQ2dCjFyJSGZODMXACzpAuEj0d000YzpAuI4Awsdugd/OFYNpFZ1WuQUqInkqwTFZC+hilgeGoGWIMof+YAGf/GMCCLoFYU0ojd4JXQKrIIHlAQjapqzSuU5vN53mU5ksRkYDkCQJdXW1cLtc4IxUiBaM4IXcqgVJRo6XEc8IGJiI4cU3BjAxlUV9nQebNzSjtdENiFmI6RgabUZs62mF1+VQzaSavVWxudJiSlUYz45F8aPDIzgT4SCCqjlmcU0PlXs24mT/GA5cuQkehxk/e3OEAQS3w4ZmvxX940m47SY01tVgYCymxCAYgfFYjplub93knuliqILKYRXGVH/FCkigWr4A5T6tAZXm++lZMdpdswGE31cBAsu2nY2+eFZOkDIQUeY6oCDbvkABn/jjr2P/ng34zL3kYoDqYihH8erPFYFCWjCkMq/0S5eALoHLRwIrDhBoHYsm0jh2agA1Ljt6ulrgsBIDHGUHyIr1oAwg0KaeE4EMz2F0KovnD55DaCoFi9WMrZta0NnuZ1XlhHgMjkIK+3esQ22NU3E3sKp2SuEa+pncFuFEDs+dnMALZ6OIC2Y4uQIr9+y2GnByYBzX7d4Ir92Mp48SQBDQ3dqAK7o9ePbgENrq3djY5ccrx8bQUu9EjdOGN85OIl/Iz+5i0AHCmpo5Wr2kuTb22TqrAARNEdTiSuo/i1USp/n+lxcgKLwg5bEFGkD4+B9/Hdft2YDP3ns7aqoGCGShK/VnTQ2w3hldAroE5pXAEgFCWcCU4h0tbtDaW6nAzNGzY/jlodPY2FGLm/dvh81kYmZPsiwoAEFkFoS8BOQEAyIZCWeHojg3EsJUUoIEM0wmIzw1FtTXuRGJJRAKhCGnYvjA9V04sHs9TCaFgpZdanACI4wpSBgIJfH00WGcnMgxN8PeHi9qLAacIIBAFgS7Cc8cHcWZKREWswVeuxGTyTysRqDGZcNUPAe71QyTQUY8S3YIEbduJgtCV2UWgw4QLr3pNkeqrRY+U3FuLlJrznLSruh5SRGZSmgAge4pK2agbeLzAQSNr0P5qupiKE/dKcYeaJ9VvEIJ9iULQpAsCN/A/j3r8Jl73zl7kOJsVomiC0+3IFx6yq23WJfA0iSwNIAgM7KAkulR4W4tbtD06dmREF7rDWE0koOYjOPO67dhU2c9C0gkgEBWBF6SkC7IGIvkcPRMAG++NYTAVBo50QzZaIbBZITRCBaRTRdZBkQRsIDHXXsb8b6btsLntJQMoFoKmKwwJSZzAvpDKbxxLoiJUATrW72wm004PTCOfbvJxWDBL44N40xYAg+TwkZXCoEsIQ72kwS7QcDNm724/apuRoNbJErSAcLStPFCfHs+gKCN/LSUWiV7YPovS42f5lhQXF7lfSvb6DUgQkGIb6lpjpTF8JmP3gK/Q4tBKHeflTIP5nzmNBBC4FuLQdi3pwefvfeO6rIYdH2+EBqpv1OXwEUjgSUChGknqbKsBVrwoskMXjo1jJjRjWSOw8i5ITjEDK7e1oautgbY7RZQ8dpkTsTZ4SheemMQJ3sDSCSyrBSzzBlhtNlgdblhttnKhKYswUa5gPU1GfzOB6/Hhg6/ulFTI0rsiyyPXJCRzguYSuQQmIzAwJH7QUYwksDGrlbUOO14ayCIc5NZCDLLC1OvSpOEsl7KsBtl7FlXh5099Wq554tmPPWGLEEC5S4A8vuT6yvPi8jzAmRJgsthg4Wl4BJTp4gkYzrUogFLOkM03h4WG6MA4HS2gAIvVpJ2cETCZYDTZoGZgWXgSG8Yn/nL/8Ce3Zvw8Q8fgNcOptOkczarGU6iWlbblcrmWQZQZf1mKl9ugNtpg5FTLHSZXAGZgojhSRF/+JffwlW7u/DxX7+R8SC4bFTnwTy95FJJgjpAWII26V/VJXDpS2BZAYKywCoxALSoHj49hIGUBNHpRa4AxKYSmBgeQyo8hXqvC26nAZzBiHga6BuNIxBMIM944ynNkYPJYofZ4YTF4QRnMgGyBFlUKGXpcwOfwaZaAZ/84AFs7KxjBDGVFwUrKsVsiHqZ3B35gghBlCBKRD4jwGm3wmoxIZnJI5HJF1kTFWig2REqn0uLtt9th99pZWQ0ZWUbLn2NuIx7oAEEsnwlMwWcHQihb2QSwXAMPJ/HOw7sRldrLYsZDIQT+O9fHGYERsoWXgIIPrcFH3jX2xhAyOR5vHTwNAaGQxVBfjInw+e2Y9/ujehorWdA4sXDI/jyPz6J1pZ67NrWAAsnMKhLz7lqew92bulk6b3xVBY/f+EowtF0xWhRK6huw7tvuRpOm5mBg4NHzuL0YBCJrBnPvHAaLa1e7NrSCI+Nw94d67FzSzsLvtWoSKlaZBFea0EYl7FO6F3XJXA5S+C8AcJsKVeUVkW/p4VpaDyMI4OT4BqaUYAR+YKMTLaARDyHWCSFeDSBVDyJRCSBfF5gf/iCqJC8mC0MFNAfo1k5NcmyhEwyjkwqDk4WGI9Bd4Mbd9+wCe/YvxluyoNUoyCUASWzLG3sCsGMJFOmhAxRpD/Keki/M3EcjJRNIUmMVVGxzi7gbGaMdRzjRTBT1Uc9uHtNzCGmEwDGJhP46S+P48VDA4jEs0z/7FYD7n73ddjQ08D6Oh5M4Ps/ehF8QYm90XSOnlHrs+CjH7oNHCchkxPx818eRe+5QCn8gKmlDL/XgRv3b0VPVxOzILz25hC++d3nUVPjQkOdE5zEM5edATL2X7MFe3d1wWQyIRbP4Ec/eR3BybSqqtr7Jfi8dvzq+26Ay25ilosXXjmBE2fGUJDMGBqegttjR73fCZcFOLBvM67e1QW3zYSpcATZdBbbt3bBYTGxd2rBEwpO0JV8TSi53gldAouQwBIAgmoxVd2jBAyy+TzCkTim4mkE4gW8ORhA5/btIEtovkCLJY90mv4QgyKPqUAEgaExZFIZiIIAg9EMk90Oi8MBs5XI4o1FcJDPJBEJTcBi4tBU70E+MowP3bEfd928G/4aMueWTvxqGkNZbITiMVYY6Up1G7SlnSwPZGWgRbqai24jEy4FPNLCqa+d1Ujt4r+HdCCRKeCfvv0snj80BJ/Ph02bOtG4vBFdAAAgAElEQVRQXwOnQwmQtduUioqFgoRwJMWqJJYumekYGbua6r0MbpC+RRM55HL8NAHILLDW47Yx9wEBk/6hKP7vwz9Gz7pO3HhgB6xmWaFDhhIs63JRnI0BgiggEs2Ap4mlYmHtB5PZgDq/m1m1yL0WT2aRygiIpQR899Gn0d3TjBsP7IbDLMHjtsLlMINsBs89fwh958Zwzx17cev1W2BjrpRipIUOEC5+9dVbqEtg2SVwXgChvA4C/UxZCJPhGCaCYXAmM6yuGqQlM372yhH42rrg8LiZL5fq0qfTBaTTIiLhFAZ6B5GMxCGJEiw2B7MYGCxWGMojEmnjlgTEpoLMgtDQ2Iht61sRGziID91xLW45sJtRNGsLJEtzrFg0K4vaVC7omjw1hwL9u7qTknLXtKjyZR8e/YGrJQHFoiRjbCqNP//K9yCZa3DTjVcxUGCxGCoKG82mIWVxgYolax7UOLOOiAIshseT+MZDP8K2revxnjv2wW6lGAQ15ped4sv1tawVcwRaandTxlA4WsA//stj2LK5HXfdeT3sFnKNKA+VRA6nzozgR0+9BLfNgM989Dbs390Jo1o1crXGQH+PLgFdAheXBM4LIJQvU+THHxsPMfpkj98HKzEjchwyAoehUAqvH++Fp74ZZocNuYLIAEI8lsPQ4IRinpc5JFI55HnyLVCRejJuqhsvM95K4LNphMeHIcsCurvasX1jB0ZPv4zf/fU7sXNrj1KZce6g8uJGrrRbIVEqLuAsE2Na1Zq5FtzigU0HBheXGi+9NaRzlA44meLx/OERwGyF3+csFjRSghErTUzlIGCGy20G2ZCaeztLuiJ9l548PJ7CNx56Atu2duOuO66FzapUE1WNY5r6ljqrBREqlImVn5fF12oA4Z/+5TFsngYQqA90qyAYcOTYEJ788fPYt6MNn//4LaivcbCaDvqlS0CXwOUpgfMGCLSo5PIF9A0MQ5I5tHe0s3TEvCAhL0pIU+YAD4xPpfHyoZMQOCMMJhsyWQmhySQcThe6e9pZwGAwmMDIWAgi5WOxcw35ASRYDRKsYhZuUw4QMxgYHUNzSytsBhEdtRZ8+iN3w+dRSJKKloMq1rNKVjwVIJRbDnSAcHnNBjVtkZdlnB5NIpwuQOYoKFaxEpX4ChYPENgezv5XtolPky7L2AEwMkEA4UfYumUd3nPnNYoFQXNhlW34xa8Xn1uyZpV/xt7IUVowh8loAV8jgLCl0oJQ7Bs4FAoyHv72z5HPxPCn978buzc0FqueXlwKMZswys4B860BC1hbLq5+6q1ZVQnMoVYLtmEN69R5AQSSB6V5vfnWOVZt8ZqrtsJgMIJnKYUScqKEjEAgQWIgIZLkMTgSwbn+EPqHJlEQDXDVuFHjcyObySOVykMkcgO2zUswySJshgJqDBns6KnH9VeuY6beY2cGcPRkH3w1Ttx07S5s7G4qRlzrQVQLqrF+wxwSIMBIAazDkymcHknA4nSwjbmSeWu5xVdpUaA5NRnO4cFv/hBWuwsHrtuFliYv3C4bLBQ0yCmVGQloUOzLbBdzGhDYIMDDuEIkZPM8ovE0Tp0ewWsHT2D/tVtx44FdsFsUKF5hBQGH554/g9deO4yPffBGvPemLbCQUU8Dz1WA7+WV0lxAYBarXzlGqgYgrHpfllcy+tNWQAKLBgiaSblMmdaYXp0XQKDpORVN4fs/OYRsLosP33Mj3A4rIyUqCDJygqhYEAQZiZyIUCyP031BHD89gXhKBIwU6FXBP6SUpiWrAVeA1yKg02/Cdbu6sXtbJ3w1dmbqpCwDAiQWsxk2q6l45tfBwQpMlsvlkap5P5bJ4x8efg6BWAbvuvPtsFFSTAU158oJhLkYKJBX4PDiqydx9NgAMtksamocaKz3wu9xw2qzwmo1siwGB+3u040GnEIKlsvk2BykjIR0No9oPInQZJR91lDvw223XI0Gvx02i5LMWO5BoHyJk2cCeO7ZF3HXO67E+2/fCZuJwiLVVW/VF785jmaLXsirHTvNZ1Pt/fp9l7cEdIAw6/hTznbfaBgP//AgglNp3HnzDly5uQ0up42dxHJUwpmYEcNJnB2cwumBSYwEk8gLRIdI4EB1I6ilaynqwCwX4Dbz6Ki14qpNTbhyaxurrGgxUyZDGR282qK5eO0vb4XVe78oCaguBPorlMjiD778GMbCUXz2078Ju1VSYmFWIcVPi0HgJSCZ5jEyHkMgMIVINIF0Ks3Sf3me+DsExv9hhAEi5eqWXSybxmiAJIqMW4SyH8jy4HDZWdpkXZ0PzY1ellrpslF6rlKvoRIgUCn2PGKhSexc34itPXWszPqFtyDQCJXIz5RYkOUGLRorbNl7ygW8YqBkURqr37wUCVQ5htXDxGkAYdUB9FKEUd13z8uCQK6El48N4KeHRtE3MoW2ehfWtXjQWu9GjdsOERwmojkcOxtE/0QKyTzAGYkJkYMkiZBFEQajwj/A3AnIocVjwvZ1tdizrQM9bXVw2c1F4qMqx7W6Hut36RLQJKDGHlBmSzCRwR98+XGMT0XxuU//BmwWhZCLdtDlmvezhhGoAbOsuBjRjtPpv0CcHBTjIyBDFoG8wOJ90pkcAyzkOigUKG2y1DLOAFgtZhg4A8wWE6xWM2w2CxwOK2xWK4xGDhaTDKvZwP4wNwVLoZzeOw4emwFd9S64rRwInytiWC4pLFb9ZluEy9IvV2p0pu8S+iK02IG7eO+fNpZFO5VKDDZ7ltIcmUlzoom1oTDnDRCeee0UXjgdQSRrQDoRh5RJw+8yYuu6BrjcDmQ5O944OYFzoykYbC6mLPlcBrFwALlMElazCV1tzfDbOGzv8eGa7V3Y2NXA8sIpK0GPnr5459daahlNY1oXAvEM/rAMINitlSf01egzpVkSWOGpeJlIQEABDRRPQBwdgigqpEzsPuVetnmz/1GMAseygihWgSNGRJWmmeYS0TqbTQp1M6UvllhHteWQA7E7klfFZzeip5HIlJR5qDx/NSQwxzvKPA3sx6LrZ+UbpnV7MRU9L6Ck9FdXI4H5AMIcYHjW8Z8TA6ydqMXzAghUx+BE3zgefuoQ4OlENpdDcHQcDR4brt/bA6vNjv6JBA69OYCJcAZ2Xx1jKpwKjkIspNHU4IfDLMMhp/Ab77kB2zc2o8HvZu6EudehWbINqlEG/R5dAgtIgDZfAghkQZgIR/G53/sNXAiAQM1kZF6QiqCAlhoiW2LggQXqK5t4ib1RDTZUg/i1cudsY1ezd2lOkWWBKJs1NvJSQciSDYHeHY3lMDkxjqu3tmIny2JY6WDN+QZnpo+X+k+/zRcERrxGclnOq7TmE3umCQ6bWXHFLOdL9GddMAmwDLYy95SmTwwBE9OuRGy6xL1DxHk00Ur6xdx7BgOM5MIjE5xaCkUiYK1CdeXvyxwgUPeJxvXR/z6EJ18+i6buzSxtMZ+JwyDlWbpiKJzC+HgUvMTB6atVyJSCg6j1+9BQX4eN7X4kht/An93/YTTWeRawGChLo3KM0afqBZtda/TFFxNAUECCSk+qJjow7VfWI2UeFIuoqnNhlpOMMlPKqkSoz6JFrvyqIIqWOZw8G8RTT/0cd996FX7rvftgZbEKqz/3lC4pdS7K5zzJJpUXcKQvhBNDYRTIE6RyOcymnqy3WjHMeZeOciEq9NbrWry4ZlMzvE7rnJkja3RKrNluFQGCOp/I5Z3JE7NvHpksj1SGZ3tblhVY41m2HmkD6QO58GqcNuZGr3Fa4K2xw6mkA6n7EwGFOWJYLlGJnpcFQTvphBNZfPeJ1/DswV7wRjtcPj872SRiScSnEsxESmmLVrsJBT6HSCyKtvZOdLa3wG8X4RKC+P2P3QOv26GIb0GTzTwzfG24fC5RNbp0m625GCbjWfz1Pz2JsXAMH/vIB2GzKCeJ1fS9V2xR2rtVy0GFhAnRaHZ/deNXDzDqiaeM+KtI20h3UD6C+ha1booSh6BNPwOOnwzi8R/+DO+97Src94F9sFOQ4gWIP5htOrODSUHA4XOT+PmxIEYSEkTiq1iWQ0NlkCIni6i3i7hxSz32b25khdkYVNHPJ5fuZFfZUoncL5MVEJpKYHIqiWROQCJVQCZH9Xo4iLIBEgyM34f+VgJk6ScZZk6EySDAbuFQ57Who9mPtqYaOChmTqXeXx59vDjEfN4AgZpP/tFIPIcXD53BobdGcG40jFSWZ8CAqsKZDUBjrQtbN7YiX8jjpUPHkCrI6G5rhJiZwq++++24ef92xqioAARt8Zo+C6twL1zmAIG6T+WJiXiKShKzPH79WlACGkDIFCScHJzCYCgJX62PURyvdjFDxb/OVrFKfgJZcReUrJ3KZjbbxi1JkpqdUBp/5XvKMxX3ROWeqgEhgvMnTwbx2OM/x123X4l7378PDnMlzfSCAl2hG6jHWV7EobOT+NlbExhNAAJHhdyW8cSmCYZZTGQYJB61VgE3bW3AdVsa4XVY1JLyK9RJ/bErIgHGcyJSsUAek5EkApMJBCNZxDMSMjwBAU2HDEp9vxmWas1xQBYtZZ9S7FoSnBYZzbVGbOquQ3N9jVI+fQ0tvUsCCMriKrNoayo9OzkVRyKdY8QsLocVXkqx8jjQWOdlm9fpcyN47cgpZNIZ7NjSjbfv381MNkV5qgtZBQIrmm/KpF5pDaxUqtJxaKayzTZw0591CQ1ueeAMdSOaymI0FGfpob7iiecS6tCKLA/zPFQde9p8KCgwnObROxGHgPliYRZqZNkOXKHYC49D0XO5WMuFNm+qWZlmBdKKC4GWPcWC8HPcdeuVuPcDqwUQNBfG7LKlT+OZAl4/G8QvT0YwmpIhkOVgOcGBgqGUq7iGEDeLgDqbiGvXe3FgazMaGCeLbklYaBas7OfFmTKv9YjuImtBIpVHaCrFUu3DUR6pnAyehRcQIGDsY9MGvsrWM0OeYlGodRmwocODDZ2UgWcpFg8sqpQ6N8vT8+cC+VW+fVVuWxJAYC0sy0mmoA4KYCQwQEFSJiPHgqPUZHKV6KjATrkOSsOajeyofOynnXQqJKKtKXOtLYt9jrZALOinpAcv46llCcPMlE1TPNrkZJkBhGQmj/Wtftgp7W0Jz1/zX1V1RLG+yJiI5XB6NAajxbaEU4AWP1B2gi/Gzyyf8XHGPj//HlvVUDKAcCqIxx//Ge669SoGEJxmlSZpYXxT1Ttm3qQFgqlVqabdQGtKPMMzcPDMiUkEM0YVHMy3OJxnU8q+xsSpAi+DJMBr5XH9xloc2NqEesq0ogyRFZPJ0tu/1p4wE9cWA3FmBQlkxaZYguGJCIYDKQSjeWQKHETJCBlKleDZMOHi5aZYm4wQ4HEA23p82NhZy1wOClMpPbFyFb6UOHzOGyDM6KSaU64mV6tAXGGIKyIlukedVJfG3Jp5GlRiqJXWX4g+KOZgJYq9OAZlMs2LMoYCESRSWWzf0A6rtu7OenJc/HRYa99QZMghlefxw2ePo28igWuu2ck4AxZ3KfeXxUgv7uvndfcyoIJpm+IJBhB+irtuuwofe/9+BSCsqKLPVEztN7QFRJI5vH42hBfOTGE8ZVDAgXppGRvnJbo5v6SNo8oRoYIEThZQaxNxTbeHuRta/c5SnYzlbYD+tPnGplheXdtYlFlXqtLLMasBWQwGxuIYDKSQzNHhycSCDWdj/liswEuF2YqKyHJrjJyIejeH3Rvr0NXqhZmRiChhwIpLQts1KteWCxHjU22flwwQple0K01aBVlVMqApzSrRnFxIApYqRVQ2lkXdLOlFlQ9ZnttKLgVlIxIECclcAU67lRHaEGKlSUCBXG+eHUdPiw/NfjeMK8I8tzx9uhieQuKZTGbxha/8kAUpfuoTH2LlkKu/SkpSSniq/tvnfecyB0lQLyYnU+jr7cM12zuxf2cn7KsCECrXCfoXo3NP5vDq6SBe7o1iIqXEHJQkvVL8DJUAobQZ0MwS4bOI2NPlxtu2NTGQYDIUiajPexj1L1YrASriV9pqlf22pBEUu0txBkPjUfQOxxGKC8jxJkhFhLs8B7vZ3ATKnkYFBkV0Nliwa3MDS5HNZPPMBU8XWc2dTisjMCO90XxaaxIgqDu9MrKznjBmObIWrQwqUCjfuKrVkVW7TzudKfiPlcW9iKwf1Lo8L2IwEIXFbEB7o48MZ6ydRPEzEUlhLDiFXZs7QPHXK3sKXLVBWZEX0cISZDwI/6UyKRLV8vxESRXEKWyj1oIIFbdPBZfPirR6jodWxOCUpShU2QZyEdoNInqaalDrNMNsWukgxdI6ocmUZlwkXcArpwN48cwUghkDeEW7p/WC/r1YS88CgpjTKKO8pxwk3HhFM1p8ZEm4BA46VY7/xX3btAjbMnVg4CDH4+zAJE4PxRHNkNuQdEaLMSgfWO3wWuYGVE3dbJ2vMgaokjxJ0Q9afR1WGW21NsiSgHSOR4FXAoctZg5elxUtjTVob/QoHBtaOfeLVPDnbUGYCyBMH4aZ+EERJMs9n0ogEM1ALA7iXFIqXwiWsihM/+78z6L8b6KdbW/wwGZRC+RoTZwF/6zmGNPrKYtkKpnFRDiB5lo36mucLICKgQdBxBu9ATTX+9BZ51C9YHOufqvZ9IvuXRU8CCrV8qIAgkquopg6Vzc1cjZhKlwHqt9zkciQvum1cehucMFJxaFW0deuLLgyEpkCXj4+hJcIHGTJu0sJZjMNtBVYSIUP5wsXpoepaVtIUb7Fw4EMoyzBZxZwZacbb9vZiSa/m2Vtragn5qKbNRdPg2isCByc6gvh5EAM8RxlJmjgYHo7aZTK4xfKD6sK0Js+h6tj0dQ0jzl/YTQQA6qspklqyqO4IVxWEV2NTlyxqQU+t/WiZg1eGkCYRUcWBAgyFcGhYBEZr54Yws+PBZDkjZCYyWX+a/qCsND9832+MMyQYYGA7W0u3L6nB7VuRxk9bZW155fSwGnfLV+wNCMb/Y6C6waDxDkhorvFC4u6UAkycC4Uw2QgjGt3rIOJCU+jxVkeU9sydu+CPooC4QJxKtb0OCYWCxAgQxJ4RGIJtrFRHZLSpRAVlduiNA5ExS41/2flWFQxqGv3a9+kO8o3Jgl2k4zG+lqYzFQUjQJQqt+2GOgUZTiMMja1ueF3lOd2r8QQVaJs6l2uIODYmVEcGc0gSusCZyz5l1lXFCaHIp9DRbMqZ3W1GF55nvLd0hpT+mk66CDrEFWedRoL2NJkwd4tHfA4qNaMeopchMxXQqpr65nl0p8JCZnOShLeOjOBN89EkCyQG6pYQKRsPBWpzDcbSjFdpZxiDTBoMp3bHVBqp+L5IytiOQ1ZyR3CyRIsRgE9jRZcvbMDNS6rwno6NxHQBRvSCwAQlEWOFqIXTozivw6HEOONkDl1UC+YKGa+2MLx2Ntuw3uv6UK9x1GRA13t4rNc3aH38ZKERCoDt8MBi0nZGBRfbRaD41NobfShyetUaT2AYCKN/qEQtm1ohcdmYXm7mqF0ocmyXO2+FJ5TAgj/hcBUDJ/99MJUy8VTBSuwJODY4CTOhbLg2clFvc73OFu10DSoqIA/Mn83OSXs29YBu0VJA6zev6mcnPoGp/DcL17CnTduxwdu3VWs+lh1kxZ1oyKgUoAZEMsU8JODfTg8lELOYC8t6WUnj2rtYNXO0Wrvq+yaDDMK2ODj8J79G9FM8071K1Uv80UJ6zK9WTsaVeq6tt3TQXMsGMfLxyYQShA9MgFj9SqjyJ4+xtpTSecZtbJW30R107K3cUoWHtu8yymXZwWAswGEysxZqnWitZuIuKyGPLb2eHDVtlbYrZRarWl29aB+pZViaQBh1plVGtBZA7bUOAQCCM+dGMPjb0wixpshGy4ygCDLsILHnnYL7t7bgQavk1XEm772r9ZQklQLooje4SCcLhfa69wKTuY4FEQJR8+NweGwY1NrLcwq9SxF5p8bC6O+1o0Wr4sBh+XIwiBrhcFgXMzh9Lz1WJu4ymRdAWkTczHFICSy+OIDT2A8HMcnP/4rsFvmikGYZnuSRBR4EUeGIjgTKqAAdYGqOPjMtsidt0hmflF9FxnjWxwCrtncDLfNxMo+L7hZlc1h2qiPnw6wNMf33baHpTnaCIiugNiVTlQCBNLNqZSAJw8O4KXeGHIcAYRZrtlMibOZBKsxOZb3rXw9WxDcKQBhW70R77tuI9prHavqjllG7bnIH6UOBPtLi6kp6U0kkcGrR0cxGCqAl+kQREBXWRfVb5Q0TX0Uq5oqicgJPLKFAnIFHnleYFZYSZaYu8hkMLGCgnaLFQ6Lmf1s4rQCaNNEVjHXp4fFlH2oWsA03SeQ4HMIuG5nM9pb/DCRwa+IEVZs0i1qvJcdICi5+XMkAqqdp1uI2eqXJ0YveoCwt8OK9+5pv2AAgSFcdUjp71Aii5P9E7h2exdsRuWESAp/LphENpfH5hYf7FS2D0BOENA7HoHT6UBXnQIQzvfS2kEpRFNTcXg8boWHXL0W3IgW/WJC9RSVnEcyk4XL6YDTRv66RT9o/i+opQ0SWR5PPXcSQ+EErrpyO8zVpjlKEkurmgEQtLcWj7vnd05dTG+N8kyAUFW5am0N5ko8CO+9VaVaXvEshlIPCQyGGUAYKgGE5R7vOQU6G8KYX/pm5LGtzoC7929AR50D5lWM11iMXlya906bL2U4QWMVJWB+vHcch8/EkRVVl1rJ0VPmXlAmIelXjucRy2QQz2aRzmaRyedZlVTmZFIzC5hllthMiVrZaILDboPbZofH4UCNww6L0ViqckrCnc08UUQn8817Apk5bOtw4Mor2uEk7gRt7ywSKymjV4EtVnFAzw8glIGi8rRUMrXyVNyiaI6ZRTjqPOSMJrxyKoDH3yQXw8VrQZgLIKzGGJEceVFCLJNjFJ4uqxk5GXj5zbPY3NOqmDXVkjbjyRxC4Sg2t9TCaVM2bgpU7AvEYTJZsL5JBQjT0W4VHdHGk/zDw4EYglMx1PlcWN9WD7NJsyQs40rOQJHMCqWMBqOYmEqi1uNCR5MPdqvCUraMb2MnjrwgIxgvoDcYh8FYMlMuGHQoSygU5gEIVcj3vG6ZZWppAGHf5ia4mAWB3AzTKxHO3Ag1KmZySRSJkm5RAILDsnq1GAgQTqZ4PHVwGC/1RpEzUI0WOnCQ2bEM3k4ffA2ELQMGW8z0MMsEELgiQKCAzmUHsOelHGvhS6XBLKWaKgNPn9D6MBnJ4JUjQxieouzHsjmrbqmamihMqRIi6STCiSRi6TQj86ON3mq1IpPLwWIyw2l3sJIAtNYm0mlQmSb6PRVtEgURFpMJHpcT9TU18DrIYqTysRd38MWzLBjkApp9wLU72tBEh7gyBWKHrtksWaxjihRWmrRveQACncLIFxSK4MzoJASekpJoWGbOWFafjTNgY3cbzgVS+OGb5GIwXbQuhtUBCJVyKv9XXpTQNzHFggzXt9aDl2UcPzfBUma2dDYxN4PMcZhM5zAWmMKGljq47VY2Rcj10BdIMF/0ppYaxYKwmBVQXWdoglJK5UgojqFQEpIooKXWhZ6WOtjId8Y27GXYsottUwECL2EkFMVQUOlDW50bnU3eYlnw5bFaKGReVKQlkuFxdiyOgkx9UlKq2N4zn439IgYIBhUgVLtdKC6GMibF918Dh4XSHJdhbKtoRAkgDOHF3hjyRYDAlLz0hLIf2fioB5LivFlCexczPXSAUMWgLuctRSsCxf1IOD0wiUOnwkjkyWKqudPKgIX67rwgYCIaQyAWQ54vwGG1wu+ugdNhQyqTQyKZQGtDA9uXYokk6rw1SOdyCMUi8Ht8sJktSGYymErEURAEOKw2tPh9qHO7YTWViLvKcEL1vZYF1NglXLnRj+5WH2NgNKogoWLdma6Y5XWLilbK6l9b7Z3nBxCmP51OYGTu6R/Dsf4QPDVO+Cjqf9pRj/qUyuYxPDGJa7ZvRDiRwxMEEAQdIKhbUUV8Nq2DvCRjKBij2mLoaq5FQZbxxslh1Hmd6GmtA6knuRhCqTwmJqewsbkOLpuVHbELgoRzAToRm7Cx2X1eLgbSPTLljQYjGApnkOcl1LqtLPXT47TBZtEAwjwqV60ClyEjxQ0lIZHJYXgygVAsx0BSZ4MLnU0+ZrlYnksFCKKME4NTOD4YRX1jPczm+QBCeUMvkAWh2PlSW6ZbEGYChPkHgoyqR4+P48knnsHdt1+Nj9xzNRxmlJ2KVxYozAAInKN0QJpl52a/kgGjzMNikFCQOEhadcclgIRq9UoHCNVK6nzum/2ETGtCKpNHIJxC71Acw2EBvEQBfpXxCVpOQEYQMBwMIRSPM86Beo8XTV4v7FYzktksxoKTaK6rhc/lQiKbQySRQJPPC6vZjFAshmgigY6WVljMJgYaApEIIskk29tafH601dfBXJbiuvgZQqmPAmqdEpprbWhtqEFTPYEXy/zAvPwUuQyWs7lGaHkAAsBSvN44PcjMz60NPrQ1N8NsIrNPKeeUAkAmI3EcOtmPHVs3IZbK4ckjugVhvukjyrTRi2yRpk0xI0h47rUTuH73JtQ4KCiHguxkDEfziMaT2NzshcNKpmXFxUDFh6xWG9Y1KO6IxVoQKEp4MpbCubEpJHMyPE4zWuq98NjNjBmMiHQWNPlXCxDK2seWB+YzFBFL5zEyGUckmWcgYWuHD8113mUx52rmy0SOx9899DQOnxzHh3/tTtTXltLW2GJTRqRSYRm7UBaE+QDCpma47CYWSFppAZk+EOXuBiV18sSpMbz4/Cu4+7Z9uOumK2CngomlyKnzWemr/s6sFoQ5V1ylhoOJyjI7DOhodCtAMilCJMZFcq2cF0hQVltFUvMv9zpAqHpoF3WjNgJKVL/iWqKfiJFwNBDFuaEwY0lMF4zgRRM4xpNRmcNIuw5ZDvomAgwckHugraEejR4vqx6cK+QxODEBj6uGAQI6tUfTZCVIotnnhdNmAx9dFq4AACAASURBVC+KDFyQi6GrrQVWoxE5nqwRUUxEIpAlCR319WirrWUBqsq1kNbMJgoqCibBZFQ4ElprbejpqENTnRtWi2lGkPAK4oEZjVsWgEATO5zI4LW3zqGQTaG9sRYdbe2wkL8YSolMhftAQmAygteO92Hb5s1s4X/yCMUgXO4WhPnnj6YQBBYGJqKIp/PYtUFxL9BFm/iJ4TCrTLal1QcrIz2QWXnc3rEwampc6CAyl0UCBGbxyeXROxpGIJZjfu32Rj/cDgucFhNLtaR5QXEn9D6ziZR58Rha6z31ky/wTFdoYhDRiCDRRJcQT2XRH4ginhXhtcrYvakNDjZ5zv992ntJf9O8iH96+Dn86BfH8f573oGd21rVtFBqjaECIFSyKF5oC0JJd0oWhGY2VjMBwux6Vk7hTVjAbjSg3m1CW50TFtPqsXDOAAhGikGY65Jgknk0OTlsafOjxmlBOpvH8eE4gikJBVAMRvVhueVxU1qtk4WWeh0gLGrfr/rm2TbAbEHAmYEwjvWGEc/SrqIRIakAopwJUU0JHw6HMTQ5CYvRhPXNzSx2gNYrWq3Gw2GWwdDV2Mg2froi6TSm4gk0+X1w22wMdGR4HmcGhtBUX8uABL2tQO70qQhGw5Ms82FDWxuavZ4yur/zXZPojSIr/OS3y9jc7cfGboWyuVyVLymAQOPCmOgiSRw80Q/wWbQ3+bGusxN2VvZSBicTTTEF3MkYmQjj5aPnsHUzWRDyePKoDhCqmTkMQQsCBkZCaG6qhcdOBMrKleEFHDs7glq/B+ua/DByxOAFBsD6RkPobK1DnUtlU5zFVMtwQ8UJWXku+fkoBqBvPMZiACjuoN7nZC4MonemhTSbKzBKZzrNtTXVwU58C9NSjKrqnwyWbjQ4GkBe5LCuox5Oi2IhIdInWiAmwkkMhWIQJaDTb8WGzqZlcTWQBYaXODzzymn872/8FE0tLXjfXTfA5yWiIJXSqIwhsXxDpX5f0CBFTbgcmdoFtNh57NvSogIExZI074KijjtlFZHZ1G2lcXaixsrBYTWwkxWNwXIAsYX0oFqAIBPRDCeihUrsNrmVkvFsMkjI5EScGU9gJCaAZyWhq1usy/n1S7FhJcIcevp0GegAYaERXfjz2dYdxXWkaC3JnMjgzvRN4o0zIUSzZBUr9/urgYtaHAqnZCsEY3EMhIIsyLursYHFDGhF3BMUXxCJoNbjgddJ66JiqyALAnMx+L1wWsmCqMydYDzOXA2djY1wqIy65OodDoUwHonAZjJiY2sr/A6FyXYxnPyzL8fEaSKwVOuuBjt2b2mBt8amBDCWxR5Up9kLj8F8dyyLBYEGYXAijBP9E7ByEhp9Lmzo7oDDbmXIRzNkkv9oYHwSLxzpxbZNmxFN5fGUDhAqxqe0mNMWr5rO1DvIgkCI1WQ0FJVdgIyJaAqReBodjT54HFaGZAklj0wlMTIawlXbupgSs4V+Hm0oj9gnPUxmczg5GEI0I8DvtKKtwQuP0wqr2cDaQOBgMBjDeDgBmwnY0N6AOuJbUOHuYhSY3jcVS+D0UBBJ3sA47te1UNCOhc1SisVIZgoM8FCuvNvKYXNnPctuWGrkOPWbBSmmyM3wM7z0Rj+2bF2PA/uvQEMd8V9QtLIquGKn1AVsoTTHpc3Pub9dvrKwlZTY/QS0Eg/CphbVxaAABGWlU/jgi2uv+rMkysx0OzgcZAGJ1+7sRqOPLEQGlranyHZ16KOrBQiUP15nl7Gt1YM6p2LFkojzQeSZIKZSIt4aiSFcoEI92rZQ7UAorgtG7qyCK4kOOBrVcxng0AFCtTKd6z4lGLkYaMIOmzJEUWJB7/Q3fUrl6196cwwTMRESKENL1eMisVBpj6FVM1XIo38igEgqBafNjta6WpjUbB7SsWgqydwHtTU1LH5A1XCk83kk02n43C7YGBOpMrGIMyEYicDF0hydRcZD4lEYDU+hUCigwUuHsybYya1OhwkF3SwooDnOayo0ISBcwPpWJ3ZubkKtx67MR7Uvc393wddWfcOyAAQimTg9MIb+iThq7Gb4nCZs6OqA06FRSCrt0QDC80fOYesmNQbh6CTiuothBkgoJ5QtrvEKtFbVlsxsQDrPYygYhcthRVtdDStBy2QtyXhraBJU5HRbV2NxE11IZTWQQJNzNBzH2ZEpFkvSWl+Deq+b8fOTRY7cGiOBCPqDCcbh1+C1o73ew+IiCDws9iKAkMnzGAxEMDqVYV/vqHWgu6WWkZTQxKZA2HA8jV7KlJEMLPd8fXs98yku9ZKYKwPoH0/goe89jyOnhrFxQztuOLCLbayFApFDlaiLGd+6kYPbqeQuH51OlLTUBlXz/WkhBQQQmh0CtrXVwiRLAGUxALDbjHA7rTAaKNRVRjyRRTYnQRBEJJNZDI+GcOpUL1rrnfi9j70LnY0uUBjLahchmhMgTFsJDbKIVpeEbW1eGMQMS1Uzmq3gMykUCBkbzDgxGsdoxgSxSoBQOsnKsHIi/DbAYqR5BExlZeQkmkmVcQ06QKhGSee+R+PMYSWORIm5iBKpHGKJHHIFxXVHwD2VLWCYSMgk0ufKuV6O21lauCxhPBrD8OQkzEYj4y6gv7WTN8UQZPN5li5tMylzVwMCWYFnvAhuq1Vxl6orLVms0gKPXL7A+BAsLLVbCW4md8NUMsX+3dPYhEaPp+j6XbrVjXonwWESsLHdhR2bGlHjsrG1XE2yUjmHVs7psCSAoE0qWtiPnxvBRDTDTrBknuxub1XNzSUFoU1rODCFl49RDMImxJfbxVChLWWKOe+xeY77VCbF1UlzrG6ilZtBSbPJcjM6GWemearmSHEBZCamNTKeyeP0YABbelrhpZz46l5RTO2jyXC8fwJTaQF1bitaG/zwOO2wmWmRlBFNZph1IVWQ4Xfb0FxbA6/Tyih+lX205MGdj0tA6xMtvuSCSlBAYjDKqis6LEasb/Wjye9iKUikP9m8gL7RAAJxAT6HAZs76uFxEbKuuoclSZTpC012cl3keBmnhyJ4+sW3kC8I2LZ9Ew4eOYPh0TDjRyhNehl+jw3X7t2IhnovDvWHcTpYxqRYrbyXct80gEAuhnorD0shi9GhccgyjbuEDd1N2L93A0vrIlKYp58/jnMDk+zkk8sVUMjn0Nbsx437NuHmfZtQV2NRKZZXbuGZrduzpzlOu5NZSkQ0OIHOWgdSsRBaGmpR43YhGY9jIJiEx+vFWCTDCj1JRQPy/IJW2PeUk5/TJGF9vRUNLgp2NLDsncFoAQXZUnEqnAkQKOPjPPRwKTpwCXx3mpoWW0y/p/lPJZoD4SRGgklEEjmk0jxz+RFol2QCtWRBnAkOpnedrBHJfB79wRBiqSQ6GhpRX7Zh0/vIqpDKZtHo9RatBJqFO57JIppMot7ngdOipIprn5FVIjgVgc/tZhkPioVAqbUwPDmFicgUGjxerG8qxTQsFSBoa6OBE+F1SNixzo+NXbUsA6MM18xKJ7BcarFkgMB8N6kcXj0+hLF4ASaTCVaDjBoX1S5Q/AtMyCpjXTKdw0RoEvt2bkaCAAIFKS5XmqO6nrGUafXnSkHOIrbpptqiVihUyxcTQKCmFUECx7ETdSiWgsdlY3EBmqmdUO2p4TCsRjL715cVyi0V+6mYpeUzQRVdOJbCsb5xiAYz2v0OVhXSaTOzaF1yc5wYnMBELM8AQVu9B363A3arCWYjkExn2Xh73U71NWUm6rI9h8yJqXQWkiQxpkTSFOpTIl1A3/gkUjkJjV4r1rf54bRT+VQZgiAjEEng9EgYlOnY3eRFR6Nf8ZUvdnGeNvYkHfLFZwsyQrEsqxAnyBxeOngaQ+ORCpcP6RX5BfftXg+P14XnT03geGCVAcI0dSaA0Gjl4TNKmApOsvbSeWtdZwP2XdnDAIIoSPjFyyfRNxJmukRybWuuxeb1jehp8TLrn82ixB6s9jVrmuP0ZrDTkwSbUYKNgnFzcexY14JajxOJWAIHB6KA2cbqYxDgtBkBm4WCXhVwx/MC23jKL2W50LYxGSZORL3TgPZaF+x2O9IFGWcDSQxF8uA5SiFWGjUTIFAcx9KtWast95V8X3G6z7CHywyQRxNZnDoXxOhklgUf8hIFBGstKrl2FqJGI12mYZ1MpdAXCDCXwobWFtTYHcqJntKmZQmBWJRZslv9fpjL6P1pz4hSkGIiyYIRKUix3K9I8V9jk5OwWixo8vuVKAg1JCCczuLU6DDsZjM2tLTAY7exXIblm0GkkwJaaw3Yu7WZpUEug9G0qmFfEkAgAdKkHo+m8dSrAzgRLLDAIPLfkXmSjXO5OYSli4mo4bK489rNSFKa4wrEIJy3b0ZhiVZiTC5CC0I5QKDFjvnrJDJ1qxX9aJJwHMsoOXJmFPu296CmzHqgLIIln5/qXlYURdVmuoee2z8SRn8wCrvNju5GL+o8DoWgiOMQiSdxtD8AQTaj2WtHU50HLpuZZTUk0hn0jYTYSWpjRyPblLR9u5wZjGSczuTRPxZkWRAdzfXwEaCggERexEQ4zqpUmowS1rX40VrvZe4Talsiw+PY2SHkRDDrwoa2OgZUFg0QtCmiAUtWrpl4JcidQX5QhWyKrBqZvKAk7JYBHAJL1G+qefGzo+M4OnGBAILaJgIIrU4eb7+iFbUuAnMKJazVQi4GMzO1EhhLpgvI5hV/vclohN1mYpHSDrOBZS2YjKuXuVC+Ss2Z5jjLhCaQQHEVdimFPRuaUee1IRFN4dX+GHjOCLeFQ6PHgVqXCTYzuQuUUDRyGdB7lEv5oXSeKBqVYYLI5GY0WiByJlZl8sRYHCNxicWZ07cYQKgnquX1zB1GcrsAuKqqhf6C3zQNjFNGWzCSwvHeEAYCOeTpkEhyLYL8xVmvWByRLGM0EmGZCw1eL7rr62A1mYtOiQxfwMRUBHarDY1ecgVoNTyVNZ9lMahpjnTgKm3wBFwkhGJRZq1trasrZj5QezO8iFMjw8jkc+hpbERzWUDkcsmd7MIui4jt6zzYtq6BESqtxrVEgCCBAniGp9L4/ot9OBESUCCEXTbpFCFL6qbLMfNgkyWL9+7fuGIAYVkEd5EChNn6pk0l+jtdEPBW7yg2dDQx0385ndB0Y8lsCFc5RUt4qy+AyXiGWQZ6WuvhtpvYAkjjfXZwHMPhJAMPXY1e+GocsFuM4HkeJwYCmEzyLOBtS0ct6rxutmgyaKK6HRT8JSOWzOIUBSXmRDS4bdjQUcfqLfAUSJTM4exwgG3MrbVurGupYxYK2sDJj3huJISxSI7VU9/SXgu3U/HNlROMVa0HZWuRZqERacVgFd7ATqIEFCrkx0q6Ut13AmRZ/OjQKI6MXwCAUMZ1biKA4OZx19Xd6G5wKxs92RE4sJ/Josdq1KsU3tQhMvJRdDTRxlIsB7v/Ah2C54tBKG7iZUrLLAliEldvaGQBXIlYEocHp1DrdaG7zgk3ZVGxztApRfti2SiqDy09W+t4KVCRXAws9kASMBIr4MhQDHmZSgobYJGpWJMB79u/TinWpAOEqqYc6d9UNI3DJwMYDOaRl0p1FKp6wCw30RgR70F/KIRgLMbSF9t83rIgRCCZy2F8chK1Hi9qayqJ45j7oQIgkBWgSIjB5n44kcBUMon2eiXDSjuwEbttfyDI3AxtdXXs3VQwb3kvxYqwrsmMPVubUetzVhMDueQmLAkgaH7boUgaP3ixDycnRfAGBSDMvBQTHgVSNZozjL982S0IbO5r3O3lfgb6WRmwqnHpJQIQyl0OhGRPD0zA73Ggo8Gv5OWW6Wk1AIEmLxUfOnhq7P+x9x5gcp31ufg7vffZ3dleteqSbUmucrcs3LCxDQZC6Anhf7lJSIELIRfypJBGcvOQG3IhThxCMwSDCxgbgw3GRcWWZMvqWm3R9tmZnd7P+T+/33fOzJnZot3VriwZnefRI2nmnDPnfOX3vd+vvC/SBQlNfjvaG+sE5a4evPM8cGIU05k86pwWdLU0wGER4GFkMsolZuSm76hzMmEWLepEFz0VT2E6meZM4FDACatehBNOT8aZKZK266uaA2iu8/CClcoVOQlyKJyCx27C6tYAh1Lofej+41MJHBykzGITVjf74Hc7WQ3tbAGCGCQEaAX3QTk8ptAua8e12rSUe/PDPYPYN5xHTlVzPOupeYYblMd6payKPAhtzjzuv7obqxrdTGIlqhuUnBAlsUolfuIZSXF3Oodi9ctt0xbZBvMnKVIHUL+Iucw5LuRBKCWwbVUDgh4bUvEowrEMGhspDkwAT2LvFI0l8goRI4tJJzOYJWY8SmakCLdByiGWySNXov8JzVMzinBaDDCaLSjBiFimiNcGIpjMUMm2SFgkD8KGOkWL4SJAOGNvq3Mzmc7jwNFxHB6IIV1UqxK0g2/BVrr8m3RFplDAibExRJNJdDc1IeSqJG2LEEIG4+EwQsEAPA57VVUXeQfVMsdGpcxRCxC4bDydZnZFCk84KQShvBDlfA1PTaF/fBwNPh97EVRuhTM2ygJPIFtEuQght4Qt60JoayQ22ZWfsGcPEGSgP5zCIy8oAEHxIFS9t+Y99FIRIXMa91y1CpSPsKwhhiqjqXEdapjgxNATSl2VMyoAojLizs8chNrxJBYx8Ta0AMczOYQCXpj14nOt1dc2D9+nanyJ8AO51Sn2/tKhIch6E7rqHWiq88FC4QXKgE+msffYOCdCdtY70Vjn52RCivkePjWK8USecxVWNQfhtFuRyObx1K6jeHbvUc6XoLyEm7f14u5r18FtNbP7fmAswrTbQZcJ6zpCsJrNKEkljEWSODoUgcWgx6pWP3MwcEmbRLv2FA72jXPFBCUyNgTcGjYz0UpLnT61kthqu824IW80ZQ6x/WD30LkHCGV9efG2DBAceTywvQe9jW4O+aj+89rFXyTliVAat9MMdCDGgzhpqS25QOunnFYLELIKUZIw1Bo/GXuk9GWAcPmqEIIeK3SFLFduyDpivCthLJbB+HQGyWyR5XzpMBt0PD7rPXaEfHYGvgaUMDY5hcOnE0jLRhj1EppdJnSRMqrNhli2hIODUUxkyNEruBXKAOGiWNMcnTz7+CHa9r6hKbxyZApTKUqhFZU21SNMu5VZ2Nhj72kuj2OjI+wpaG8IweuwlVNUSWcknkkjGouhzu9jPYUqSEKhy0wGsWQSQY+H9Roq41+8YiKbQyQeQ8DlhtMmeBLUMHs0lcTA6BiXTnaHGmA3aRIJFzcNZj2bAQIkuC15XLa2Hr0ddVxuvtKg/uwAArP41QAE8iDwbkutHFZtlOpBUEIMV61CPJVZOR6EqjGmRaTCfagtIxSu75qBeIF4EJQxyqacqKy5RlZXJh/VTD2lDfgv5V3nAAjxVBYvHxmBwWjC6iYXGvxesRsl1+B0Aq/2hfl31rZ4WdjEYtQjGk/i0NAUexga/W60hHwcVnpm7wn82+O7MRrLi4xyWYLHLOOjb9+Gd998KaQCJf9EMRBOcdz3kp5GuJ2UiyAhHEvj6NAUK6l1N/vRGHSzp4JekxJjD/aPcake5yjUCwpV7bEw0zJzPtbuX2bbz5SXK1nGaCSFR841QKggWeVfswOEKgOirvfqtWe0w4vfyZ2NLZwJEGzCW1B1UxXii2RFWykJAggUYjDIpCQLXtD7J+IYmS4gIxkVr4A67CUWd7Loi2hwGtBZ74bfKWzWsbEYToynYTab0FNvR8BhRF4CBiaTOB0roEjeIcWDQY90sczxTL1d7bOkvonEMtj7xij6xnJctkjL3kyAoHp6lU3OmX5GWcqTuRyOjYwilk7Ba7PBWi5VFKsRJRrm8kKsifJxyj5l5rkAsqUiizHZTFTFQ8FZlhZUTSyHGTOFPH9PSpA82JR6Q7r3dCYrAEJjCA4qoZztxRbwLnOdQvwfDnMel6yuw5rOOtgsggNEHEu1dvM/0FkDBEr6IeMuPAhFFPREUSlDT3KaOiL1UeK4ElCkiLgMBE153LKpmZW1fn4kglh+BaiWZwMInIRImFVSdthAXtahIFOcUdS4l+uhgfOyimG27hRlhFqGhOqzeF3gHZiShTmrbBP1k/AgTMWS2Nc3Cb3RhLXNLtT7PLxTp/j16GSEa8wpDLChzQ+/x8nfjUxEcGxUKD3Sgl0f8GAslsI/fe8FPLd/gPnxxUMSs6aETe0efOl374bfbsJEOIYTY3FIxQLWtAXREBC0pdOpLI4NhVlxjYSpKPxAYISeM5bK42D/KLK5Ajob/UwSxQBhUVLQC1sAq82cNqlNeBDOD4BATIqlGR6EaoAgKy56YdfKh2JbFtYaZ2HhznBpNUCIImcQAGF24ydCDhWAQC5jkggv4OhwDAORAtMtiwVI3IM9QzpKbqQHkWEC5WwYsLbZA6fNgky+wOA3mgVcZuKBkJhvI5bXo6DsdEWIQ9zxIkBY6FgQZSOFooxTwxHsPjiJSIqDO3MmFi92LLIHIZ/HidExxFIptIca4HeS/gy7yYSHNZ1BJDaNBq+oiqoFCLFMusqDIGCD6G0uoczmMBWPM2WzCDFQXpWwmyQjPTAxwd4HJkwyKKXly7luyxKc5jw2rQpgTVcdc9LoKX64gl6+ZQIISQEQJkoo6sww6wqocxjQ4DIyRzolvUVTeYzFC4jlALNORqtbB7/XiTdGUojn9ewWXNlDggkl+KwyGlxm+J1CLWs6XcBEooBwWkJOFvzewn7IsOqK2NZqwT3bWlHvJUa95eztpb7tzKkjQI3yuU6paNDcXgAEYRTnhbXMBUA669N4rT8Cg4kAggd1PrFzF+RIkzg6muTFeEN7AH63g0tuhsamcGwsyW6w1a1BBLwuHB+dwhcefAZHRxKKnHcFgHX4jfib/+8uzh+YisRxbGSakxy7G71oafBzuIAEwI4OTXJYo7MpyEyOVNrGLI/pPA6eoiTGHDpDftb/oLCyAAgL7afapf/MSHzGJvxNBAjiWSrvMBtAUEMM3C6UdFlBkjMAAn9Q+4I1OGK2FlvMSBbmevaD+nUyWcCP9pDc8xwAgXdtIkio5iCoHgQSvBmNZfDaQAxJycx5JNqj7HtQpwpk2HR5rGt0oK3OCSOKODaexaGxNEqySopFWwoVZFSz6JrkPNYFdbiXqhiCdh6z1Lzq6DvbtlpMuy723DfjGVOZPPYfGcEbp1LIFqu9MZWxN88AnOcl2QNQKODk+Dgv1l2NITR6vSzupg7raCaDsckwQgE/fA6Fy0D5knMQ0lTFEEejz8dUy9qKFAIIlKMwEZtGcyAAl4aKmdR0qXJiaHISIZ8fXaEGmDUKj4vtm7nPL8FpymNzb5BDDA6rYcXLkc8aIFCIYSCcwKO/Oooj4znojCZ0Bu1Y3UzGnMrFlHIqowHRVAGHTscQTuRgkXNob67D6ckEkgWaeCuUOq1keet1Eho9Fqxt8cBtM6CQL4pdACskAkdHYhicyjBBhzp5yANyWasdd13etXSAsBAovKg5oRZxV7cXJRfSIYhaqreHXAJULHIWu14RJpkxCJVLiOI0HI1j/6lJBgjrWryo87oZHNF3wxNhHBpOsDHc1BmE3+Xg5MXT41EcG4sDUgm9LUH2IAxMxvD33/4VXjpMfAoqWRNli0lY2+jA33ziHrT6bQhHY9z+pUIBqyiUUEfhAh2LUh0ZmGB5VwIIzfXCg0BvGE/ncLCPAEIebSFBlEMuRrUdKGei3m1nQEEtFs8UmNqbSqGoeeg+dR47bAQ4mGCliKlElsmY6HsCQEG3DU6i0+PdSQkT8TSXydH3FHGhKhG32YixqAgxvDqsVDEspM8XaTWqh4jYEQkopPyYrGORlxZHCbdu6UKdSylXhMylmAGnFWY9ySFTMlYekWRWCQLKLHpV77ZyKSA1TzxXwGQ8W25Lq8mIBo+Vc0Ho15IFKvlKM2DkhD6jASGvDVbl+3S+hPF4RmlLmduy3mODg0gylLacTGSQp8xBTr4C6j0ObutwGSBMVzwI2pen+BKjHZGEaCvFcDmVOXpsTLW8uy+K4YSMok5LaqU29syOoaTpepuMbV1e2EwyxhIy9vdHkCgRwJh/02KUCujwGnDd5kY0uE2c3+C1W+B3mLnMm8ITk/E00nkiRBd2xW0zI6hsTog+nCpgqPJIzSRyWEyoc1l5ftFYnEpmkcjS9wJ42Exi3FJf0mfRVI77Uy3BpQTMOpeNBdvo++k09XWOv6frrSY9jwUbeeJ0FJfPYyqZ4yROOqiPiRiNxgQdyXwRkzGlL6Hjd/S7LHBZiFIYSBdLmIilUaCkJLKn9L1TfE9dlKWE4ukUS8/nckX09U3h9EQeJV2FMrk8FRayiZln3uRLJfRPTmI4EkFrsB5tAT8/r8AAOiRzWeYy8LndCGoTGAk4M0AgNUcVIBCvTGWjQSCAKhiIaKk1GOQqBnU0Ee/M8eERhBMxrmJor6tbchXDfKaDMmBcZgIIdejpCLJqL9mhlTzOGiCQS3okksSuN05hMiUzURJR/hLT3skJ8g6Qq4527SZ0NrhQLFJGewaQCvA47UyjSeI8JAZUBb3n22qoLTLfOVXfUYkIUOe18aToG4sjnBST0mPRoaPeDqfNjIloGrlSJe5FPGytXjO2rRZELEwes9DNaa1NEvZcc2gWcbVUbbH3nnNkCMMtDrHzn5qKwGgwwkuqY3MUazOZlSQjnkxh97FRGExmrGv2KCEGwUEwEYmxASWvwcZ2P4IeN99vIprA0dMRrhNub/CioymAZK6Ex146goee2I1wugQQ7S0ZdX0JD+zYig+97VI4zMBYeBonRxOAXMT6DtJXoIRDSrrM4GD/BMtdUxihKagCBMG4uP/kKPJFGQ11HhwZSeLVwQTyNJYgwWfVYefmEC7rDHIVxU/3DWB3XwJZmZ5Bhtss44b1DbhmTT33+c/2ncKuvgQyEuVJAE4TcMOGemxf00CYBy8eHsGzh8NIFsWMJLa9a1YHcP3axCADXwAAIABJREFUECLxDL730gAOjBaQJ8On5dNYhtk702ioJZci4557mQACL3YSHA4HJ2rxnIKMdq8R91/djkaPjZUxv/9SP/YNpRiUE3yqd+hw/1Ud6Ag6kZckPL3vNF44HuWQILUFtdW7t3eiu8HJ9eDPHRzBL49EkZPE/Z0mCfde3o4NrW5eaPaeCOPH+0aQkURI0WaQcOfWVl6ECVNQNQCVhSaLYgGmnfvNGxpw8/oQwqkifsweBAIIdpWURDN3Kq1BY8khJbCttwF+lw2lXAbPHolgumTld5+ZwCXANSWslTkzKB9BzuLGNV6miY/lZOw7MYZw3gqJqarnnpQil0HiWDCRdpkhYU2jDfdc2Qm31YATI9N4ct8whuOCn0SPEnsr7ruyncHQYDiJJ/YOYiAqQdLrOUTUFbTgrm1taPRaMZnM47Fdp3Bskjg4qAJMQrNbj7sub0dnnRM5WcZjL57Eq0MZFKgORZa5L2+9pAkbW33ISjJ+suck9vSnkJcFP03QoeO2vqTdj4KswzP7+vHyyThyMr2rzBTTN26ox5auOnY7Pn9oHM8dGkOmZOKx4DJLuH5dPa7sbWAw8NLxSTy1fwQpll0G7IYCrukN4Lr1zQxG9vRN4clXh5l8LGgzwG+yIJMuQqKQ4zIftIgPR6fRPzEOj8PByYIOk7kcTqMcg9GpKV6jyEtApb1adtoIyT0nFLlniwoQxHgjEDAejXKOAoEAtUqBtR9yeRwaGkJRKqG7IYR6j7uqvHwxr3kmgOCzFRkgdLURo6KBgehKHmcHEChmTVK5OYmRKtHU0g6rfySMXx4ew2jWzFSZNPCsujxW11twzdpm+Jy2cnkVTVZ1NyTmolJPxgt8Del0uSUUPK0SUvN1ahB+tu9EyIB2Pc8fHETftIy8LFxcZJwabSVcvboBnc11ZfU+1crbjIDPboLTQhTCyw0QlGddEYCgtCVrYMjo7x9GLJHEmlWdcDgotqselSGpAoRkOo3dR4bZG9QTcqOpzs8MiSLJKIlXTk5w2/WGXGhuEFroiXQBRwfHMJXMw+u0YFNPE2sXnJ5K4bFfHcKTu49xVnmd04ybL+vG/TdtRbPXxMRZp0aIqjTNpE6rWoPwkvKkHghPp/B6/zh7Proafaj3i4RIGjHRRAavHh8DIZWA34kXj0zi1YEMChQm0slwGku4Y3MddmxuRaYk4eHnDmNXfwYFXsBl2PRFXL/ai/uv6eHvv/Pz17FnMIs8RMKaXV/Cjev8uPfqTo6dPvbySTx3NIpUSRg2uv7aXi/ecWUHYokcHn5xAK+NFVBQyhzV4bsck3em0VBFbirWQQUIPouEHFWiEJmEsrg12iX81m296Ag4mYTqKz8+jIPjwrPHi4KpgA/dvArrW30Mpv7r50fx8qkUJFJDpF2lnMFHbl6FLd0BZIsSHv7FUbx4MsW7dDrMyOOBq1oZcNH8/8krA/jRgUnkWViHYvVF3L2tETsvaWKQ+fyhYXz/5RFkZIUzRS7hprVevGd7FyKpIn60ux8vnIgxQNByzou2VPfCIsTgNaRxWVcdvE4bsskkfnF8GgnZpiTr1ra+aMlKKaywGUYpg+t6nAi6HUjmJRw4SbbLwgJQ88Z3OZ+GNhSUHCzDIBXRHTDgQzvWsMdl77ERPLp7BCNpUiAUAKG3zowP3bwG9S4TDg6F8d8vDGAoQbt5AqYldPgNeM+1neipd2NwKo1vPncUJyOAxN9LCDlkvPOqNlzaGUC8APzn0wcZmAowJ8FvkXDXliZctz6EREHGN595HftP55VxKcNrkXDb5hBu2hhCtgh85xdHsOdUSuGvkeExSbh1Uz1u2tTEAOuRl/rxiyNh5IhmGoDTUMBN64PYeVk7A4BH9wziqf2jyNK8ITuPHK7t9eGuK7vhshrxxJ5BPLmfSNV0aPNY0GCzI58l0SUCcMu7ulHvEpfBibFRLtVe3dKCgNPJZb50lCAzk2IuX+BFnhINaf1RbT1dy2qOPh+cVOWgrkdUQlksYXhiEhaLGU2BQBkA0Ggci8Vw9PQw3HbynDcyTfPiN/biOeYDCKTw2OCROUmxpdEHq4mI0JbDwsx9j7MGCPRCtIvLFyTeXdCg2314CD8/NIWI5BBuTJ0Ecsd1e4Adm5vR1egRJWlswxbsBqjJyJ/pShevqW7ftC+t4zyIo8MRPL1/BENJA0oGsVDQ5A6asrhhTRBbe5t40GvvQ5SdNpOBa05J+pejvppEpaV3j8aDsGi3xEJ/VfwGeW0OHO7HMz9/AW9/23XoXdWuiV1VG00CfKTS+OrxYQZ8rUEnEyURw56I/efwet8osweGvHasaW/itiEX4unxCE5NJiGXJPS2UKjAwwvGeFLCt57Zjyeefx23XbMe7995GXxmGWaTDuFoEidHFPrToJsZE51WEmeSMDAaYW+Pw2bm3ARSbqRdC4mnTEZT2Nc3wXof7SEP7+yPn44iWxC7RHKTXtLlQ8Bh4bDC4EQSbwxNI01+X4BzUDZ2+NDgtvKiRUDmjcFpJm2iIURhqM3ddRyWovcei6fxWl+U6+EJuDqsemzsCKLFZ2HP03/vGsL+kRwDz3IFzzIbwOpe15gS5Z/kQWh0SNi2pgnFXEYxNjI66p3Y0EZaHcSkCBwdi+PQ4DS7sGkWNQft2NTuh8tiYMBPZcuv90e4/+n7eq8Zl3QG4LUZ+frh6QwO9EeRoskOHXxOE7Z0BxGwC36A8USOc1iiyTzPR9qZX9oTQANVC0CHySR9H0UkIcIc5BanvmrxOTjEUPYg6NUkRe1GvtqDoAUImWQSvzw+jSQIIFBrzW49VUZRWrJVgHBtjxN1HicSuRJeOzmOsaxgUCzfY5ZbUXiCVCV7SHLaZoTVKGNVswdriIOCQHOuiENDcZwOJ9mzQl633iY3V//Q98l8AYeGYhicTKIk6dnTSl7Wda1e2I16XpSODMfQN5ZkNVNyebcE7djQ5oXLTMWZwPHRGA6djjOIpe8bvDZsaPfypoZG+qmJGN7ojyFbFInMQbdFeP4clKqtw9BUCq+dmkKG8KJMfWnEps4A6l0CvI3Es9h/YpI3gQTM3XYjNrT70eS18/2orPnV4xMcBqEgistmwNpWD1r8Tt7dhtNFHDgZwVQ8CUNJRixWQiYnNBZWAiAQFwLJPJPccygQ4JwAsuHKygAqR0yk06jzUkhJyMmr33GSYiKBoNcLu5mYFJUqBUUUjxQdSYvBo4AOGonkyxsYG0MkkWB+hM6GBpjVcPkyLt40Zk36EjpCJvYgkHAe2eQVNTHsmaxSAFrowlM5jxuJ2dnE37mijDf6x/H0a6MYSBh4R6fTSXDoC9gQsuLGTS1oDbrY0HP7L2Mjlp9qFsxBxrB/IoGfvjqAw+EiMgoiNqOAdje5m0NY31HPYECbaESDnia2ECAi7wahffFLK/Hoi++BM19RKEp45fV+fOnLD+H2HdvxwDtugp0SRLTZCmx3RcVJNl/CG6dGOU5NyZmr2xpgpVi8LPqXGA5HI0m47FauOqDdG/U9VR2cOB3BdDoHp1mHte31XLIYz5fwjZ8ewHefOYD7b96MD+zYBJtZx0Dk+OAEptMlVoFsq/fC57IzxS2LRZ0cRTxT5BK2jpCP2RLJsBYlCScGx9EfTvN1q5p8cLvs0FGMXWkOCikRNbO6CaCJTMuZkoLAISfeHyoDkEBCUdELoWuYfbDmezLIlHNDB40HcqqSESHvx/e5zDGHPMgrovjEljy4Z9lHVDFAKQRO6ihUAQKKaHXk8a7tvehqpOoS8f7UDqzMqPQ33YpAk7oXJwOqdY7RXFa/p58QbUXGSFQA0FJBbalSFlM70jk8P5QkX75ecQbS96yVwdU2wmNI7mD1e3ouvp7Bg0hSpBBHlgCCpqxwxkinEIOcwLaeBgTdVhTzOTx7ZAqxEuklVBILa68r79N4L0G73jxuXO2Di0MMEvafGMOkGmLQ7DBr72OU8lhTb8Tbr+pCS8AGsx4wKeNOdVOoY0odl/Q9LeRcVaTTiXbWjDt1XKpzk64TJE+i/6gfK/w4Om5H9ftyX5WF0sS91WfQfk/hBuoH2kETE6D6fOL+WqG16rFC3UHjicIZ4hnFOygpCMrzqfNOQGX6nvJNBoansfeNCcTSrIV6ZsO1yDN4XEHGRCyOvvFxUdJoNMFmqojVUVsRiKBxSJ/zdlDpCwqvUQiByiONHF4SCUc03jP5PPcX6S2oT073SuVzyEoS7GYzepua4CfwoHbeIheI+bwH9CxOSwnrOt1Y1UakcZZyUuwim2lRp58dQFDeSH0xGozEsU0Ly+uDUbwxGGXkScY06DJjXYsP3SEPvA4hCUztpxqtRbblPC85ezPTRKJEtSOno8zAN5UscPe7LQb0NnuxhrL13TYmBNK6h1Q303Ki3fkHwqL6b0En0+5i7+v9+PQX/hn19XX46899FF2tQe6Xsh9DcbzwQlqScWJokpUiSUuBvAF+jygZIgVJEks6PjTJLmgiSyKxJAonUHyb5JjJk0ALQk9LkPNM0kUZ//X0Pnz7p/vxwI7N+PCtl3KoIJnNon+YuBNKqPO7EfQ4QElalEc5MhXH0cEIe22ag272RlBSDhmnTKGIVw6dQqoA1Hkc6GzyM61urcy0WspXFu+qGWTl/6osidrtxCwgUMFQZS8VwwMiSoqkFR6E3DIxKao5Bhp+DqVShUyrRV/iHA1KqM1LhnKCr0qU9K7tPVitJUqqAbNa35U6gLRNM9v3KiAWbTA7std4ZMW4Wsik1jpCNFUM8wKE8gNKMJfS7P3oCFBoSMbe/mnWSyjqSJujpoqhFrhRgiQxuzp02Nbl44TWSKaEfSfHESmIHIT5XsEk5bBOYVJsD5I4XTXQEkCxMpBUZs5yua8ClrSTWL2C7aJ6Pf2t8SVrK1dUwFvuRw0oFbZVLNLlstaaKOnCxkK1xSpPE6WipNYIaauIyNtHVxdLFHqOYvfBCUSSK1O1xoAHMrLFEk6Nj2M8FuNqhI5GlbiI8rEkTMamWVq+MeCHzUjEV2JIxzIZTCcSrMqoEiWR7aD7jU5OwO1wwO9yl6njp1MZ9I+PoVgqosUfRHt9kKmd1dThhQz/2fp+plEnbaMS6r3Axp46tDQIW8gs4me9GZl/CVkWgKDOAY5hyzKzmJGgTiSRYclcmhB2i4k16V1WE7sUOcSwYsfMJZgphIsyEpzNTkp9eUbfVpMJboeVdw92i0HI3GrMwtybwKUv80u/ciENNvPu5EHY+/oA/vDzX8GpwXH85f/6AN7zjuthJblH9dBEZiipcWwqxhUEOoMJXSGXUnqo54THVDaPY0OTiCTzTIPc0xKAz2HjnUwmX0I0lmDcTSRKVouR3Ztff3ofvvX0frzn1s34yM4tIIcEEY/E4mlObHQ47AwOiP2PKJjJg0Egzucgz4KH9R5ILIrmxOR0AvtOUG4Cucfd/GzE5jhDgVCxthozPXsD1jbZGa+rxMEFQFhuoqRKjkF5LHK8uwS3ReawBo3VeLrIZEAUXqEY9mxMikt2Yswx1LQLyqwzeJ4Tqr/SNLKyF6WdWlWZY9mDUIEx5UVWKfGkNmnzGnFpq4OJvSYTOdZLiBUox0gtVRTX84Kr2R1TFYRdX8D6JgdaAw4YdHpEM8SFMIYoAQQCGTPaoTJYVIBw79WrymWOM8xaFQDSqJrO074VllflpPIA1g5U9d/k9RNPqW5iZjtLCxCU1lggguOWUx5kth4Xy3I1GqyGm9Tu5Hkbnkxg9+tjGJuWFAbFZV4DFKBPkIRKFk+NTyCezqA5GEBLXR1sSgUXVTOMhMNwOyis5CmHIIQWQ5zFlghYUD+QTRubnkaCuBUayMNM1Qsykvk8BsYnMBmLsdegp7ERDosIWSy8zLpmEMzRzCzUZJGwqs2JnrYAvE5rhUWxdkwvZIlYxDlnBxA045cHqDIJaREhVzS5qskdTAiWAAHtGmmHfm5ETSpGXB3i9FyFgsQAhhZNOoMWFXouWnwIHAhX6yzbR005mfh69nLDRbR9eeItnC9sIXef+Vy069/z2gD+4PP/D/sO9uOWazbg//z576C7PVgO8VR2BQLkJVI5HB4YYxc/UdJ2txAxh4ldllRVMDGd4uRCqhpoDtjQ3uCDzWxiQ0BiSmQUqE2pBI6SAP/zKQEQ3nvrZnz4bVuYK5/HSaGEUkniclNia5RKEk6NRjAwkeD/NwVdCPld/NvMxQAZx06N4tRUDm6rHp2NPgQ9TgYW1cZ5qTDsjHCiylwyQJhK4ZE9K0e1LIiwiPs/i43NdrQQrbRBh3y+iOPjSZyaIlIgw5mJkhYyfBZzTs0afyZzr7as6BlmmVE305wLJABCET/a049fnaAQA5EfESRUxjRtpMnVyuqMNE5JSU+GVV/EpW0kOW7lHeLxsQT6wllkFVEl/t1apCRLoPBii9eMNU1O3sDQzCdelH195EGwsObCjOVR8eTQuSbksb6Galn9mbnbQju+NP+uGq4zbZe4n/hc5ag9U3tXdWXV/UV56bzhm9nGgRbsaL5XvcAVGDfzYprr4VgWe14/jYHxPIqcwLqoN5h3ZFaYewW8ImnncCyBvvExzo2jxMNm8hiYKEcIGI9QDkwCHaEGOJlWWWgxTMXiCPkpD4oI/4BkNof+kRE0BIKo87h42BJhEmkvhBNx3mB2NzbCZ7drKgqW8l6z2R1BBmYxFtFab0FvZx3qiR6cNEIoZMf5fYuZsIs/d1kBAif9sdtMIEaK+4tSaZFAQ4sxxyK1ZCIr5iKpbnAe2+zhEGRAtCjRZ1SZQDtRjlfPQbIjALrIWOYeqUqsPEMPzbJOqeFk8vtJUomJgkbGowxezr7HZ/4gxQCPnprEP3zlEbxxfBRelxl/+ye/iffccy1spIXLr6f0neIFyuVJSCmGgbEoLBYjelsCqPM6uX9LJZmTFE9PRDn+TmyZlFfSUueF2UQgQkB5jrXqqVZawtcVgEAeBAIIVk42FMqCbKsof0CSMDhGoidEVCOjzm1FU52HPU9WI+WGkNRzFgeOjyBd1HOmOOcm2CwwUsKOZvyrEfYqd2fN/JjRc/wgPCpmzCTuebVpNZZwZTwIs09ku5zBtWv8cNpton1lCYORDA6OpJAuGVgptVaLoWpdrJoScwChOXDVXHCrvNjPs3PSNpt2MeGUnjIWp7Gg8SCcmOYchIoHhSiSSwjadOhpsMNpol2cjBMTGUxnSqh3GnBpR4B3ViTORCWEp6M5pAsEKmnOKt4ymfLnJVj1EkIeMydwkheMU6JkHaYzRQYI0TxVMQiAMPMQbySYFEnueR4PQs3FYlyqZGZi80QVKFWHpmGq8520BPaKpTgznp3jFZaQAKbpSO0j1wIE+sHauUU7cZIZf+3oKI4MJJFhoqTF5/rPtcSpWRRivAiQQCqsY7EoBiYmUZIl9hY0EQmS1cq5BkPj48zR0VJfD5PewDwIkRh5ELywW62sDjk0PslrREtdPf89nU5hNBLFdDLJmjGd9Q0IuJxKPtN8EOlMi3PtDBMeQ5OhiKY6K7pbfWjwO+G0GcuboQsGIMz16jT8BeBWdNI1o0Z04Uz32JmacTm+V8GCWBel8u5CGFPNQyp9dlZJibXWsRI24p+icpyX9ryB//O1x3Dw2Gi5QmI53lO9Bz1CvkA6ChTyoX1aCddvbcNX/vaT6GkPlAlByi5KljiWOER04nSY+QxCXit6mkmOmRC4DkRKMp3IYXgyzsJJJE++urWe8wj0Gk0E+u1UQcJ/PfUqvv3UPrz71kvwodu2MkAox1KZ9IbKGuM4QvLPeQOHFkgN0uOwcL0vIWYWhOobxXC8CJtBRnvIz5OGQla14YVKCp4wGbVr+wwjNtcKqG3E2k7hRWUlQgyz975FymJrh4uFqajtpFIJJ8aSODpB5ZnGM3sQZgCEWUz5IgGCaFn1xrOD5TM1rfq2FarlQWZSJLEmgc3JWBbhNkrY1OZB0G1GsZDDqfEE+iMFZEoGpk3uDliwqiXA3hUq14zE0xiPZRFJlZApCUBK485r1SHktfBYFWErCfpiFjBaEclIXB0T5STF+RPplkK1POc4nBNFVY+FqrZcaMMupzFZ4r2ob7O5ElMt7zsSRiQlVDFX8iA7VaANWDKB/rEJZIsFDh00eEnu2c2CcP2jo3DZ7GiuCyCRySISTyDkExud0xOTzM7Y3tTIc42UHCficSb/c1ttaKuvh99hL4coluddRGIkjUmbSUJjwILOtiD8HiuXjRIAprLvc+A84NdZFg/CYhqmMqbf/NFNBkM7L9nUqanZykupu31Cj7TLVasoufEW4jxQfqAWe7DdAzhH49kXXscX/uG72HtweEWye2f0j1yC12XA5z/5LvzWe24WXoSa0k3yslA+wdD4NIYmY7xA9yqCSdQWtNvL5ouIJXMYm4oyyGhrDMBjtzDrIrUtsRyORxJI5nV45fgI9h8dxubeZmxd3QybUebQBSk+CsCmYxXJk0OjXIrYWB+Ay25hKWmueKFqgXAcR05HmFiLaLxJhtplNwtuhJq+0FYUX2gAodb7oYYYdFIBfquEtS2kRmdAJJFngBAriKSvM+YgrBhAmH/ntNCZPitA4FLkEpz6Ija2udBAlOcooZTPMN02EfywpA6RFumK8Lks0BkUkiPK4C9RTlSey5xpDBn1QuqZxhSVFeZLxAIaQZ1TD7fbowEI83kQxPteBAgLt/xcOVOkMEMarx0bR99oBnmJvJc1XgRljFbzX8w1g+f4fc2Ao3+S9yCWyWJwfByxdJptHfEceFxutukT4TAagwFYrVbEE0LNkc4Lx6bh9/lQyOcxnYhzJYNep0fARd7SOqZbnl1xeb4RX1lxqsGeEBCkZESzsQS/24xQnQt1ASc8DjPTKpMXlen+l6XMfmF9d84BwsIe69ycRSGQWCqLSCLHCYwUq6J6fiUuwg+hxvuMRj2MJj2XMfnsZgQoae4MPJezOA+qXoy+p0X2OQYI38Oeg8OzureXvzUo5CPh1qt78Lf/+6NY29PEYRbtQfXu1B7TiSwGSY45mWNOgTUd9XDahFJZqUT5BiWO0xEDrt0mCKUMBkpmpFyCafz01X4MT+dZo6OkE25wMvB+SxF3bmvHqrZGdt2RASEp2EQ6y4bEbDGz54ByGKgki8DDof5xTKZKsJsk9DTXweO0cux4pelG52v/5fAgaE2GIikk0LvizRLhYkXoCkVY5RxMehnZkh4FPcXKRecZZGn+EMPyD6RlvWOtmmNObxe7KbmANU0erKk3Qaen0rQiDHJBCflpUuiUdYTk2GisqXF72o2pM5nHrUyld3rEMyUMTqUYxF7W6eba8kha4ioGTlKcM8SwdICwrA12odxMSR4kjEbVAwPDUbxxcgrhJCUBkhdBY3xUEDvXGqt8Pp9Xdya5lihVJMXFiVgMY9EIb14YeCteItr7OWx2FEvk1jcglc2I8tNSicNg5EtyW61oCARY7pkoqecOkGgfvjK7hcdUKHsQNxBnk+hEyIsAq81q4IR5v9cOv8cGl8MMs9nACdi0CRLh+RVOOqgZU7+2AIEZsKbieOFAH6JZCujqIZHR0RtgNBPTY6UGsFjMQSrRgCLteB2MOglbekLY2N1UI+ixuAyCNw8g0CgQ7qvP/M/78f77ruc4v9bLoVakZPJFjEeSGJyMMRkWEbF0twTgtFC9v+AFoGoE8jjQICfQRAOZdm6kCPnfu4cxmtQx6Ux5bFN+gSWPBy5vwObuRk5c5XpjCcgVS0xtTDkFlKRIngmqOOkbjXC+A/VLc9CBBr+HNQaILKScnLjQreoyGtazBQjikdUH16afVW33lZwypR6rrKKgGgtRgvJWBAgcUZYLCNp12NjmYa0DApmlQp5ZIYlnpUqAqmw/NW2jJCPTeKXQWa5Anq8sJuJ5xMn7IpVwTbeTOT8qAIGAl2BALA+rGuO8FA/CMg69C+dW6qLOio4SK7GeGo7i+GAU0RRxORCjoQKJZ3O1at90PoBQuy4rQ6BC9SN4I9L5PBMmkZcgk6PNYbHMyaHmbtJCTHlptEGhkkevwwmfww7SJeFCxgUs1OXfZe4IqkSQ4bIL4ErLi8lkYNtnNRthNut542W3mWEymfg7Yko0m/TMr0F2cC6K/JUcCL92AEHtNMJv+46PYNeRUVh9dSgViSSXBGhKyFLZGFFAc6IdLXwyzCRbTVLWBhvyuSxabAXsvGId196rpJBiiC/8eHMBggyTUcaOq1fhLz79m9iwunUGjwAlEBKHQiKTw0g4xvFcSu5sDtjR1ejnqgVa9YkkiduKB7JoBTIELx4Zwff2jmO6SKVBFeY06gOfIYvb1ntx7cY2uGwCPFCbi3vJ0FOOgkwEJQUMjk/j9FSSDTVxVTQGPBxasBIY0ZKRX3AAQQRCxJipPDyrLnIzqhZudiIDkSurQIwyQCjgge3d6FV4EBZgxxY+YFf4zNk9CALMss6EQ4f1rV54rQbkshkMhRPM0klcEFq+gZmPKXNeAi32XF1VkllciIR8iF2S5vOWdgfqfS5E0xIOnhpBDnZkJQMyRVLAnD0X4SJAWPyAYK9jscRaKoOj0xgaTWIqUUC+SGFLokk/U+LiPBZWG1rQJL+XicvKPiUxXMhbQGCBqq4KJapsK3GiNHlAqarKaDBwWaPdQuJbmnRnJaH7TG9fAQgybMYiuhqtaA6R8J2wheJvPYwcOtBzGJfGKWlEEDstf8a/K1gwFwJKzvRMi/3+1w4gqGyB5GYkrvQjw3FEixZMJ1No8BphIOJuttqqtkPFeOdKVAoDXNLrgyE6gZu2refOpd0zueipg880vGvB8JsTYhBPQaVlrSEH/uC378L777sRXre1avywQ6xE/BES4pkcRqcSGJ9OM6d8W5AIiup5l6891IWePA8/f20QPzwQQYa48avQkw4OZHBNhw23X9EDv8MkSD+YsURpb5rATN8cxanxGLuE/W6R2fdzAAAgAElEQVQbGvwuuK1mZoKkNqdJU2Uyqjfei50Piz5/UR4Eze6HePPNeglWsonlQJbSTJrsfvHJ7C/FAJPIkkoUhCE1xzNUMSz67c7tBbU5CDmdXfE+E4OjzCChyWVET8jBKpyRVAHHJ9KYzlILKuNwzvVDND6zN7JIlYyApYTeBgeSyTSaPEZ4PS4u6x2dmITV6cNwrICReBGlOYSFLgKE+cbH7GidvTgSUfOXkMwUMBVNc25RJJ5HMl3inBCuMCtr9CjzQ0ceXrJYBNbmsLIKdb4IPwhl0qpFtezJqBSW00fkgRL5aCpjmqiq4p2+8oqL2fhV2Xja7OiLCLp0WN8dQEOQ6OIFQFCfjTAR+RXUKj/eaClljGWlojcJ6f+aAgRyNQF7jo7g+GgC41kTIpk8mgLWGbF4bWdn88TClcP2DX4gPIZrtmzAeDSJoycH0dNah1WtDUwFvNDjzfUgiIXHYgZuv349Pvd778TGNW2MXsuHTnAiqK5/Qv2jU3FE40l2x3a3EnGIJnSg7ILJCMfSeTy+qw/PnUwjpyOAwFNRWe90HEe/tMmEe65ZhZDHIuJrmoZjQ1Iocv7DcDgBu8PO4IAYE0mK1mSq8B68CY6D8pMuCiBo3s9Iwj0hCzZ2eECqoVUgS/mP+l5zjSfygr0+mMChYdI0MLDc87xljgsdmG/SebUeBOJBENnaquGWYdKV4LfpYTfpmUKYqg6olHFeuXjGV4qnRRlldM+gpYBLWlywm4jToAiDxYpSsYRCLoOi0YFDI0kMxS4ChKUNh2ouB+09uNS8JPK9KBE6lS2wRyGRyCCVySGTLTLzIueVkggWb76MyOQpPFEEce/JUgUUqrF92nVbzXoOb6bz4vtySbmGC0P122mDUDM2GfTA5Q/n33VU2R/tqVRSqy/BZdWhu82FTqKEp7wChbOlXKZI9NtKzlEZB5SpAOZux6X1y+Ku+jUECMIrS8Zl79ERnBhNYCJrZK3wznoLzKr01yztmMrLGJgq4Ir1QUjhcazq6cYjP92FqWgMD+y8Apu6GlmHfaEQ4c0CCFqtAJ2uhM2r6/G/P/lO7Lx+C2yKDjy/vlLGJ3INiNRIeBKm4wkWLPG5bWXtCm25GxmAiWQW33n2OPaPFVkpTqBlBSTIgFkuYjWRzFzZia4GV1k3QG12/s2SzJLPJB1utljgtlu5pJG8FrVJlYsb9st39mIAQiUWCpj1JP1rxWU9PlAefhUq4/9oQg6iIHjGQxNAeKUvjgODGS4ZM6BQBgirQ24GUW/SxmNJDTwjxEByz9oBoSz0XJaotAipHArvwRyzrtyMtYZWhstQwIZmJxq9Ns4rkiiUoDBWUmnkwZEkJtMk1Tx7Od5FD8J83Tz/wsY2mPloiFSvxGCBSNOo7JvCmhRqJBDBuTV6Ui3UccnhVDSJSDSNVIZI+ESfk82lNCaP2wK3y4bpeB5DExlkKb+kxtug8vRUUoC1M60GmVcBhCrEoNFbUUeiGIEcHtRRWa4Eg74Ev0uP1kYPWkhiwEkswqKCppaMb+414xy7RGu69NceIBDr2mTGiHQuje46E+u7lw9NOix1U7Kgw6mpEq7aGEJqchqHTg5hYGQCt197KS5f24aAw8RqkAuNFb35AAGwmGTccdMmfOZ378f6VS2wECERu91U9rrK0GWWRJ7IeZ605D0gNFyOhSv5BzS5B6NZfOPnR3AsCq5gqCxUwn9O7uIWt4z7tjZhU2ewrM2hXQ/Ie0FGg/6QgaDyNLOB8g6WtP6syEVLBQhc52yUWdSKCI/mBggaMqEajECu0USBpJ1pgaQEWo0HIeTmBKe3FEDQwibNi2kB74xOLgOEWg8CJXUWEbDKWNPkZpVDcivTwkU7WrILp6cLyMtCoVI9tHP7IkCYZ0pV2ODmwG4ib4k3AgoVM+38iXmXKqDIa0nzn5dSzksQnxM7bzpTQDqT5zwn8hOYzSa2DUQdT7kD0/EsjvaFMR6TuEqi1h7P5kGoWv5V2vk5AIISrBIEV2X2NPEpzWuzQYLDAgT9VjQyTbyNqfypKktNvBake8wQp2nEN9dbMFtv/toCBAoxkAfhKAMEM1IlCZ2NLqZwLdvhGlhH8rZDYzFcvbERT/90F/r6B/CBe3fg0lVNcJn1nPBUWTCV5j5DTs2blYMgOO1lzkH4/d96O959z3UIuK08gAVAKAfshJuXGQ9FaIaZEpXM8DJBkQbokrfhjcEYvvPiKQwm9ZD0VO9cZWaZJazOKuG+y4LY1hvibGG15SuETYKRk+6nMnGywNQCk4RWBBHU3HQxAEF7aSVxamFPqd1HzCjjUhbLM/IgLOyn3rSz5vUgqJs7NflMTe1U5tdivHblxZ7FmkrwmotY2+xBg8eMZE7G0ZEYRuIFFEmZE1TJUEFmFwHCAoeHugCy8dDmc6nOHoVBtbxpV5lVhX3h5VNpdpr79E8CEgQKiOqdeC1UgEF9b9TpoVcS+yi/YXA4gsMnI5jOEsATOTrVPoD5wM38tluVCydgr0eBy27JfFGZt91mhM/tgN9j5zJFu9XE6rTs+WQqf1WiWQEIVR6ONzNYOnt7XAQIY0mMpIw4OhKHjpW41J1G9aaOFkiqZKj3OZEMj2B48BQeuOMGXLYqBKdZz3Fxqo0t724X0Ncr4UGY/WdnfkoLlMUo45Zr1uBP/+A3sLa3iettyyJaisXlhUwFCJqUHbFIz55ZSzuBXx0awQ9eGUc4b4Ks1BrzLcu2VobfUsJdGz24ck0TlyzWJuRoXfI8uZWF8K0AEAxyCQ1uoNVv4SVo7kMNzVTOUD+h/cZQtIiRGLk1z41Y0wKXh8WfpkgaC7EmwaSY04YYau+o4tezAAiq9jcZeI+xhM5GDyam0xhLlJhHQWx9505+vOhBmK+b1QWQHe/VVKYa26J1tYv5Lr6snRE85hVpa6bKV2j8lbuzbVCT+wg8xJJ5nBgM4/hgAskc7etFf5Zt0GyIck6bXfuFBKOuCI9dD7/HooAAHYMDh80CM4URjEb2xtKG0WwSWkQiMVFts9kAwuKnzUpfcREgEEBIGzkhSQyimQflzpLwYZ3LgvjUKKYmRnHH9k244ZJu2BkciIHAWfWL6DGWJmWipIPLRpQ0F0Co/pyeUkJTnQ1/+PF78e67t7PQDSPcRSRZzvaqaq35k3v68KM34khJZs4SLu+8NC5figHfuMqOGze1IeCcP0F0Ec16Tk9dqgfBrCtgS5cT129qhJAJWvxRAvDcwQm8dDTB8fMLOklRyUOcWChAWHxzzX2F4k2joc+7V22m2Dw00hcBwnJ2wsLuVfYsVPJWqypcSa9FCMaVEE3k0D8cwcnTcSSzgm+BAR+HBmZBnGXbVPul+gV5MmmjKCHoMaKj2cOVX1TJZjSIqioquybJZ7Klwp4KQUAGJ0uZ5AtrlhU76yJAKAOElJKkJMYODwneOYtSNK/dgGR0AulUDNdetgqtTiO2rG1jXW5CihoGzDN2lpZAg2Jqy8mkOIuvQIPIK442o17CjmtW4/Of/iDWdDUoEtxnX2tLAIHY0h7bdRJPHc2goCMOBM19NVsDmy6Pba1GvG1rJ5p9jjeVEfGMnTbHCUsFCOTadph1cBMHhCZJsdZfoNoU7Y6q8pkO8ayEeI6+rclBuNB4EKo8CAP41fHp+T0IS+2wBV832x62+uKLAGHBjbmsJ2orE2pvTIswJzgSVXyB+BYKGJ6YxuBIAtEk5TPNxbdQKXGsXsnJZkrQ60rMTeC26RH0WhCqd8PnsXPVBHkHiCdBBQMkG17hhDl7m7qsjbfIm10ECFoPgpqtXLYNBA5k+O1GJKfDSCRjWNXRgqs2N6EwPoprL1sHm8U4IwP/TH1QAQg65HJFPPvia/izf/gO9h4cmpF1e6Z7Lfh7qivmhBiR8BNwm/C5T74b73z7NfC5rCL5bzEkDrP8sBoTnEyk8d+/Oo6Xh2WuIZ8ptSsuJrncTQ0G3HV5JzrqHIrmwoLf6Lw4cakAAUQ5LZPOICVaUZ2/sqlZ5C6jxLTCgq5W9SC8a3sPVl8gAEELaBeSg7CSnT5vsmON25u6ySTlsL5Otyg1x5V8/l/ne2ttKvtHZUp4lJHLy0hm81z5QDwuk9EckhkJhaLIbdJmRql8I4KXpLLgU2GXy6aHx2VCwOeA12WDw25iBkQWT1K8A+S9YF8BuwpmegzONL7Ox/47bwBCbVx5JePMInNWTVJUQwzkplWljwWJkFknseRwbGocyWQCDY0h2G1WXL0xAGliDNdtWV9WGlxK55JxJLGmVw8cwzce+QVOno7UUHPMFZueGZcu/77q+iivOGLYxxM5HDk5gngyx+I3O69diz//zEexqiOoeA/OzgWmxg+pbU9NxvGNnx3CiaRNQ7FcvRemhEcjCljl0+GurS1Y0+ydVXRpKe16Lq9ZFEDQrIaUUNjsM6CzwVZOoeK80AUDBGHc+iZzGJgqVfEgnO8AQfuatQCBND9+vKcfLx2PIKdXCLbOZYcu8LcYIMh5rKkz4u6re9EatDOHyFlG6Bb46xdPm60FahdgAglMBV8Q1Q+JTB6xRBaxRJrtIem7FFjls5I4Sf1Hf6gagqoOSMiONoFOp41zDWysqCiAgVpRJabsTJu80Gq287k3zwuAUNuxK4205gUISpCL6tSb/A5EJkYxHYuiuaUNOZnqcYFbt9ZBDo/hBgIIs0gNL7TD6aeo1jccSWJgNIJklgz98h+8aA9O4Mtf+z4OHRuBx2XBFz/7Adxz25WsFEaUsypz2FJ+XVREKHQlsoxDwzE89PRBTJRciuCNOgPVSUSLmx56WiTtEm7fXI+tPfVcI6zlaVrKs5zra5YKEIiY57JOJ7ZvbOBceTXZajHPTzkIvzw8iV3HEiCBogvFg6AFBbUAYTqVxe43BnFyIgXyjpzPgVsKEzW4DLhiQwcavHZeMC7EOPNixtz5e66a9CdmEnszFd4VSdJx+STxuBDnQjZXZM8t/Z+qIpjeXbG8RJ1vMAj5eNJ5MZpE9QEBBhJxojADncOsuRVhxTI80ILfiwBhmUbLSgOC2secHSAkRQ6CJMOsK6GtwY3xkWFMToyju3cV0kUD4tkSx4xv2xpQAMI6XtTKpX6Lbg9BCEJKkoRwiYK0mrZjCR6Eaj5CfiJC0W8cHcZn/+Kr2HewH7ds34gvfv5j6GrxMdGRSlm86MdXLlC9PfQ3vcPuE1P49i9PIC47RJuWt8YVlM2QQpbgNxfxtnVeXLe+CQ6r+a0NEDQNTIuLzw7Uu8zMpLhgx4HmHnTVRLKEyZSoYjDKFwaTYlWejOY/tOOjeUCVBMmcJERVz+uDKoGAoNsOl93ELKpvhUXhvG7yOR5OlknkLYtUKo1sXobeZIbN6RQSyQrFNocdiGUxW+DwA/Er0N+yJJU3ZiTnLISRhLYM5RNQ4iHnGTAoqAADbV/LpRKKpOVA4IJAhjbv6kJsUOWZzwsPwrluv1qAMMxVDCnmZzOhhK6QCxMjp3Gy7xQuv/JKTGeKIGY1QqZeuw63bQ0uG0CgRZU5xhXBo+XegpCNpUnx6sFBfOoL/4KTA2P4u8//Dm67ZQvcdkE8tBxCIGzLZaHb8OSrg/jRa5PIwCZqkDk2N9seWYbTUMTNvQ7csqkFXof1LQ4QKquhlgdhKeBAnTPUtqr/4a0AEIpFIebDsuvn4VGdLCr4OYgcjeR4mT//ogvhTek1AgjRqVH851f/Ff/1vR/jqh134Pf+58fR3dLICYRivhH3QgHPP78LRosXmzauhcEkVHtFvyrETGTp9ZSTxRJzYoNDwEATRqjt53QsjkMHD8HV1IjOjjaYlHFwNnP7TWnImh89LwHCSnsUtFTLx8YSGEsbcHg4jhIMCNgN6AgAuw8cRVfvesTSRUTTYodGTvRFAYRqazJvf2trgM92YNT+bKEkY+9rA/j0n30Z9Q0hfOFTH0Rni4/lRAklVxJrlv7LIjIjI5Mr4OHnj+EXp/LMoEhMYfOF1qmS4ep2K3Ze2oaQz37WiZJLf4OlXbmoEINarSCLNuGD7Y/iWVmSNamAjgudKInaUgXvTMZ1PnoQtH0k1o1yBnu5Sy+ChKVNprO6isZLASdefwnf+MFT2H7nu7BtdTdGBk7DX+9BLBKDxe6C1VzAV/75/8Hh68W73n0XmuvdmJqKYnIiDIvNjlBjA6anJiHBhFw6AbvdAgp7eX1+pOIxOFxehOr9yKXjGB2j3LQiujo7cPrUcTzy8A+w7vrrsH37VQi4nPMRgJ/Vm57Li88rgEBSm/l8HvF4nJG42+1mGk1Btbl8hxYgEKVqrGjEwGQS2YKMBp8DTV4zq+QdG0liKlkUlQWsGihxueOCQwyLAAjL93YzOUmI23zv6/340pcfwo6bt+OeO65jXnCRVEWutiWtTFWPzABBkhFL5/D1Z49gz5iqvCYCdXP9gpkqGUIG3LW1A+31LhCgv5COxQEEZZ9CgECladWytS65G8TCSgJQF7JYE+/hFJBQ3qwtuU3OzSia7fGWYz6dm6d/i/2KXEDfoZfw7cd/jmt2vgOG6Ql89pOfwb0few8S42FE0jq8/e078NA/fxkpXT3+xyd+G71NVvzg8Scw0DeCiUgSd9x9G3Y/+xSy+gBMhWlYzCU8/fIbuP/d78P0xBCcrga8/7134dCBXdh34A08/9wB3Hn3PQiFrPjGv38H66+5Fu9537uwurOdvQjn+fA94wA49wChKgApno+MQi6XRyIRx+joGIaGBqHXG9DW1oZQqB4ulwsmE/H5i+auVDjMtzed493VXQp02H10BIdPx5Az2jEVT8OkAxMXZYtAKldEtsQVsLzN0+v1XM7ocxpxWbcLlkQYN25ZM38OwizvesYeWeIJ82UrkGzya4f78bNf7MKN11+B1T1tTO7E3oNlAAdqn1BlyNBkAt/65Qkcmib+gzO7XI1SHr0BPe6+vB29XJp3YU2puQGCkk/C5aWVd2JfgWZcLNfb0nNcuABBod3VzG92rsw2NpW2E5K+Fdle7bSZtwJKM1Fm5csRFkYkumkplhdj6qvMkra+Xv1iuXp9icbirXoZAYTDLzJAuHLnfWizGfDZj38C9//hH2Hb2hD+9cHv4fZ734FfPfljhFZdjgfuuhnPfu8/sftoH9au34Bdu/ejo6cd+dgEUsZGvOcdtyAbPY4v/OWDePfHP4nugBnP/vQnWL+hB6/sO4murm6cHujDsYFR/M7HP4ZfPfk0rnn7Hdi8aR2sHJK48I9zCxBm2VEXi0Ukk0lMhsMYGBjCyZMnMTg4xDGgttZW9PR0ob2tDcGgHw6HAwYDeRTUhl+CuIWS3VqSddh1ZBi/OjwGs8fPWgNGuYSSLBGzNmeskoHKl6iygKtiFaBQQj6XQ49Hxs6tPWeZpHg2A6gaHNUCBK0JIoDQNzCMqUgMnZ1t8HmcimjI2fx+9bVklEkh87W+SXz3hVM4nXOKeqEzHHqpiHaPjDsva8KmNj/sRFl5AR0zAIKslMqWtSwIIFRe6MwtsvSXp6qQdkceD2zvUcDW+ZxVL5R6GEZxo+gVg6py9JOSnwrQlTCYunbz0i0hn8uD5jEpfXKiMCWqSUWWC7ZYLJBLRRAvv9lGLKFChEwjklkV+hIhPkmxLYKdgmeYSK5hL+Zi+m7G1oUZGhn2VPR9FnPDpQ+LX4srRTcVcOoweRB+hivfdj82N4Xw6Q9/FB/76y+i2ZfFgw/9ENt33IEXnnoKod5tePcd1+Phf/o7vBbJ4Jprr4LDaEJzkw+v7HoZeVcnHrj7Zpiy/fjEJ7+Ej3zqCwjqpvHsk4/AV+/HC/snccmm9Wj022FzulFf14CfPfoYrrr7TmzeuAGWiwDhzONuxga6MuN4F5VOpxEOT3Es59iJPk4KDE9N8cSnUy1mC+qDAXR3d2LVqk40NTYi4PPDZrNxWZ6K9M/8JLWLmcjsf/noCB7fO4gkHLBazRw+sJl1yGQKuKTLB7PFjFePjcFosaJYKGE6WWAKz0Iuhxt63bh9a8d5AxDmawPiJg+HoxwBd3vcsJlNVSU6i22/2c6n/sxLEl48PIbvv9SPKDwzds6zXaeTSqizlbBzgx9Xrw7BZTcvyhAvx7OfzT0WF2I4m1+a/1qaL5SDcMEABLmEyfFBHD3Wh6zOii1btsBjt/CyTNUt0fAIDh05gaLBgfUb1sPvFjFdPuj7yVE89eOfwuxvwLU3Xw+/ww6DXEA0MognfrIHl265AqePvIoTpyfxtvvvRUeonoom5ziIxrGEkpTFGwePYGQsDLfPi+a2dng9HjisNmZK5eV9Vo+b4i2ac884E8xfxAbLPBc4Z6WAEwdfxNcfeQrb73o3Lmtrxh9/5GP4+Bf/DM3+PB78jx/i2h134PknfwJ/xyW4d+eV2P/sY/jeLw/jDz/9B3ChhOmpUezZ9RIKrk686x4CCAP4xCf/Dh/94y/Ar4/jZz95FN1revGzX7yGm3bswE1Xb8WBfQfg9Hjx0x98H5fduhMbL7kEHqulnKi4zG96Tm+3oh6E2QACI/9CAZGpCCYmwzjZP8TgYHwijFQ6rUh8qoZAJADZHXY0hoLo7elBZ3srQg318Hq9nJ+wlIMToSRg97ER/HD3EEazFsg6AwJuM5xWA6YiCdx7bQtMFjN++OwJ2N0+lOQSxsJU6aCDTV/AjjVe3L61/U0CCEosW5is6gV1lrAGVUgQIROdaCDecMq2XkZucDWpNJ2X8PODBLpOI6V3LwggkLF3GfK4ZY0bN21sgddpXYjjYSndviLXqADhB7sGsW84ixzMK/I7M28603tGHoQ2R0F4EJo8FWXRc/REi/kZyjoPTwzhR48+gm99/1n80ec+j5u2b4VeJ0HOpfHsk9/HNx95DtfdcS/eftuN8LnsSha52BZEJ8fwja/+OySnB/d+8H1o9npYmTGdmsT+1weYt+TAL36C514+gPd98vexsauDNS/KRzk+TAtLEcnIML72bw8jp7di3fpe6EtJHD/Zjw1X3oCrt1wKO6uNqoe6OVH+r/UQ8fxTZMeY8n/mhDyHkcfFdMmFfa5cQjIWxmOPfBfff+Jn2Hb9zehtbcJ//OtXcfVtO9DoMuGZn+/BtbfuhC6fxOET47jvvrvQ0+zGvz30MMKxFDasXY/VPU145sknMJ4y4Lc+9lGkxg7ib//ua7jqljvgs+vw8q5d2HnHnTAW83h5734Ego3Yvn07erqa8ei3v4WE0YZ77rsX3a3NFwHCQkaUNh5YKpYQTyQwNjGB08NjOHzsBPoHR5HJ5soSwlX31MwkqtV32O0MENas6kJLUwMaQ/VwOJ1lVF+etjWSsLVbUhUgnBydxjP7+tEfySFTEPWwOhSZgrPRpYfJbMLIVAaywaw4K/RMmBFw6HHNmnps622CVauAuJAGWZZzxI5FS69TtlFKCKWqRld15ar6dMuUd6B9FWrT6VQOj+8dwnPHppHT2RZIciPDijxu6HZg56UtCLgvrEoGGt/jkQR+8dog+sI5FObZpy5L15dvMjNeRwuk3yLjhks70N3oO68BAr2GJOWx6/mf4dtf/xbMdV347F9+Hh5DEdOjfXjkW9/G3r483vm+38D1W7uQnJ7Cw999AiaTAVfceAu6O1vx/KOPYjw2BUeoASOnhnD9bXehzW/BS7vfwIZLtiF89BU89uQzuOsjH8XGzmbsf/UA9u7ag1XrNuKq666FlcR0yK8mZfHNf/p7/GTfMP70r/8cIb8LhmISr+57FbKtAVvWd+GZHz+N08MjqG9swo47bocul8aBV18HzBJGJ5PYueNmHH59Nw4cOI5LLrkCl15xCWuLiMDkxWPlW6AEqZhFIp5AKlOExSpElBLJFPQWK6wkjJcpwOIkxksJmUwRVo8bDosRmXgEqVQeRpsTNqsB2eQ08pIBTm8AunwciXgSZquTvdZUpWV3OGA1SIgnUijqTPB4vbDpZSQTMWRlAyfX20ykTnvhHyvqQaDmUXeX2WwW4xOTGB6dxPFTgzjaN4BYLMUcAOKoxdWqW65iCOlMg14Pn8eBdau70NbahJbGBtTXBWAxK0mMrD0urtFKiapdpT6PJAGJXAFjkRTGomnEs0UUJbVeVn0ewQ+o8nVTnNNq1CHotiDkc8DntHEN9NlqGCx+GKnMX9QiFQ9CuaVYolm0a23raj9b/O/OfoWaeT4RTeFbL5zCgVEJRf1CWfBkmOUCtjYZcfvWNrQEnWVp1OV6vpW8DzV1KpPHeDTBia0lSSjFzRUAoz4Sahgzz1G/q80nUZ+f7knX0fVaH5I6BqgfSEku4HXA57JxwucKYMFlaU71+ffufhmW7Ag+/Zf/ii/+1yNYHzRisv8gnvnJszgStmLn7TvQ06DHP/3dl3Db3e/BxEg/Hv3J8/jEH/w+MsP9+P6j38PWm66DsSDhG999HJevCWFfXxGf++LfwBE9gsd+9BTu/NBHIE/249mX9mJtzxp8/bs/xod/73dxw9Z1MCIPKRPDHTfcjQ997q9w2503wMELO+UaZSjygCd+8B1MRbK49NLN+OY3v4XWnvXoaPLja1/+F2y+bisiSRk3XnElcskxBOo78MSTL+Kjv/s7uHRjN8xvgUz2ZenwFb+JMmsUD446AXkrpcjVizmpziImOxCfKJcyXRlRLZfTU8VaopVopuurA0aKhWU2WVXk78KvXijbHFldMZehA7XeArFoyMwuFZ2exumRMQycHsexU8MYC08jTz7+8hI2czdUJshWe6+MIcS5RHfZHPJhTVc7Wpvq0Byqh8/rgclknLcsUn1dugtxdGfyErJFEvYQKmDUy/zs2vZQDD4NAObp1oO5uK0WQTSkxieXoQkXfIvaFhMqinnoDAZYiN9A07plcDTLZwv+wXlOVPv6dDiB/3i2D8fjRB68UO1rCUapiF6fjLdf0YHeJtJkuHCwN40Z4pnI5IvIFRXgpsW6M3Hu7MNeOxs0HmwlryXUZNUAACAASURBVK268kFJjFchYHks6ASxi8Wk4x2M0ShY387HQ33m3bt3IVRnxEMPfhtRtOBP/+iDOLDrRaTjp/Hq8ThuvPlm7Nv9S4xGCviLP/19JCOj+Mc//xvoAs3YvG4NJsJh3Hr/O9Dqt+NPP/Zb6Nq8AQdGjHjP+z4A5/RhBgh3feBDeOyr/xeTxRJsFiv6Bifxtne8C795306YdTlMDh3Fjbf9Dv7xPx7ENZdvgE0NDcg5pOIT+L3P/AP+5DOfQnuzDwdefgn//M8P4l0f+W089/gj2HLLrdh5w6X49O9/DiZ7AyzmPAaHx3HXe9+Pe26/GXY1OfJ87IS3+jOpmEHNH3mrv+8KvN+yehBUgEB/F4pFJJJJjI6FMTg8gf7RKQyNhZHK5iFpiGIE1pqx3IlXVWvFa9IRxZ5eFJC77Ba0NwbR2RRAW1M9GuqCcDntMBlNc/r2VJBAZXmlkqDfZGUvYjVktq2ZeuG8V2chDyHtSSWPbICXMZa/mP6drcVGwnFEUwW0htxwWYSLS7s+rFTsk+5LbXhkKIxvvTCIwYwQ2ZkF9s0akaVKhmZrHu+4qhObOvywmfRlz9NylWEupm0Xem55HLG8LLN0l5+79h7lITWXe2AeuFx7iXbGVHZFosWpvViXvswVf34ihApA2INQgx+p8Gl88Dc+iI//2ZcQmUjglitb8fhPX8G1N1yLn/34UUwUPfjHv/pjyOlpfPfBBzGUKGH9mrVIJBO48Z470ey24m8/9YdoXNWJvYPAe3+jAhDu/M0P4OF/+hJW77gLV1y2ASZZB4fLjQa/F3pdHunpUbzrzvdjx4c+gfd/6J1wEeiXJZQKcQyePIzf/ZN/wV9/6a+xpqMOJw/ux7999eu4/q77seupJ3H1Hbdh++Vd+B8f+xPsfOeHceUl7TwQ7B4fgn5fOeB0Po/jhY73C+68swEIsxmvKqs217xin4Viec/PubeYflx2gEA/zmWLk2EMjU2hf2waQ2MRRBNpLklS3fWi/cUSVvm3Zq+rMMxV+klxm2uLyJWraUcf8NjQ1uBFBwGFUJCrHyxU7aDestaqKvzcbFYVw67eusZ/UG5PmuQMEpS7qvxN53oYzLXwklfm1EgERUjobgrCSjTKixkNSzyX2i1XkrDr8DB+uG8cE3kCCJX0LLWntaBB+1wEEAKmPKs6XtkbhN1MXqAlPsw5vEwABK1kbCW8pY3taKNoqkdgQY9Z7cuc4xJNQ7E7VITJloM+e0HPuOSTZGRzGfzyly/CHwhgXXcd/vXv/wrPvBHHZ//kf8GWH8F/P/4CrrnpZiRPn8TDP3wan/qLLyBokfHU40+iuacXbqMOx/sHcMXNN8JpkPDQ1x7C23ZsxTef2I/73vthOBPH8egTT+HeD38ER55/Ci8MJPCxD70XplIJZosDq7paodfTLiGD7/37V/Hdn7+OD3/i41jb1QorJExOnEY+n8NXvvwQLrnhVty+81qMnjyGPXtfw7XXXY+H/+MhbLvtVrzt5svx4Je/ismUDu/9jftRTKdh9Xg5X4pCPsJNfQEM6CX35fl04Vlsg2ovnfVW6uqg+u/Op3df/mdZVoBAKz3xGpzsO4kDBw/j0KlRFAxOTMcTiE6FkU0leTHWGwxweb2wu7yw2t2QDQbhkuboT+VQFQLFJ9WkKKKb1FiPxII3XocRGzpDaPRY0NHahIZQQ/mMqh2cGjbS4BH1N2aP2muXuKoHXMYFeE7IOmuvz7YRpc+Ix/740CTvIle3h6ozt5d//IieofBGoYSf7RvAU4cimC6KBMW5pmrt51TW5tTncctaP3Zc0gSXzXzeusarm7AaSmrHa3k5UBZ5fmc1N2ahi4X22oUmu6koV/sbZ2EzV2jIMGfB2Gg/nvvFi8hLRtx40zWwSVl87/EXce99t+K13S/ipb1H0Ll+E7Zfth6/fOZpxGUzGgMBWByO/7+9L4Fu6zjP/bADJLgCJEiCmyhukihRUqzNkmVLtiPZrlrvif3ivPQkbZN36sR56Tmtu7+85zit05ek8UvcNM6xmyZ2HEuO99i1HVmybMtarMWSKIn7TnAFiR24974zM/cCFyBAghIoUvTgHB6SwMXcmW/mzv/Nv2Lz5g3wDPfg0AeHobHkQKPVodThQLZ2Eq+8cRTXXHs9LOIUDh0+hh1/sAe1jlz84tm9KCh0wFlegea1a+F02Nk6kyLUlPC7N/ajvc+F6qoqKtjNFguaVq+Aq7Mde197B2ua19Hso8vra2BCCC+88AoqV63Brbt2wD82gGef2Yt8RyXKneVYs24timwFiFnLlOOsvJdwvjBvS+tSw99TblhJeroYH6n5ADSzBAFAOBRGS8s5nD1/Efs/OIru3kFUV1fBajHDpNfDoNdDq9dD1DCP0JHxKWgt2dBbCmDKsUHSkWhl5elR3LmSDT2mXNVrJRRaTSjM0iI4PkQ1Ceuam+B0loFU56J783SrwXzgecXaJB4c/mCIOsjl52VHQ2rI+ySa4HhLN9Y3VqIwi4XdRbNQxvObjPSXyCS3P4zXjnbh3YtueCRmYkj1YjKMaGOUTVOCEWFsW2bGHZuqkZctJ77JSO8utZFYBrxoJsSo9iq++jszd8UoZpyCkf7DxqloytSKgZicSLgfYxRxkSBpyZQ0CcKCb3CiCK9nDMOj4/BHgNKyMuSaDZjyBGAxazHiGoHHH4LObEEJEeSREHr7hqDVGVFU4qA58hEJYGRkGG4P8UDPQlWZA+6RfoxP+GHJzqGZQic9XuTa7CjKz8HU+DBGxzzIzitAkd1GzTAMU4KGCDESpJEKgZBIM6gSzYYtPxcaKYy+ngEEggJM2SRfvx3+qQmMjLmhNWWjtNgGk07C6OgIxtxB5BUUUvMCLQesciil95LXfgZPFpe6wPn3OAKzIpBxgkBqKZxvacHY+DiOnziJ37/ze3z+85/HxMQ4RoaHQaIZSFjIypUr4XQ64fH60e8axemL3RgL6ZFtrwD05rTOSyTfmdUIVBQXQPRP4JOjH6Kn/Txu3XUjPnvTDbR9kpExiXVhVmAW9II0dm8iBzzBELoGx5Cfm4WSwlyqfyGyKAygfWAMoWAYK5aVUDuoIlzmpqdIDwVieyeRIC8e6cbRHj8CMM38xWnjk0Bi+Dc59bh7SzXsudmICzufC7VPr8uzXCULDCFMfVQErR46nZ6VcKWbvEhPnRFBgKjRg2ipGUlgWRNJ3U/iIW0kYXRy2KkkBqifgqAhmUBZLgriz6K0R6rMkTBbUdBDIPXntTrQHJ6kqpzc2/QIwmwXx5OVtNrMCKaxRqgJRP6XVaNkhdCijslqP/FoVJKKVsW9x8gmq/ehWt3UnCnrGZWIHhrdI3uyJ1H7S2ReZTKt1IqiX6X9VbWuEvxqMshMTqwvcq9ixJDdmr0WAvQMzyFv7tOBQIYJgkSLLbWcP4/JiUm0trbiBz/8AUpKSmAwGOgmS7IgBoMBWpBJr9dj/frPYPOWzTBbcnH4dCuGhWyYbeWAJrodJ5kJUmtLhKPQAkdeFlrPnsSJIx9hdKgPCPtx3713YveuG1FeXh574Bf7s6k+Vs5AEGJBJxoIkoSBiSkMj01hWZkdeRaShZBVnvQFwzja0oV1q2qQQ0rRzuN6JpX3SE6J5w/3oGVEorHB6b4Ux1aNFEGTTcJdm6tQ7cinMeSXlVI73Q4kvY44qkbQceE0fvqTf8OQR4s//fo38JnVDdRkI4l+nPv4OL7z2L/CXlEJi0bEhdYelJWXwWI2QtTosLxhFb765ftBMkUO9A/g1VdfpXk/iCq8cdVqlDkrsOmatbAV5FOntnBgHL9+5lkcO9MJe6Ed167dAKvTjjXr1tDUS0SmzEWupF5C6uihubR4WYDGfVlZw9RfImoqJKSLSc84Ehst1cu0YGpHaHWjyWz86vvEd0BFVhS9TpL7xMhCzLdDeY/8TqRaKe9HyU8CM1gY6DM3ibylTwUCmSUINHqBEIQL6O3pw89+9iRVI69fvx55eXk0/DASCaO9vR2CIGDPnj20vsLRI0fpe1qzFf4sJ6yVq6E3Zk3bEpmLowirSYvGmiJMulz4/dvvorOtFVLYB4S8MGrDuP/eO3HzzTtjBEHZWhfzQxklCMm2dhZZwbZ25q3BNlficyCic9ANg06DakdeNOQyAuB42zCsZgMaywuip9BMr2rSBxIBcr57FM980IvOKS0kkgNhNlWFYl2Q1Ts0C2BWAHdsqkJzjYOGkqZrqr/8MSXDnCRecePgmy/jn/7ll7jxv30FX7r/dhSYDAh7h/HU44/j4OlePPj3D6MyR8Aj330a33joa1he5cCU14/9h45iz67rMDrQiR9+/99RUN2IL3zhXhTn6HH844/xyltHcP/996CmsgxaUcCh13+D37z6Nv76+z+GyTuJN/e+BU1RPm79w5ugDQZoPD4h18SpLhgQoNEKCJM6ISJLxWOyGAEhgmBIgMliptdFQiFEwhJMJiONuAkEwjCYdFRVbjSZ5Yyal4/eXFuYjrZ6McSYfPQ6tWJAjtSICejpxCl2OfuLnv7lN5lGIDlBSGcccSQg2o6iHkiywdBrZFKmeDXPcABIpw/8Go7AlUIgwwQB8Hg9aGtrR39/H06dOg2LhWS00kfLOBPNwZo1a3DLLbfAbrfTcYbDYbS1tuHfn/oPtE9IqN2wC4Zsm3yaYA+fXiPRpET2XCNyzDoc+/gMTp06i7DHDYSmYJQCcBRmYcO6Vdiwvhn19XWw2WzM9n41PJBxBIH8o5z5yd+MIEwFI/AHgyjMIdnAmOmEqLP7Ricx7vahurQQOWYW3ihoNOgYdqO/dwhbmmup09V88CPSu2BYwIm2Iew75kK/T081GLETk1q3qlrWikxQ5IEkolA3hds3V2FrYylMGaw0OfvDxDCOYc42dTEygaMfvov9B1rQ5grj69/8ChoqHejraMMvnvg3hHRG7PnSH6MiR8S3H/kZvvTlB1DjtODM6bOw1W9CfYkVLz/zc7xxuAMPfutbWFlTDp0kUNNE38AIrLk5KMjPoVqGQ6/9Et/5v0/htq/8Oe64+QaYNTqMT44hEJjAay+9go8+Ooft1+3Czl3r8L1vP4aqxlJ09vfjwslOFFXW4duP/j0CAy34h+88jR/95HsIeYfw2ssv49Chc9h+/Y3YvHUVvvu3j+BPvvUAXnj9CL759b9EU13JvKyJ2fBOThDIKVul51I/tinIZqrHOp4gkEMFCZtlvUokCHMFIDlBIIWlSOtJ9HT0vuqbJ8RszwYW/5wjsIAIZJwgDA0Noqu7B729vdSBiPgckLBHUpipuLgYO3bsQH19PYzGeOc5v9+Pp3/1HA61uFDWdB105hzG/bUCzHot8ixaWiehb2AUp891wOUahhDwwhDxwpYFNFY7sKG5EXU1VbRENEl3qdPJ1tuo8F1ApNO+tXo3jHWc/DUZCKG1awjOUjuKc83Uckuyf3kCIZxp60NxUT6WFRfQbYoQB9ekF+1dLqyqdTLzwzwQJdLkVCCMg5/04I1PJjAWMbFQ1tnupR6mHCxoxRRu+0w5dq4qRbZBC200y88lVO1MG++Yqjg+/xkjCB9+dBij4xJef2EfNt5yB+7dcx0Ovn0AWsmEjw69i10PfAEVuQL+4n8+Ckd5Oex5enT3DeKrf/0I6gp1+PE//W+0eEx4+OG/wrKifCqgJJJtUZFW9EQrIODuxxOP/xj/ue+/sGLtBnzuvnuwpsGJI+8fRUTSIeT34Qf/+hM89sSP8frPf4bipkbsuf2PcOH9Qzh5sRf3/PEDsPiGsP9YH/5w92fwxouvA3orvFPj+ODoKdx+3934j8cew56v/QlWN61FVXEpCnKJlm5upos5wJry0jh5rwhQCkkChU1YI4mdnZ0gMOF8+XntEu8kk3a6zmXvhLj+q9ZrCnKTCRx5GxyB+UYgswQBkpwDYRQDA/1wuVzo6uqi2oPm5mZs3LhRNjXEUhorqnJCIH79wis4PRiGtbwJktYIHY1O0MGilzDpHsf5i73o6htDMCxBKwaRrQ+j1pGFtfUVWLOiBqUOGwoLCqLkg+3B6k1nNqk133DP0P60jYS9QU4+NMEjLX0LdLrcGJ7wYmNDqXxe0SAiijh2oZcWtVrhtMGgZddOeANo7RlGdbkNdispdpP50wvp5Zg3hDeOduBAqwce0RxXpCldRMnJzCz5sa0uD7dvrEK+XNWRTd/8z9t0DslMDO8fOQaNLh9Drcfx/Nun8Vff/HN8cHA/rr12C1567jnsfuCLKM8V8MijT+LPvvZnqK4qwOnT5+BYtgpFFhFPfv+fcXwgjIf/7mHUO4tp7n9qLqKTykgQCfN0DfXCYtbjg/cP492Dh3DuzDls3HYt/GErgkEfaisKQcp233LH3fjdz59E0br1uHn3jQgNteK733sCG3beBnhd2L7zVugjA3j8R89CyrKhvMgMc5YVN+3ahUcfeggP/vBxlNnywKiBzFPSnaQMXheHd/SfhIdANe3qgFIluRr7WC3+Y19If8Wo9Q3xzoXKcGOR7/F7yfT7x74RB5WSCGM+VHgZnBPeFEcgEYFLIwipWDFNUSwhHI7A7XZjeHgYfX19tPJiQ0MDrFYrtNpYljx1Z0iZ5yef/hUuDPlQ0rABxaVO5GXr4HW70XqxA61d/ZjyhangyzbqUFmci6aaYqyudaKmwkGdvYg5Q9EaJHcYYsw/qSpwodeGKoRObXwn6ZPHPQHkWi3INhngDgrYf/gMbtu2mhIB8iLOime6x+hZaYUzj6YqJp4KU0Tj0DuCkqJclOSpyuVmcKxEzrkmA3j5cAcOd/nghxyBksjLZtscJQk6KYQ1Di2+eEMdbDnE3n75Z7+0hppUmhCCMIn3jxyFxmRHXXkB/tfffBshnR33f/FzqLKZaJGh3Q/8dzjzgP/z3afwjYf+B2qrHQh4fejuHYIxy4TelmN46rk3sevOe7F75zbkmLUIBQJou9gFe5kTNlsBrUL4xqv7YLbkYMsNNyIwMYjX9z2HE91jKK5YhbLiAtx683XouXgBtvJqvPjTp+BYvwY37d4JU3gSz//yWbz13kl89q47cdfuHfCOd+M/f/Eysh3VuOO2HRgZdMFeWoK/++qDeOjxH8KRn4usueZkSAvIuV8UB32KZ4BRxNimo6EClzjjJhKES9E0zUAQ5I/orxnCpKNjSNwXE5K6zdWcMXc0+Tc4AplF4PIJAn14pj9JREAT8wIhCuSHEAPiqEjIAoloSKw22N/fj9/s3YfRyQDGgzo0rF6PgcFBtLb3YXjETVXmJL1xiS0Pq+oq0VTrxMqaMtht+cixZlNicGWylU0/a2ZmSpTdRWmfSdQpfwjtQxPU78Bps8Ininjj3RPYvbUZWQYyZiAiSTjfP4lQRMCKshyYDSzxFIlkuNg/Qov3OAtIGGTmX8RBsXvYg98e6capgRBCScsdK+xAvYNO7wuppFmbG8FXdtbSsE1iIZpGETIMP+2RSkqxnrISwAO9rfjlr36NoCYX9959O9qOH8Brh9vwF3/5DfzXs0/jnf3vY9WWa5FnlPC7Nz/E1uu2wF6YR5OFCQJwx+fuQY5BwP79B3Ho8Ak4SoqRk0V8coxYvnw5Vq5Zg/y8XBri+dK+Z+Ce8CCsMSISCsAzMYG1266HFAnhtVdeQ0lpOeoqK1C5vApPfO9HqGhuxpf/9Msoy7diuLsN//KD/4f7HvwmmmoqIIU8eP/Ae3jptbdQVFKBVY0NsBfl4p//8VFcd9c9+MJ9xFkyO/OL4XJbTHXwSGw3ffXA5fUozf6kJggJt5+NJF9eb/m3OQIZR+DSCILSjbgngznSqZPG0NOtIFCiMDY2RkMbTSYTdU7MySGJTLQQRZFqGt577z1qjqhvaMQ7Bz7AyFQEg+NBKvRIm1arGSvrqrG+qQ51y5yocpYilzjrGQw0njzla5bNZG57zTxrIGhn4j2eSRGg/jEPcrMtsOWYMBkW8dahU9izvRlG+YQdESWc7R2jlTFXOHNh0pGMCFp4gmG09o2g2GZFaX7OvBCEiCDSGgwvfdSF9nERAnSXcVCS4MwK4/7tNahxOmAkBGGeMwImUpYoQYBA7fc93b0Ia0w0+55eCNKEUHZ7HnrbL8DtDcNozoIeEny+AI0eIHkLCJk1mSyoXVYNnUZAwO9FT3c3QuEINBoTtAYDSspKKbGluRAkEaOjLojhIMYmxhAR9dAaTKiorIAm4kd3dw+CghYljhJY9GG0d/ZDn51HE5DlGA0ATSI0gLzSMqplIo6QPo+bJv3xhIASRzEtStTVPQitNQ/1NTXIJt/jL44AR4AjMAMCcyYIMx3gEj9Tq/nJqYo4K46MjIA4JBJtAjE5EOJAzBA9PT0oLCxEfkEB9u57ES3t/ZgKAkaDDlUV5dh8TTNW1FejuoKpZUnoFpMdMimJDjJB5E9jAPG9VE6QyXykkjaZ5qlizqsuuaQCyTFACiFRhz0N0DvqQdfABLaurmCFYEhiJFHEx60DtPbEyvICmlWR+iD4AtTEUO0sZD4IdOiZGwCt1imIaO8bwdG2UbjDjJhc8kuSaMrltcvy0bDMyRINXblYx9h0yzUWmCaB+KGxMcVoKCOKLN0PEfBySVgNoXexdOHM54PMhFrDRrwQWGNKuCq7MbmG5AKQINL7KcmD1MGt5F2RZiFVzGRsOln7JOMj6xEh60zdrqQkor4P5H8Ni2aJ6nR4nYBLXq78ixyBpY5ARglCIljJ/ACIRoGQhMHBQXi93mi0gds9RXMkkL3v+b2/xfm2TuiMWdi8aT22btqI8jIHSmmK1Zh7VXKTQsIpP44gpNAAzKZGUH+eOfma1tqKlqfWaGi9gzMXe1FZUYTinCya24DIMm84go/Pd8FRlI/aElssimHKh46uIaxYXoZ8s4kJBSpRFJJ0eTpP0jeSHdDjD8PtDyEQiZYboPdK5DzpDFhHKnRa9MjPNsGk117BXAjq3slCmQ5gulZMuTK2vmfGM5bcSv5mNBNgLPkPvZOKDMUvW7n9FNOVbPkqCYVmeyZTXZfOXPFrOAIcgaWNQBoEIX77Uf4jzmnEe55sMNHyy/K5hOQ4p+VmU2BHvhMMBmn+A2JyIBvj+Pg4jXqYmprC2++8A38ghA0bNqJ2+XKUOIqQn59H8ymoN9vYhkr6IW/miZuo/H7s+BfTIERHtigIwnTBHRsrQ5hEJbg9XpQWFcCo0zEiQNIcT3gwNDaJqpJCFGQxIkDCHztHJtHX78KmphoYSWXHDGsQCOLEByEUEWkuBFoyO8lZO+7EqsjIJAEVFAENqObAYtDBoFSjvDweM/sTHLcQYoshuqbkE3+UGMQYAhttnPpJyVQYW/3qGHx24JdRknN0RFGLRmzEtBDsLbZmY9fFAzLr8iVaAnKRVo4eUko8LIB2ZvbJ4FdwBDgCiwWBORMEWiQoLKBveAIDYz4IAilswjZJZdvKzTJiubMQ+Rb51JrGaIkwJKaH0ZFRDA4Nwmg2wV5og81ml0nETI3IquC4U9jsR/3ZNtZpd5zzF9IYeNwlKW5ASRhLfkReLAk1I2bk1N45NE6FaVUxSVFMVN5AWJJwsmMEZoMGKyvtl6P4n3EQTIsgUf8HosROVBvE6BhbH+oRJs6QQhD0GkIw5fTCV0qIzUCe4imlIqblMr7T3NvVo1K+mSDQEwmC/HHq+pdsCmKn/bl560eHlugrOt/Ea67Ln1/PEeAILCoE0iAIsf4SrYE3FMGJC30409oJe0Ee9RFQv8KCiK7+MWxtXo5rVlQyO+ssQ1arOYWIAF/AT7UKFjNJGUvUzLO1MJ+h8gliTC3xrtRUyl1QwqlZfXmmPRia8MI1PoXy4nwUWi0UbyI+fKEIjrX0oKm+CgXm+a3FoJyQlXMuFWbyvMejxyiC+jOFNMR+x6RYosPrvMKt7ihVC8TuFk8Q5Pejk5Fqgas0EdP8F1Q3kBtPvqziCWOqFpP1VHlvtuU62+fzijlvnCPAEVjUCCQlCMk2DUIOPMEITrYSctCLxmWluGZlJcwGPU36MukPIhwRYDQa8OKBM7SI0mc31YOcBmcS78nOzHGnzHTjtVMevtkHxJmOmUNkxz6i+ZAduchbxAmQpi+WJRU1k+iJR37iOXee5jPFTj3t9CffnpAAbzCE7oFRWLNJCGQuNevQsUpAx6AbPp8XK5eX0QJDaVCsyxpYxgSNMkG0N+p6ubFKfJkbi2rRpEUQ4kUxy9KXwCaSoBiPDbtR/DdTLN5kCaJmBHr6h9PeSXgjY/N2WauHf5kjwBFYjAhMIwipBLY3KOD4hV6ca++jTm/NdU7kmFjefxKrf+jEBQyNjmPL+hX48GwfCrON2L2pcU4FYVJtk/HApb4q+olqsxckEW5fCF1Dkxj3BBEIhSGIIiIC8f5nF1KfcUIQSJldnRZGvQ62XDOqHHnIi8voFxNN6fV1DlOu3qlVf08TJ7IAJT4GvlAIHl8ABblWVmtBI1HfA5L6+INT7diwsgo2q3neyYHMueIGe2lCPCXLUyXGyWRNCaXEsOwvMIdOK/MSS+U7hy8nOHCymBP199V/T1sMl8b2lGYyvnDnsMb5pRwBjsBVhcCsJgayn/hCAk62DeDU+W40Li9DnbMQWkmCvYCdWklCniNnOzHq9mL9qhocPNlBCcItmxrp5zNunfKGRc/2CXXUkyNJvkB+prtAJhIE8r8/GMZHFwdwqGUEowENQgJLXUyqHxIiwELCgKAgUcKg02hg1IrIMwrYWl+A7U3VMJDaw9PSNs/TPCfdwFU2Z5nUkJA2EgJJkZAxJv+FSGXFriFaoKahuhgmuepj9JyrIk+ZZg6X3/R0B795QjlRFcD+n5uMn4euJVvbGZDoGWhiHgbLm+QIcAQWOQIzEgSyrwRFCUfP9eDDkxexYfVyrK4to3HfJ893wVlciOoyGw0EI6VniamB2MV/e/AMCghB2NxIBe4V4Dn2fgAACXZJREFU33dVpGN0yo+XaBpgLwKSgSZzIj7i1cW5tO86CAhGJHS53OgZmYIgF1/RSRFcv8yIe7Y1wmwmyZiSZPVbiMlNdcimpgUJ3UNjmPQF0VhdApOW+R7EfeXypfhCjJrfkyPAEeAIcASuMALJfRDkk2lIknD8wiDeO/IJtqxrwJo6J7p7+xASgdIiOz5p6UCFs4RGLCjlh0ms/t53P1k0BGHE7ccrR9pxcTQMrZ45VBKCY6IaBFaJjRzKiQaBjEuxDQdDwCq7hDu31sNqMbGMd+k4S87XBKoFuxwOqL4V8a8YmvChY2AYq5aVwWo2QiczM9kqMZ2oXXHmNl/g8HY5AhwBjgBHINMIpCQIxNHtWNsQ3tx/BDu2NGNFTTEmJz3Uca+zdwg51iyUFhfh9NlWOEuLUVduh16no6lo9+4/TesG3LyhbsE1CC63Fx+09MBjKMBkUIuIksYuTlwyWqD41xMNQ6XDAH9XO3ZtWolsiwl6EpO/0AJVpQqI8gXZiZOMYNzjg9FkoqWSSVcVQhONEiHXsoD4TK8j3h5HgCPAEeAILDEEUhKEyWAYTzz/LpoaluGGdctAyv90Dwxj0hdAYUE+BodGYDabYCvMx9DQCKrLimC2ZOFUaz+On+vAjRsbsaKyOC6t65XFjol714QHR853o8dvwslOL4KRWPpZJTBfK6cfJuYH8h4xO/zR9jKEuruwc2MTsrNMshPglR3BzHeT3eTor4RSc+rMPHIjjNuk9t9YTCPjfeEIcAQ4AhyBhUcgKUEgKvdxbwA/3XcAW69ZhU0NZTBogUAkgs7+EUx5/XAUFcA1PI4ssxHlJXYEwgJae8dwprUHjcvKsL6xHFaj/sr7H0QxZYmEhie8ONLSjc6AGcc7fAhE6Nk6Ki6peI1Wo2Tv6zQR3H19GcI9ndi5YZEQhKSOBIprevLoinirBM3EL6PDNQgL/+jxHnAEOAIcgcWNQAoNAgsBfONwCzr6h7Bjw0o0VBTRnAaBMCEJLoy5p1DldECMRJCTm4tznS60tPeittKBtfVOWIlj3/RivVcUDUYQPPEEQVBSNynCdXqXdCAEoVRFEMwwkEiBhTQxpOlpGLuMjS9GEhTvClnjcEVngt+MI8AR4AhwBK42BFJGMRBT/bgngAMnWjE0Mo5t6+pRV15MBWUwEkH34Ahys7JgzcnG8ZYetHT0Y3VdOZqWl8Jq0kFDogEWTKIy8wL5GUkkCBE5h+8MBYumE4TFZGKYPWYtNnolgmQhmc3V9kjw/nIEOAIcAY4APUpK00rNsZzv5LhM4uwnSBKkk63oGxzD9vX1qKsoppoEUmI4JAj4+MIAjp9px8bVy7GmthRZRj0LrVvQMrLMvEB8CkbcionBhOMdfmZiSFU1T14Ti58gzOxoGB/JODuh4I8CR4AjwBHgCHAEEhGYnklRldqYCHlSe97tDeLwmQ70DI7iuvUNqCmzUQJwuKUfBz48gZu2rkVzbSnMelZhcOFfrGgQ0YKMEB+E88QHYSkRhJnNBNNTHaQ2pyz8XPEecAQ4AhwBjsBiRGBGgqB0mAhatz+Eg8cvoGdoAuvW1GLM7cNHR07itp1bsLbWAaOiuV9At8Q4gClHkDAcp0EgToqkozOnTF6UPgiLcfXwPnEEOAIcAY7AkkVg1lTLZOTk/ElJgqxJOHOhA3q9AduuacLqmmIY5GyJC+dzkHx+4qMYiAbBh0DUSTH1nHKCsGTXOx8YR4AjwBHgCKSJQFoEQSEJNPVyRITb64dBr0OuxUSz9UXL5ywyXzhOENJcBfwyjgBHgCPAEeAIJCCQNkFQmxuiFm3iiEiD6RIS9UQjBBYWb04QFhZ/fneOAEeAI8ARuHoRSJ8gyJ5vEk0qpCFhCtFRx5sWlADDWEKihYKHE4SFQp7flyPAEeAIcASudgTSJAgsKoC+FIIQowdJMFgcXvOcIFzty5P3nyPAEeAIcAQWCoH0CUJcYiFFS0C6vTgCG5MByAnCQi0rfl+OAEeAI8ARuNoRSI8gKBUDqasBq3sYeyV4Ji4O5QHtHicIV/vy5P3nCHAEOAIcgYVCIE2CwLonFzuckR8sEv9EThAWakXx+3IEOAIcAY7AkkAgPYKQONQZFAiLCRWS7ZFWc4xmUpxjHoTuTrncs6pY01Uy9sU0D7wvHAGOAEeAI3D1IXBpBOEqGSexjNBqjgpBaJcJwixFpGiipO1yNceNpNwzJwhXyZTzbnIEOAIcAY5AhhBY4gQhpkHo8htZJsUIicSg5aSiECpuE8pvHQTcdX0Zwj1dCRoEJcRT/uoiSwyVoTXBm+EIcAQ4AhwBjkDyao5LBRfqpDjuxUfnu+ESrWgbCiFEckazTA5xBCH6hgToIGFbcwECXV24ceNKZGeRcs+kfLVCITgzWCprhI+DI8AR4AhwBJIjsLQ1CJDgmvDi96e64AqZEIEOIqlkDQlaiBBlVkD+Z++yH5LrwWLUIC84gT/Y3IisLBP0Wg20lBdwcsAfJo4AR4AjwBFY+ggsUYLA8jQQYe+a8OHVIx042edHmOoGtDBpRayoLoJr1I1CWz58kxPQ6k3oGfEiGCFJodjPxnI9bt9SByslCFrQjJHcSXHpPxV8hBwBjgBHgCOwVE0MMkGQNJjwhXC4pQ/vnR3AqE+EIOmoJqAoLwueYBAWswVCIACNTge3LwRBEKHXiMizaLG1oRjbmiqQbTFARzUIWk4Q+EPDEeAIcAQ4Ap8KBJawBoEpAohGwDXpQ7drCpMBCYGIgFBYhMcXhEDNDcxqYNBpkWUywmjQwqTTwmrUoLw4B/ZcMyxGLXSkpHW0JhU3M3wqng4+SI4AR4Aj8ClGYGkSBJr5kZkYIoIEf0SENyQiHBEhiCJEQYQkks/Zi1WjlKDVaKDVaqHV6mgZa7NRi2yjjpIGFhnJvBQWc3rpT/Fa5kPnCHAEOAIcgQwisIQJArMGiKJENQVhgZADCaIIiOQTpTol0SLICgGmTWDOiERjoNexH2JeUC5SHBozOAe8KY4AR4AjwBHgCCw6BJYmQWCHfapDUF4keoH6HsoZEGhFCbXDIeMGskaBVa0k2RKIY2J8OetFN4e8QxwBjgBHgCPAEcg4AkuXIKSAKmZWmE4Q2FfkXAdRf4OMY84b5AhwBDgCHAGOwKJH4FNHEBb9jPAOcgQ4AhwBjgBHYBEgwAnCIpgE3gWOAEeAI8AR4AgsNgQ4QVhsM8L7wxHgCHAEOAIcgUWAwP8H0jACYdMtQu8AAAAASUVORK5CYII=;" vertex="1" parent="1">
          <mxGeometry x="830" y="-1030" width="520" height="182" as="geometry" />
        </mxCell>
      </root>
    </mxGraphModel>
  </diagram>
  <diagram id="OW45Y8jHjChYNBkpdlLf" name="Page-3">
    <mxGraphModel dx="1185" dy="1743" grid="1" gridSize="10" guides="1" tooltips="1" connect="1" arrows="1" fold="1" page="1" pageScale="1" pageWidth="850" pageHeight="1100" math="0" shadow="0">
      <root>
        <mxCell id="0" />
        <mxCell id="1" parent="0" />
        <mxCell id="nmbz5OsClXR1vZ3JbWJk-14" value="" style="sketch=0;aspect=fixed;pointerEvents=1;shadow=0;dashed=0;html=1;strokeColor=none;labelPosition=center;verticalLabelPosition=bottom;verticalAlign=top;align=center;fillColor=#000000;shape=mxgraph.mscae.enterprise.internet_hollow;strokeWidth=0;" vertex="1" parent="1">
          <mxGeometry x="300" y="-780" width="238.71" height="148" as="geometry" />
        </mxCell>
        <mxCell id="nmbz5OsClXR1vZ3JbWJk-49" value="&lt;h6&gt;&lt;font style=&quot;font-size: 8px ; font-weight: normal&quot; face=&quot;Times New Roman&quot;&gt;vSRX Secure Gateway&lt;/font&gt;&lt;/h6&gt;" style="text;html=1;strokeColor=none;fillColor=none;align=center;verticalAlign=middle;whiteSpace=wrap;rounded=0;sketch=0;" vertex="1" parent="1">
          <mxGeometry x="315.67" y="-666.73" width="70" height="30.46" as="geometry" />
        </mxCell>
        <mxCell id="nmbz5OsClXR1vZ3JbWJk-48" value="&lt;h6&gt;&lt;font style=&quot;font-size: 8px ; font-weight: normal&quot; face=&quot;Times New Roman&quot;&gt;MEC Server&lt;/font&gt;&lt;/h6&gt;" style="text;html=1;strokeColor=none;fillColor=none;align=center;verticalAlign=middle;whiteSpace=wrap;rounded=0;sketch=0;" vertex="1" parent="1">
          <mxGeometry x="363" y="-702.82" width="70" height="30.46" as="geometry" />
        </mxCell>
        <mxCell id="nmbz5OsClXR1vZ3JbWJk-34" value="" style="rounded=0;whiteSpace=wrap;html=1;sketch=0;strokeColor=default;strokeWidth=2;fillColor=none;rotation=90;" vertex="1" parent="1">
          <mxGeometry x="120.00000000000001" y="-741" width="200" height="60" as="geometry" />
        </mxCell>
        <mxCell id="nmbz5OsClXR1vZ3JbWJk-8" value="" style="sketch=0;outlineConnect=0;fontColor=#232F3E;gradientColor=none;fillColor=#000000;strokeColor=default;dashed=0;verticalLabelPosition=bottom;verticalAlign=top;align=center;html=1;fontSize=12;fontStyle=0;aspect=fixed;pointerEvents=1;shape=mxgraph.aws4.traditional_server;" vertex="1" parent="1">
          <mxGeometry x="590" y="-730" width="45" height="78" as="geometry" />
        </mxCell>
        <mxCell id="nmbz5OsClXR1vZ3JbWJk-15" value="" style="sketch=0;aspect=fixed;pointerEvents=1;shadow=0;dashed=0;html=1;strokeColor=none;labelPosition=center;verticalLabelPosition=bottom;verticalAlign=top;align=center;fillColor=#000000;shape=mxgraph.mscae.enterprise.internet_hollow;strokeWidth=0;" vertex="1" parent="1">
          <mxGeometry x="690" y="-727" width="100" height="62" as="geometry" />
        </mxCell>
        <mxCell id="nmbz5OsClXR1vZ3JbWJk-16" value="" style="sketch=0;aspect=fixed;pointerEvents=1;shadow=0;dashed=0;html=1;strokeColor=none;labelPosition=center;verticalLabelPosition=bottom;verticalAlign=top;align=center;fillColor=#000000;shape=mxgraph.mscae.enterprise.internet_hollow;strokeWidth=0;" vertex="1" parent="1">
          <mxGeometry x="830" y="-727" width="100" height="62" as="geometry" />
        </mxCell>
        <mxCell id="nmbz5OsClXR1vZ3JbWJk-17" value="" style="sketch=0;outlineConnect=0;fontColor=#232F3E;gradientColor=none;fillColor=#000000;strokeColor=default;dashed=0;verticalLabelPosition=bottom;verticalAlign=top;align=center;html=1;fontSize=12;fontStyle=0;aspect=fixed;pointerEvents=1;shape=mxgraph.aws4.traditional_server;" vertex="1" parent="1">
          <mxGeometry x="386.64" y="-729.63" width="20.77" height="36" as="geometry" />
        </mxCell>
        <mxCell id="nmbz5OsClXR1vZ3JbWJk-20" value="" style="sketch=0;outlineConnect=0;fontColor=#232F3E;gradientColor=none;fillColor=#232F3D;strokeColor=none;dashed=0;verticalLabelPosition=bottom;verticalAlign=top;align=center;html=1;fontSize=12;fontStyle=0;aspect=fixed;pointerEvents=1;shape=mxgraph.aws4.mobile_client;" vertex="1" parent="1">
          <mxGeometry x="211.5" y="-699" width="15" height="28.54" as="geometry" />
        </mxCell>
        <mxCell id="nmbz5OsClXR1vZ3JbWJk-22" value="" style="sketch=0;outlineConnect=0;fontColor=#232F3E;gradientColor=none;fillColor=#232F3D;strokeColor=none;dashed=0;verticalLabelPosition=bottom;verticalAlign=top;align=center;html=1;fontSize=12;fontStyle=0;aspect=fixed;pointerEvents=1;shape=mxgraph.aws4.external_sdk;" vertex="1" parent="1">
          <mxGeometry x="416.61" y="-680" width="23.99" height="27.52" as="geometry" />
        </mxCell>
        <mxCell id="nmbz5OsClXR1vZ3JbWJk-23" value="" style="sketch=0;outlineConnect=0;gradientColor=none;fontColor=#545B64;strokeColor=none;fillColor=#000000;dashed=0;verticalLabelPosition=bottom;verticalAlign=top;align=center;html=1;fontSize=12;fontStyle=0;aspect=fixed;shape=mxgraph.aws4.illustration_devices;pointerEvents=1" vertex="1" parent="1">
          <mxGeometry x="199.65" y="-805.26" width="38.71" height="28.26" as="geometry" />
        </mxCell>
        <mxCell id="nmbz5OsClXR1vZ3JbWJk-24" value="" style="sketch=0;outlineConnect=0;gradientColor=none;fontColor=#545B64;strokeColor=none;fillColor=#000000;dashed=0;verticalLabelPosition=bottom;verticalAlign=top;align=center;html=1;fontSize=12;fontStyle=0;aspect=fixed;shape=mxgraph.aws4.illustration_office_building;pointerEvents=1" vertex="1" parent="1">
          <mxGeometry x="199.65" y="-748.25" width="44.01" height="31.25" as="geometry" />
        </mxCell>
        <mxCell id="nmbz5OsClXR1vZ3JbWJk-29" value="" style="shape=image;html=1;verticalAlign=top;verticalLabelPosition=bottom;labelBackgroundColor=#ffffff;imageAspect=0;aspect=fixed;image=https://cdn2.iconfinder.com/data/icons/competitive-strategy-and-corporate-training/512/174_network_city_globe_hub_infrastructure_network_cloud_smart_computing-128.png;sketch=0;strokeColor=default;strokeWidth=0;fillColor=#000000;imageBackground=none;" vertex="1" parent="1">
          <mxGeometry x="464.39" y="-699" width="34" height="34" as="geometry" />
        </mxCell>
        <mxCell id="nmbz5OsClXR1vZ3JbWJk-30" value="" style="shape=image;html=1;verticalAlign=top;verticalLabelPosition=bottom;labelBackgroundColor=#ffffff;imageAspect=0;aspect=fixed;image=https://cdn4.iconfinder.com/data/icons/internet-networking-and-communication-glyph-24/24/Mobile_mobile_wifi_wifi_connection_wifi_signals_wireless_internet-128.png;sketch=0;strokeColor=default;strokeWidth=0;fillColor=#000000;" vertex="1" parent="1">
          <mxGeometry x="871.5" y="-710.5" width="23" height="23" as="geometry" />
        </mxCell>
        <mxCell id="nmbz5OsClXR1vZ3JbWJk-32" value="" style="shape=image;html=1;verticalAlign=top;verticalLabelPosition=bottom;labelBackgroundColor=#ffffff;imageAspect=0;aspect=fixed;image=https://cdn1.iconfinder.com/data/icons/vehicle-37/24/Car_Signal-128.png;sketch=0;strokeColor=default;strokeWidth=0;fillColor=#000000;" vertex="1" parent="1">
          <mxGeometry x="201.16" y="-665" width="41" height="41" as="geometry" />
        </mxCell>
        <mxCell id="nmbz5OsClXR1vZ3JbWJk-35" value="" style="html=1;verticalLabelPosition=bottom;align=center;labelBackgroundColor=#ffffff;verticalAlign=top;strokeWidth=2;strokeColor=#000000;shadow=0;dashed=0;shape=mxgraph.ios7.icons.home;sketch=0;fillColor=default;" vertex="1" parent="1">
          <mxGeometry x="205.88" y="-790" width="28.24" height="30" as="geometry" />
        </mxCell>
        <mxCell id="nmbz5OsClXR1vZ3JbWJk-36" value="" style="fontColor=#0066CC;verticalAlign=top;verticalLabelPosition=bottom;labelPosition=center;align=center;html=1;fillColor=#FFFFFF;strokeColor=#000000;gradientColor=none;gradientDirection=north;strokeWidth=2;shape=mxgraph.networks.radio_tower;rounded=1;shadow=0;comic=0;labelBackgroundColor=none;sketch=0;" vertex="1" parent="1">
          <mxGeometry x="388" y="-826.37" width="20" height="36.37" as="geometry" />
        </mxCell>
        <mxCell id="nmbz5OsClXR1vZ3JbWJk-37" value="" style="fontColor=#0066CC;verticalAlign=top;verticalLabelPosition=bottom;labelPosition=center;align=center;html=1;fillColor=#FFFFFF;strokeColor=#000000;gradientColor=none;gradientDirection=north;strokeWidth=2;shape=mxgraph.networks.radio_tower;rounded=1;shadow=0;comic=0;labelBackgroundColor=none;sketch=0;" vertex="1" parent="1">
          <mxGeometry x="433.6" y="-826.37" width="20" height="36.37" as="geometry" />
        </mxCell>
        <mxCell id="nmbz5OsClXR1vZ3JbWJk-39" value="&lt;font face=&quot;Times New Roman&quot; style=&quot;font-size: 10px&quot;&gt;Centralized Cloud&lt;/font&gt;" style="text;html=1;strokeColor=none;fillColor=none;align=center;verticalAlign=middle;whiteSpace=wrap;rounded=0;sketch=0;" vertex="1" parent="1">
          <mxGeometry x="710" y="-700.9200000000001" width="70" height="30.46" as="geometry" />
        </mxCell>
        <mxCell id="nmbz5OsClXR1vZ3JbWJk-40" value="&lt;font face=&quot;Times New Roman&quot; style=&quot;font-size: 10px&quot;&gt;Internet&lt;/font&gt;" style="text;html=1;strokeColor=none;fillColor=none;align=center;verticalAlign=middle;whiteSpace=wrap;rounded=0;sketch=0;" vertex="1" parent="1">
          <mxGeometry x="848" y="-699" width="70" height="30.5" as="geometry" />
        </mxCell>
        <mxCell id="nmbz5OsClXR1vZ3JbWJk-42" value="&lt;font face=&quot;Times New Roman&quot; style=&quot;font-size: 10px&quot;&gt;Core Network&lt;/font&gt;" style="text;html=1;strokeColor=none;fillColor=none;align=center;verticalAlign=middle;whiteSpace=wrap;rounded=0;sketch=0;" vertex="1" parent="1">
          <mxGeometry x="577.5" y="-650.48" width="70" height="30.46" as="geometry" />
        </mxCell>
        <mxCell id="nmbz5OsClXR1vZ3JbWJk-43" value="&lt;font face=&quot;Times New Roman&quot; style=&quot;font-size: 9px&quot;&gt;Mobile and Fixed Line Consumers&lt;/font&gt;" style="text;html=1;strokeColor=none;fillColor=none;align=center;verticalAlign=middle;whiteSpace=wrap;rounded=0;sketch=0;" vertex="1" parent="1">
          <mxGeometry x="184" y="-610" width="70" height="30.46" as="geometry" />
        </mxCell>
        <mxCell id="nmbz5OsClXR1vZ3JbWJk-44" value="&lt;h6&gt;&lt;font style=&quot;font-size: 8px ; font-weight: normal&quot; face=&quot;Times New Roman&quot;&gt;MEC Hosting Infrastructure&lt;/font&gt;&lt;/h6&gt;" style="text;html=1;strokeColor=none;fillColor=none;align=center;verticalAlign=middle;whiteSpace=wrap;rounded=0;sketch=0;" vertex="1" parent="1">
          <mxGeometry x="447.6" y="-670.46" width="70" height="30.46" as="geometry" />
        </mxCell>
        <mxCell id="nmbz5OsClXR1vZ3JbWJk-45" value="&lt;h6&gt;&lt;font style=&quot;font-size: 8px ; font-weight: normal&quot; face=&quot;Times New Roman&quot;&gt;Apps&lt;/font&gt;&lt;/h6&gt;" style="text;html=1;strokeColor=none;fillColor=none;align=center;verticalAlign=middle;whiteSpace=wrap;rounded=0;sketch=0;" vertex="1" parent="1">
          <mxGeometry x="393.59999999999997" y="-661.73" width="70" height="30.46" as="geometry" />
        </mxCell>
        <mxCell id="nmbz5OsClXR1vZ3JbWJk-50" value="" style="group" vertex="1" connectable="0" parent="1">
          <mxGeometry x="330" y="-694" width="41.349999999999966" height="32" as="geometry" />
        </mxCell>
        <mxCell id="nmbz5OsClXR1vZ3JbWJk-18" value="" style="sketch=0;aspect=fixed;pointerEvents=1;shadow=0;dashed=0;html=1;strokeColor=none;labelPosition=center;verticalLabelPosition=bottom;verticalAlign=top;align=center;fillColor=#000000;shape=mxgraph.mscae.enterprise.internet_hollow;strokeWidth=0;" vertex="1" parent="nmbz5OsClXR1vZ3JbWJk-50">
          <mxGeometry x="2.6399999999999864" y="8" width="38.71" height="24" as="geometry" />
        </mxCell>
        <mxCell id="nmbz5OsClXR1vZ3JbWJk-25" value="" style="sketch=0;outlineConnect=0;fontColor=#232F3E;gradientColor=none;fillColor=#000000;strokeColor=none;dashed=0;verticalLabelPosition=bottom;verticalAlign=top;align=center;html=1;fontSize=12;fontStyle=0;aspect=fixed;pointerEvents=1;shape=mxgraph.aws4.iot_sitewise_asset_hierarchy;" vertex="1" parent="nmbz5OsClXR1vZ3JbWJk-50">
          <mxGeometry width="17" height="17" as="geometry" />
        </mxCell>
        <mxCell id="nmbz5OsClXR1vZ3JbWJk-26" value="" style="sketch=0;outlineConnect=0;fontColor=#232F3E;gradientColor=none;fillColor=#000000;strokeColor=none;dashed=0;verticalLabelPosition=bottom;verticalAlign=top;align=center;html=1;fontSize=12;fontStyle=0;aspect=fixed;pointerEvents=1;shape=mxgraph.aws4.route_53_resolver_dns_firewall;" vertex="1" parent="nmbz5OsClXR1vZ3JbWJk-50">
          <mxGeometry x="17" y="17" width="12" height="12" as="geometry" />
        </mxCell>
        <mxCell id="nmbz5OsClXR1vZ3JbWJk-52" value="&lt;font face=&quot;Times New Roman&quot;&gt;&lt;span style=&quot;font-size: 10px&quot;&gt;Edge Computing Data Center&lt;/span&gt;&lt;/font&gt;" style="text;html=1;strokeColor=none;fillColor=none;align=center;verticalAlign=middle;whiteSpace=wrap;rounded=0;sketch=0;" vertex="1" parent="1">
          <mxGeometry x="336.28999999999996" y="-632.27" width="162.1" height="30.46" as="geometry" />
        </mxCell>
        <mxCell id="nmbz5OsClXR1vZ3JbWJk-53" value="" style="endArrow=none;html=1;rounded=0;fontFamily=Times New Roman;fontSize=8;entryX=0.856;entryY=0.002;entryDx=0;entryDy=0;entryPerimeter=0;exitX=0.071;exitY=0.941;exitDx=0;exitDy=0;exitPerimeter=0;" edge="1" parent="1" source="nmbz5OsClXR1vZ3JbWJk-14" target="nmbz5OsClXR1vZ3JbWJk-34">
          <mxGeometry width="50" height="50" relative="1" as="geometry">
            <mxPoint x="430" y="-680" as="sourcePoint" />
            <mxPoint x="480" y="-730" as="targetPoint" />
          </mxGeometry>
        </mxCell>
        <mxCell id="nmbz5OsClXR1vZ3JbWJk-54" value="" style="endArrow=none;html=1;rounded=0;fontFamily=Times New Roman;fontSize=8;entryX=0.856;entryY=0.002;entryDx=0;entryDy=0;entryPerimeter=0;exitX=0.022;exitY=0.646;exitDx=0;exitDy=0;exitPerimeter=0;" edge="1" parent="1" source="nmbz5OsClXR1vZ3JbWJk-14">
          <mxGeometry width="50" height="50" relative="1" as="geometry">
            <mxPoint x="315.67251" y="-684.9599999999999" as="sourcePoint" />
            <mxPoint x="249.5200000000001" y="-684.5000000000001" as="targetPoint" />
          </mxGeometry>
        </mxCell>
        <mxCell id="nmbz5OsClXR1vZ3JbWJk-56" value="" style="endArrow=none;html=1;rounded=0;fontFamily=Times New Roman;fontSize=8;entryX=0.417;entryY=0.016;entryDx=0;entryDy=0;entryPerimeter=0;exitX=0.261;exitY=0.347;exitDx=0;exitDy=0;exitPerimeter=0;" edge="1" parent="1" source="nmbz5OsClXR1vZ3JbWJk-14" target="nmbz5OsClXR1vZ3JbWJk-34">
          <mxGeometry width="50" height="50" relative="1" as="geometry">
            <mxPoint x="315.67251" y="-732.85" as="sourcePoint" />
            <mxPoint x="249.51999999999998" y="-732.3900000000001" as="targetPoint" />
          </mxGeometry>
        </mxCell>
        <mxCell id="nmbz5OsClXR1vZ3JbWJk-57" value="" style="endArrow=none;html=1;rounded=0;fontFamily=Times New Roman;fontSize=8;entryX=0.856;entryY=0.002;entryDx=0;entryDy=0;entryPerimeter=0;exitX=0.428;exitY=0.068;exitDx=0;exitDy=0;exitPerimeter=0;" edge="1" parent="1" source="nmbz5OsClXR1vZ3JbWJk-14">
          <mxGeometry width="50" height="50" relative="1" as="geometry">
            <mxPoint x="406.22595" y="-770.3040000000001" as="sourcePoint" />
            <mxPoint x="249.80999999999997" y="-769.5900000000001" as="targetPoint" />
          </mxGeometry>
        </mxCell>
        <mxCell id="nmbz5OsClXR1vZ3JbWJk-59" value="" style="group" vertex="1" connectable="0" parent="1">
          <mxGeometry x="409.77000000000004" y="-746" width="70" height="43.23000000000002" as="geometry" />
        </mxCell>
        <mxCell id="nmbz5OsClXR1vZ3JbWJk-28" value="" style="sketch=0;pointerEvents=1;shadow=0;dashed=0;html=1;strokeColor=none;fillColor=#000000;aspect=fixed;labelPosition=center;verticalLabelPosition=bottom;verticalAlign=top;align=center;outlineConnect=0;shape=mxgraph.vvd.logical_firewall;" vertex="1" parent="nmbz5OsClXR1vZ3JbWJk-59">
          <mxGeometry x="22.22999999999996" width="21.2" height="21.86" as="geometry" />
        </mxCell>
        <mxCell id="nmbz5OsClXR1vZ3JbWJk-46" value="&lt;h6&gt;&lt;font style=&quot;font-size: 8px ; font-weight: normal&quot; face=&quot;Times New Roman&quot;&gt;Firewall /NAT&lt;/font&gt;&lt;/h6&gt;" style="text;html=1;strokeColor=none;fillColor=none;align=center;verticalAlign=middle;whiteSpace=wrap;rounded=0;sketch=0;" vertex="1" parent="nmbz5OsClXR1vZ3JbWJk-59">
          <mxGeometry y="12.769999999999982" width="70" height="30.46" as="geometry" />
        </mxCell>
        <mxCell id="nmbz5OsClXR1vZ3JbWJk-60" value="" style="endArrow=none;html=1;rounded=0;fontFamily=Times New Roman;fontSize=8;entryX=0.55;entryY=0.872;entryDx=0;entryDy=0;entryPerimeter=0;exitX=0.466;exitY=0.041;exitDx=0;exitDy=0;exitPerimeter=0;" edge="1" parent="1" source="nmbz5OsClXR1vZ3JbWJk-14" target="nmbz5OsClXR1vZ3JbWJk-36">
          <mxGeometry width="50" height="50" relative="1" as="geometry">
            <mxPoint x="390" y="-730" as="sourcePoint" />
            <mxPoint x="440" y="-780" as="targetPoint" />
          </mxGeometry>
        </mxCell>
        <mxCell id="nmbz5OsClXR1vZ3JbWJk-61" value="" style="endArrow=none;html=1;rounded=0;fontFamily=Times New Roman;fontSize=8;entryX=0.553;entryY=0.936;entryDx=0;entryDy=0;entryPerimeter=0;exitX=0.547;exitY=0.034;exitDx=0;exitDy=0;exitPerimeter=0;" edge="1" parent="1" source="nmbz5OsClXR1vZ3JbWJk-14" target="nmbz5OsClXR1vZ3JbWJk-37">
          <mxGeometry width="50" height="50" relative="1" as="geometry">
            <mxPoint x="421.23886000000005" y="-763.932" as="sourcePoint" />
            <mxPoint x="409" y="-784.6553600000001" as="targetPoint" />
          </mxGeometry>
        </mxCell>
        <mxCell id="nmbz5OsClXR1vZ3JbWJk-62" value="" style="endArrow=none;html=1;rounded=0;fontFamily=Times New Roman;fontSize=8;entryX=0.856;entryY=0.002;entryDx=0;entryDy=0;entryPerimeter=0;exitX=0.022;exitY=0.646;exitDx=0;exitDy=0;exitPerimeter=0;" edge="1" parent="1">
          <mxGeometry width="50" height="50" relative="1" as="geometry">
            <mxPoint x="590.00162" y="-678.1819999999999" as="sourcePoint" />
            <mxPoint x="534.27" y="-678.2900000000001" as="targetPoint" />
          </mxGeometry>
        </mxCell>
        <mxCell id="nmbz5OsClXR1vZ3JbWJk-63" value="" style="endArrow=none;html=1;rounded=0;fontFamily=Times New Roman;fontSize=8;entryX=0.856;entryY=0.002;entryDx=0;entryDy=0;entryPerimeter=0;" edge="1" parent="1">
          <mxGeometry width="50" height="50" relative="1" as="geometry">
            <mxPoint x="590" y="-678" as="sourcePoint" />
            <mxPoint x="534.27" y="-678.2900000000001" as="targetPoint" />
          </mxGeometry>
        </mxCell>
        <mxCell id="nmbz5OsClXR1vZ3JbWJk-64" value="" style="endArrow=none;html=1;rounded=0;fontFamily=Times New Roman;fontSize=8;entryX=0.856;entryY=0.002;entryDx=0;entryDy=0;entryPerimeter=0;exitX=0.022;exitY=0.792;exitDx=0;exitDy=0;exitPerimeter=0;" edge="1" parent="1" source="nmbz5OsClXR1vZ3JbWJk-15">
          <mxGeometry width="50" height="50" relative="1" as="geometry">
            <mxPoint x="690" y="-678" as="sourcePoint" />
            <mxPoint x="635" y="-678.1700000000001" as="targetPoint" />
          </mxGeometry>
        </mxCell>
        <mxCell id="nmbz5OsClXR1vZ3JbWJk-65" value="" style="endArrow=none;html=1;rounded=0;fontFamily=Times New Roman;fontSize=8;entryX=0.856;entryY=0.002;entryDx=0;entryDy=0;entryPerimeter=0;exitX=0.014;exitY=0.761;exitDx=0;exitDy=0;exitPerimeter=0;" edge="1" parent="1" source="nmbz5OsClXR1vZ3JbWJk-16">
          <mxGeometry width="50" height="50" relative="1" as="geometry">
            <mxPoint x="830" y="-680" as="sourcePoint" />
            <mxPoint x="789" y="-680.0000000000001" as="targetPoint" />
          </mxGeometry>
        </mxCell>
      </root>
    </mxGraphModel>
  </diagram>
</mxfile>
